<svg width="986" height="248" viewBox="0 0 986 248" fill="none" xmlns="http://www.w3.org/2000/svg">
<path d="M237.805 52.8022C234.292 52.8022 231.101 53.3364 228.716 54.2C225.54 52.5973 220.066 51.5288 213.845 51.5288C209.344 51.5288 205.239 52.0923 202.107 53.0144C200.768 48.1112 187.192 44.2765 170.646 44.2765C169.131 44.2765 167.653 44.3057 166.196 44.3716C164.601 34.9091 140.378 27.3861 110.732 27.3861C81.1953 27.3861 57.0379 34.858 55.3035 44.2765H55.1865C39.8622 44.2765 27.0919 47.5697 24.2158 51.9313C22.218 51.6825 20.0591 51.5288 17.7977 51.5288C7.96939 51.5288 0 54.1707 0 57.4346C0 60.6986 7.96939 63.3331 17.7977 63.3331H237.805C245.226 63.3331 251.234 60.9767 251.234 58.0713C251.234 55.1587 245.226 52.8022 237.805 52.8022" fill="white"/>
<path d="M622.675 25.5294C626.165 25.5294 629.327 26.066 631.705 26.9334C634.867 25.3236 640.298 24.2503 646.478 24.2503C650.95 24.2503 655.028 24.8164 658.14 25.7352C659.471 20.8249 672.957 16.9583 689.403 16.9583C690.901 16.9583 692.376 16.995 693.823 17.0539C695.408 7.54925 719.466 -1.01212e-05 748.911 -1.01212e-05C778.269 -1.01212e-05 802.262 7.49779 803.992 16.9583H804.101C819.326 16.9583 832.02 20.2736 834.877 24.6547C836.855 24.4047 838.999 24.2503 841.253 24.2503C851.01 24.2503 858.928 26.9114 858.928 30.1825C858.928 33.4463 851.01 36.0999 841.253 36.0999H622.675C615.303 36.0999 609.341 33.7329 609.341 30.8147C609.341 27.8964 615.303 25.5294 622.675 25.5294" fill="white"/>
<path d="M305.259 236.682C308.749 236.682 311.911 237.211 314.289 238.078C317.444 236.469 322.882 235.403 329.055 235.403C333.533 235.403 337.604 235.969 340.716 236.881C342.054 231.971 355.533 228.113 371.985 228.113C373.476 228.113 374.952 228.15 376.398 228.208C377.983 218.706 402.041 211.158 431.492 211.158C460.842 211.158 484.841 218.654 486.572 228.113H486.681C501.904 228.113 514.591 231.42 517.448 235.808C519.433 235.55 521.578 235.403 523.832 235.403C533.588 235.403 541.498 238.056 541.498 241.327C541.498 244.597 533.588 247.258 523.832 247.258H305.259C297.88 247.258 291.911 244.884 291.911 241.966C291.911 239.049 297.88 236.682 305.259 236.682" fill="white"/>
<path d="M972.243 176.035C968.73 176.035 965.547 176.56 963.161 177.432C959.978 175.828 954.504 174.759 948.283 174.759C943.782 174.759 939.677 175.322 936.545 176.237C935.206 171.343 921.638 167.501 905.084 167.501C903.569 167.501 902.083 167.535 900.634 167.604C899.039 158.133 874.823 150.624 845.177 150.624C815.626 150.624 791.476 158.087 789.734 167.507L789.624 167.501C774.3 167.501 761.523 170.8 758.654 175.171C756.656 174.913 754.497 174.759 752.236 174.759C742.407 174.759 734.445 177.409 734.445 180.665C734.445 183.921 742.407 186.565 752.236 186.565H972.243C979.664 186.565 985.679 184.208 985.679 181.303C985.679 178.39 979.664 176.035 972.243 176.035Z" fill="white"/>
</svg>
