<svg fill="none" height="520" viewBox="0 0 434 520" width="434" xmlns="http://www.w3.org/2000/svg" xmlns:xlink="http://www.w3.org/1999/xlink"><filter id="a" color-interpolation-filters="sRGB" filterUnits="userSpaceOnUse" height="520" width="434" x="0" y="0"><feFlood flood-opacity="0" result="BackgroundImageFix"/><feColorMatrix in="SourceAlpha" type="matrix" values="0 0 0 0 0 0 0 0 0 0 0 0 0 0 0 0 0 0 127 0"/><feOffset dx="1" dy="4"/><feGaussianBlur stdDeviation="12.5"/><feColorMatrix type="matrix" values="0 0 0 0 0 0 0 0 0 0 0 0 0 0 0 0 0 0 0.35 0"/><feBlend in2="BackgroundImageFix" mode="normal" result="effect1_dropShadow"/><feBlend in="SourceGraphic" in2="effect1_dropShadow" mode="normal" result="shape"/></filter><g filter="url(#a)"><rect fill="#c9c9c9" height="96" rx="3" width="256" x="40" y="395"/><g fill="#fff"><path d="m74 415h12v12h-12z"/><path d="m140 415h12v12h-12z"/><path d="m206 415h12v12h-12z"/><path d="m74 437h12v12h-12z"/><path d="m140 437h12v12h-12z"/><path d="m206 437h12v12h-12z"/><path d="m74 459h12v12h-12z"/><path d="m140 459h12v12h-12z"/><path d="m206 459h12v12h-12z"/><path d="m96 415h12v12h-12z"/><path d="m162 415h12v12h-12z"/><path d="m228 415h12v12h-12z"/><path d="m96 437h12v12h-12z"/><path d="m162 437h12v12h-12z"/><path d="m228 437h12v12h-12z"/><path d="m96 459h12v12h-12z"/><path d="m148 459h40v12h-40z"/><path d="m228 459h12v12h-12z"/><path d="m118 415h12v12h-12z"/><path d="m184 415h12v12h-12z"/><path d="m250 415h12v12h-12z"/><path d="m118 437h12v12h-12z"/><path d="m184 437h12v12h-12z"/><path d="m250 437h12v12h-12z"/><path d="m118 459h12v12h-12z"/><path d="m184 459h12v12h-12z"/><path d="m250 459h12v12h-12z"/></g><rect fill="#1d1d1d" height="63" rx="13" width="35" x="329" y="411"/><path clip-rule="evenodd" d="m216.5 333c14.083 0 25.5-11.417 25.5-25.5 0-2.61-.392-5.129-1.121-7.5h24.621l22.5 64h-143l23.5-64h23.621c-.729 2.371-1.121 4.89-1.121 7.5 0 14.083 11.417 25.5 25.5 25.5z" fill="#a8a8a8" fill-rule="evenodd"/><path clip-rule="evenodd" d="m240.549 316c.94-2.659 1.451-5.52 1.451-8.5 0-2.61-.392-5.129-1.121-7.5h24.621l5.621 16zm-48.098 0h-29.842l5.891-16h23.621c-.729 2.371-1.121 4.89-1.121 7.5 0 2.98.511 5.841 1.451 8.5z" fill="#878787" fill-rule="evenodd"/><path d="m24 36c0-8.2843 6.7157-15 15-15h354c8.284 0 15 6.7157 15 15v214h-384z" fill="#272727"/><path d="m24 251h384v24c0 13.807-11.193 25-25 25h-334c-13.8071 0-25-11.193-25-25z" fill="#eee"/><rect fill="#b1b1b1" height="212" rx="5" width="361" x="36" y="36"/><ellipse fill="#f46060" rx="3.3913" ry="3.5" transform="matrix(-1 0 0 1 49.3912 45.5)"/><ellipse fill="#ffdf39" rx="3.3913" ry="3.5" transform="matrix(-1 0 0 1 59.0001 45.5)"/><ellipse fill="#09ee3b" rx="3.3913" ry="3.5" transform="matrix(-1 0 0 1 68.6087 45.5)"/><rect fill="#ddd" height="9" rx="4.5" width="290" x="82" y="42"/><path d="m46 69h341v169h-341z" fill="#fff"/><path d="m46 69h341v26h-341z" fill="#e8e8e8"/><circle cx="75" cy="82" fill="#fff" r="9"/><rect fill="#c4c4c4" height="6" rx="3" transform="matrix(1 0 0 -1 258 85)" width="33"/><rect fill="#c4c4c4" height="6" rx="3" transform="matrix(1 0 0 -1 297 85)" width="34"/><rect fill="#c4c4c4" height="6" rx="3" transform="matrix(1 0 0 -1 337 85)" width="33"/><rect fill="#c4c4c4" height="7.41177" rx="3.70588" width="119" x="157" y="121"/><rect fill="#c4c4c4" height="7.41177" rx="3.70588" width="73.3491" x="180.082" y="134.588"/><rect fill="#ee2c39" height="55.1138" rx="10" width="118" x="157" y="156"/><path d="m226.338 180.782c2 1.155 2 4.042 0 5.196l-13.522 7.808c-2 1.154-4.5-.289-4.5-2.599v-15.614c0-2.309 2.5-3.753 4.5-2.598z" fill="#fff"/></g></svg>