<svg width="200" height="200" viewBox="0 0 200 200" fill="none" xmlns="http://www.w3.org/2000/svg">
<path d="M71.7499 183.499C87.076 183.499 99.4998 171.075 99.4998 155.749V127.999H71.7499C56.4239 127.999 44 140.424 44 155.749C44 171.075 56.4239 183.499 71.7499 183.499Z" fill="#0ACF83"/>
<path d="M44 100.25C44 84.9237 56.4239 72.4999 71.7499 72.4999H99.4998V128H71.7499C56.4239 128 44 115.575 44 100.25V100.25Z" fill="#A259FF"/>
<path d="M44 44.75C44 29.424 56.4239 17 71.7499 17H99.4998V72.4999H71.7499C56.4239 72.4999 44 60.0755 44 44.75V44.75Z" fill="#F24E1E"/>
<path d="M99.5002 17H127.25C142.576 17 155 29.424 155 44.75C155 60.0755 142.576 72.4999 127.25 72.4999H99.5002V17Z" fill="#FF7262"/>
<path d="M155 100.25C155 115.575 142.576 128 127.25 128C111.924 128 99.5002 115.575 99.5002 100.25C99.5002 84.9237 111.924 72.4999 127.25 72.4999C142.576 72.4999 155 84.9237 155 100.25Z" fill="#1ABCFE"/>
</svg>
