<svg width="200" height="200" viewBox="0 0 200 200" fill="none" xmlns="http://www.w3.org/2000/svg">
<path d="M0 100C0 44.7717 44.7717 0 100 0C155.228 0 200 44.7717 200 100C200 155.228 155.228 200 100 200C44.7717 200 0 155.228 0 100Z" fill="#333333"/>
<path d="M79.9998 160C91.0456 160 99.9998 151.045 99.9998 140V120H79.9998C68.9539 120 59.9998 128.954 59.9998 140C59.9998 151.045 68.9539 160 79.9998 160Z" fill="#0ACF83"/>
<path d="M59.9998 99.9999C59.9998 88.954 68.9539 79.9999 79.9998 79.9999H99.9998V120H79.9998C68.9539 120 59.9998 111.045 59.9998 99.9999V99.9999Z" fill="#A259FF"/>
<path d="M59.9998 60C59.9998 48.9541 68.9539 39.9999 79.9998 39.9999H99.9998V80H79.9998C68.9539 80 59.9998 71.0454 59.9998 60V60Z" fill="#F24E1E"/>
<path d="M100 39.9999H120C131.046 39.9999 140 48.9541 140 60C140 71.0454 131.046 80 120 80H100V39.9999Z" fill="#FF7262"/>
<path d="M140 99.9999C140 111.045 131.046 120 120 120C108.954 120 100 111.045 100 99.9999C100 88.954 108.954 79.9999 120 79.9999C131.046 79.9999 140 88.954 140 99.9999Z" fill="#1ABCFE"/>
</svg>
