<svg width="485" height="119" viewBox="0 0 485 119" fill="none" xmlns="http://www.w3.org/2000/svg">
<path d="M7.64062 24.8438C7.42188 22.6562 6.98438 20.8698 6.32812 19.4844C5.74479 18.099 5.08854 17.0052 4.35938 16.2031C3.70312 15.401 3.01042 14.8177 2.28125 14.4531C1.625 14.0885 1.07812 13.7969 0.640625 13.5781L1.1875 11.1719C4.10417 12.4115 7.75 12.9948 12.125 12.9219C16.5729 12.849 22.2604 11.901 29.1875 10.0781L29.625 11.6094C28.8229 11.974 27.9844 12.4115 27.1094 12.9219C26.3073 13.3594 25.4688 14.0885 24.5938 15.1094C23.7188 16.0573 22.8802 17.3698 22.0781 19.0469C21.276 20.651 20.5469 22.7292 19.8906 25.2812C19.3073 27.8333 18.7969 30.9688 18.3594 34.6875C17.9948 38.4062 17.776 42.8177 17.7031 47.9219C17.6302 54.0469 17.6667 59.6979 17.8125 64.875C18.0312 70.0521 18.4688 74.5729 19.125 78.4375C19.8542 82.2292 20.875 85.2917 22.1875 87.625C23.5 89.9583 25.25 91.3802 27.4375 91.8906L25.9062 93.8594C24.8125 93.7135 23.1719 93.6042 20.9844 93.5312C18.7969 93.4583 16.4635 93.4583 13.9844 93.5312C11.5052 93.6771 9.13542 93.8958 6.875 94.1875C4.61458 94.5521 2.86458 95.026 1.625 95.6094L1.1875 94.1875C2.13542 93.3125 3.08333 92.4375 4.03125 91.5625C4.97917 90.6146 5.78125 89.375 6.4375 87.8438C7.16667 86.3125 7.75 84.3073 8.1875 81.8281C8.625 79.349 8.84375 76.0677 8.84375 71.9844C8.77083 67.5365 8.69792 62.9792 8.625 58.3125C8.625 53.6458 8.55208 49.1979 8.40625 44.9688C8.33333 40.7396 8.22396 36.875 8.07812 33.375C8.00521 29.875 7.85938 27.0312 7.64062 24.8438ZM39.6875 13.4688C41.2917 13.3958 42.6406 13.8698 43.7344 14.8906C44.8281 15.8385 45.5573 17.0781 45.9219 18.6094C46.2135 19.9948 46.25 21.4531 46.0312 22.9844C45.8854 24.4427 45.4115 25.8281 44.6094 27.1406C43.8802 28.3802 42.8229 29.474 41.4375 30.4219C40.0521 31.3698 38.3385 31.9531 36.2969 32.1719L35.5312 29.5469C36.4792 29.3281 37.6094 28.8542 38.9219 28.125C40.2344 27.3229 41.0729 26.0104 41.4375 24.1875C40.9271 24.4792 40.3438 24.625 39.6875 24.625C38.0104 24.7708 36.5885 24.3333 35.4219 23.3125C34.2552 22.2188 33.6719 20.9062 33.6719 19.375C33.6719 17.8438 34.2552 16.5312 35.4219 15.4375C36.5885 14.2708 38.0104 13.6146 39.6875 13.4688ZM74.4688 92.4375C72.8646 92.2188 71.0781 92 69.1094 91.7812C67.1406 91.5625 65.1354 91.4167 63.0938 91.3438C61.125 91.1979 59.2292 91.1979 57.4062 91.3438C55.6562 91.4167 54.1979 91.6719 53.0312 92.1094L52.1562 90.25C53.1771 89.8125 54.0156 89.4115 54.6719 89.0469C55.401 88.6823 55.9479 88.2448 56.3125 87.7344C56.75 87.151 57.0781 86.3854 57.2969 85.4375C57.5156 84.4167 57.6979 83.0312 57.8438 81.2812C57.9167 80.1146 57.9896 78.474 58.0625 76.3594C58.1354 74.1719 58.2083 71.8021 58.2812 69.25C58.3542 66.625 58.3906 63.8906 58.3906 61.0469C58.3906 58.2031 58.3542 55.4688 58.2812 52.8438C58.2083 50.1458 58.099 47.6667 57.9531 45.4062C57.8073 43.1458 57.625 41.3229 57.4062 39.9375C57.1875 38.4792 56.8229 37.3854 56.3125 36.6562C55.8021 35.8542 55.1458 35.2708 54.3438 34.9062C53.6146 34.5417 52.7396 34.3229 51.7188 34.25C50.7708 34.1771 49.7135 34.1406 48.5469 34.1406V32.1719C53.1406 32.5365 57.2969 32.7188 61.0156 32.7188C64.7344 32.7188 67.7604 32.3906 70.0938 31.7344L70.2031 33.1562C69.7656 33.3021 69.3646 33.6667 69 34.25C68.6354 34.7604 68.2708 35.599 67.9062 36.7656C67.6146 37.9323 67.3229 39.4635 67.0312 41.3594C66.8125 43.2552 66.6667 45.6615 66.5938 48.5781C67.4688 46.8281 68.4896 45.0781 69.6562 43.3281C70.8229 41.5781 72.099 40.0469 73.4844 38.7344C74.9427 37.4219 76.5104 36.401 78.1875 35.6719C79.9375 34.8698 81.7969 34.5417 83.7656 34.6875C86.901 34.9792 89.2344 36.1458 90.7656 38.1875C92.3698 40.2292 93.4635 42.6354 94.0469 45.4062C96.2344 41.1771 99.0052 37.8594 102.359 35.4531C105.786 33.0469 109.651 32.099 113.953 32.6094C116.505 32.974 118.766 34.1406 120.734 36.1094C122.703 38.0052 124.307 40.375 125.547 43.2188C126.859 46.0625 127.698 49.1979 128.062 52.625C128.5 56.0521 128.464 59.3698 127.953 62.5781C127.37 65.7865 126.276 69.3229 124.672 73.1875C123.141 77.0521 121.5 80.9167 119.75 84.7812C118.073 88.6458 116.578 92.2917 115.266 95.7188C113.953 99.1458 113.297 101.953 113.297 104.141C113.297 107.495 114.099 109.938 115.703 111.469C117.38 113.073 119.385 113.875 121.719 113.875C122.885 113.875 124.052 113.693 125.219 113.328C126.458 112.964 127.552 112.38 128.5 111.578C129.521 110.849 130.323 109.901 130.906 108.734C131.562 107.641 131.891 106.328 131.891 104.797C131.891 102.682 131.125 101.151 129.594 100.203C128.062 99.2552 126.531 98.7812 125 98.7812C123.469 98.7812 122.156 99.2188 121.062 100.094C119.969 101.042 119.422 102.208 119.422 103.594C119.422 103.958 119.458 104.359 119.531 104.797C119.677 105.307 119.859 105.781 120.078 106.219C120.37 106.656 120.771 107.021 121.281 107.312C121.792 107.677 122.448 107.859 123.25 107.859C123.906 107.859 124.453 107.75 124.891 107.531C125.328 107.312 125.729 107.021 126.094 106.656C125.073 106.292 124.271 105.745 123.688 105.016C123.177 104.286 123.214 103.448 123.797 102.5C124.089 102.062 124.526 101.771 125.109 101.625C125.693 101.552 126.276 101.625 126.859 101.844C127.516 102.135 128.026 102.573 128.391 103.156C128.828 103.74 129.047 104.469 129.047 105.344C129.047 106.802 128.464 107.969 127.297 108.844C126.13 109.792 124.818 110.302 123.359 110.375C121.828 110.448 120.443 109.974 119.203 108.953C117.964 108.005 117.344 106.474 117.344 104.359C117.344 102.172 118.036 100.349 119.422 98.8906C120.88 97.4323 122.776 96.7031 125.109 96.7031C127.88 96.7031 130.068 97.5052 131.672 99.1094C133.349 100.786 134.188 102.828 134.188 105.234C134.188 106.474 133.969 107.823 133.531 109.281C133.094 110.812 132.328 112.234 131.234 113.547C130.214 114.859 128.792 115.953 126.969 116.828C125.219 117.776 122.958 118.25 120.188 118.25C118.438 118.25 116.76 117.922 115.156 117.266C113.625 116.609 112.24 115.625 111 114.312C109.833 113 108.885 111.396 108.156 109.5C107.5 107.677 107.135 105.562 107.062 103.156C107.062 100.531 107.573 97.5781 108.594 94.2969C109.688 91.0885 110.964 87.5885 112.422 83.7969C114.682 77.6719 116.25 71.9115 117.125 66.5156C118 61.1198 118.219 56.4167 117.781 52.4062C117.344 48.3958 116.286 45.224 114.609 42.8906C113.005 40.5573 110.818 39.3906 108.047 39.3906C106.224 39.3906 104.62 40.1562 103.234 41.6875C101.922 43.2188 100.828 45.1875 99.9531 47.5938C99.0781 50 98.3854 52.6979 97.875 55.6875C97.3646 58.6771 96.9635 61.6667 96.6719 64.6562C96.3802 67.5729 96.1979 70.3073 96.125 72.8594C96.0521 75.3385 96.0156 77.3438 96.0156 78.875C96.0156 80.6979 96.2344 82.1562 96.6719 83.25C97.1823 84.2708 97.7656 85.0729 98.4219 85.6562C99.151 86.2396 99.8802 86.6771 100.609 86.9688C101.411 87.1875 102.141 87.4062 102.797 87.625L102.141 89.375C101.339 89.2292 99.9896 89.0833 98.0938 88.9375C96.1979 88.7188 94.1927 88.6094 92.0781 88.6094C89.9635 88.5365 87.9219 88.6094 85.9531 88.8281C84.0573 89.0469 82.6354 89.4844 81.6875 90.1406L81.25 87.8438C81.9062 87.625 82.5625 87.4427 83.2188 87.2969C83.875 87.0781 84.4583 86.6771 84.9688 86.0938C85.5521 85.5104 85.9896 84.599 86.2812 83.3594C86.6458 82.0469 86.901 80.1875 87.0469 77.7812C87.2656 72.8958 87.5938 68.2656 88.0312 63.8906C88.5417 59.5156 88.9062 55.6875 89.125 52.4062C89.1979 50.7292 89.1615 49.1615 89.0156 47.7031C88.8698 46.1719 88.5417 44.8594 88.0312 43.7656C87.5208 42.599 86.7917 41.724 85.8438 41.1406C84.8958 40.4844 83.6927 40.1562 82.2344 40.1562C80.7031 40.2292 79.026 40.8854 77.2031 42.125C75.3802 43.3646 73.7031 45.1146 72.1719 47.375C70.6406 49.6354 69.3281 52.3698 68.2344 55.5781C67.2135 58.7135 66.7031 62.1771 66.7031 65.9688L66.5938 65.8594C66.7396 68.4115 66.849 70.9271 66.9219 73.4062C66.9948 75.8125 67.1042 77.8906 67.25 79.6406C67.3958 81.4635 67.5417 82.9948 67.6875 84.2344C67.8333 85.401 68.125 86.3854 68.5625 87.1875C69.0729 87.9896 69.8021 88.6458 70.75 89.1562C71.6979 89.5938 73.0104 89.9583 74.6875 90.25L74.4688 92.4375ZM160.984 46.1719C158.797 46.1719 157.01 45.7708 155.625 44.9688C154.167 44.0938 153.036 43.0729 152.234 41.9062C151.432 40.7396 150.849 39.5 150.484 38.1875C150.12 36.875 149.938 35.7448 149.938 34.7969C149.865 32.1719 150.594 29.3281 152.125 26.2656C153.583 23.1302 156.026 20.2135 159.453 17.5156C162.88 14.7448 167.328 12.4479 172.797 10.625C178.339 8.80208 185.083 7.89062 193.031 7.89062C195.073 7.89062 197.698 8.18229 200.906 8.76562C204.115 9.34896 207.25 10.4062 210.312 11.9375C213.375 13.4688 216 15.6198 218.188 18.3906C220.375 21.0885 221.432 24.5521 221.359 28.7812C221.359 31.625 220.885 34.2135 219.938 36.5469C218.99 38.8073 217.714 40.8125 216.109 42.5625C214.578 44.3125 212.719 45.7708 210.531 46.9375C208.344 48.0312 206.01 48.8333 203.531 49.3438C205.938 49.5625 208.417 50.1458 210.969 51.0938C213.521 51.9688 215.854 53.2448 217.969 54.9219C220.156 56.599 221.943 58.6406 223.328 61.0469C224.714 63.4531 225.443 66.2969 225.516 69.5781C225.589 74.1719 224.495 78.4375 222.234 82.375C220.047 86.2396 216.656 89.3385 212.062 91.6719C207.542 94.0052 201.854 95.4271 195 95.9375C188.219 96.4479 180.234 95.6094 171.047 93.4219C171.776 92.1094 172.396 90.8698 172.906 89.7031C173.49 88.5365 173.964 87.3333 174.328 86.0938C174.693 84.7812 174.984 83.3958 175.203 81.9375C175.495 80.4792 175.75 78.8385 175.969 77.0156C176.115 75.776 176.297 74.026 176.516 71.7656C176.807 69.5052 177.099 66.9167 177.391 64C177.682 61.0833 177.974 57.9115 178.266 54.4844C178.557 51.0573 178.776 47.5938 178.922 44.0938C179.141 40.5208 179.25 36.9844 179.25 33.4844C179.323 29.9844 179.286 26.6667 179.141 23.5312C178.995 21.125 178.885 19.1562 178.812 17.625C178.74 16.0208 178.63 14.7083 178.484 13.6875C174.474 14.2708 170.901 15.3281 167.766 16.8594C164.703 18.3177 162.115 20.1042 160 22.2188C157.885 24.2604 156.318 26.5573 155.297 29.1094C154.203 31.5885 153.766 34.1406 153.984 36.7656C154.203 39.3177 155.333 41.2135 157.375 42.4531C159.344 43.6198 161.641 44.0208 164.266 43.6562C165.578 43.4375 166.708 42.9635 167.656 42.2344C168.604 41.4323 169.37 40.5208 169.953 39.5C170.536 38.4792 170.901 37.349 171.047 36.1094C171.266 34.8698 171.266 33.6667 171.047 32.5C170.828 31.3333 170.391 30.4583 169.734 29.875C169.078 29.2917 168.349 28.9271 167.547 28.7812C166.745 28.5625 165.943 28.526 165.141 28.6719C164.266 28.8177 163.536 29.0729 162.953 29.4375C162.516 29.7292 162.115 30.1667 161.75 30.75C161.385 31.2604 161.13 31.8438 160.984 32.5C160.839 33.1562 160.875 33.849 161.094 34.5781C161.312 35.2344 161.823 35.7812 162.625 36.2188C162.698 35.3438 163.026 34.6146 163.609 34.0312C164.193 33.375 164.922 33.1927 165.797 33.4844C166.307 33.7031 166.672 34.1042 166.891 34.6875C167.109 35.1979 167.146 35.7812 167 36.4375C166.854 37.0208 166.526 37.5677 166.016 38.0781C165.505 38.5885 164.776 38.8802 163.828 38.9531C163.172 39.026 162.479 38.9531 161.75 38.7344C161.021 38.5156 160.365 38.151 159.781 37.6406C159.125 37.1302 158.615 36.474 158.25 35.6719C157.812 34.7969 157.63 33.7396 157.703 32.5C157.776 31.4062 158.104 30.4219 158.688 29.5469C159.271 28.6719 160 27.9427 160.875 27.3594C161.75 26.776 162.734 26.3385 163.828 26.0469C164.922 25.7552 166.016 25.6458 167.109 25.7188C171.922 25.9375 174.365 28.8542 174.438 34.4688C174.438 35.8542 174.146 37.2396 173.562 38.625C173.052 40.0104 172.214 41.2865 171.047 42.4531C169.88 43.5469 168.458 44.4583 166.781 45.1875C165.104 45.8438 163.172 46.1719 160.984 46.1719ZM188 13.0312C187.854 15.3646 187.562 17.9896 187.125 20.9062C186.76 23.75 186.396 26.776 186.031 29.9844C185.667 33.1927 185.339 36.5104 185.047 39.9375C184.828 43.2917 184.792 46.6458 184.938 50C188.146 50.4375 191.318 50.0365 194.453 48.7969C197.661 47.5573 200.542 45.7708 203.094 43.4375C205.646 41.1042 207.688 38.4062 209.219 35.3438C210.823 32.2083 211.625 29 211.625 25.7188C211.625 23.1667 210.823 20.9427 209.219 19.0469C207.615 17.151 205.609 15.6562 203.203 14.5625C200.797 13.4688 198.208 12.776 195.438 12.4844C192.74 12.1927 190.26 12.375 188 13.0312ZM185.047 55.1406C185.12 57.401 185.12 59.9167 185.047 62.6875C184.974 65.4583 184.828 68.3021 184.609 71.2188C184.464 74.1354 184.281 77.0885 184.062 80.0781C183.844 82.9948 183.625 85.7656 183.406 88.3906C186.323 89.4115 189.568 89.8125 193.141 89.5938C196.714 89.375 200.031 88.5365 203.094 87.0781C206.229 85.5469 208.818 83.3594 210.859 80.5156C212.901 77.6719 213.849 74.099 213.703 69.7969C213.557 66.9531 212.974 64.5833 211.953 62.6875C210.932 60.7917 209.583 59.2604 207.906 58.0938C206.302 56.8542 204.479 55.9427 202.438 55.3594C200.469 54.776 198.427 54.4115 196.312 54.2656C194.198 54.1198 192.156 54.1562 190.188 54.375C188.219 54.5208 186.505 54.776 185.047 55.1406ZM232.953 62.3594C233.172 58.0573 234.083 54.0469 235.688 50.3281C237.365 46.6094 239.516 43.4375 242.141 40.8125C244.766 38.1146 247.719 36.0729 251 34.6875C254.354 33.3021 257.818 32.8281 261.391 33.2656C264.964 33.7031 267.698 34.7969 269.594 36.5469C271.562 38.2969 272.948 40.2656 273.75 42.4531C274.552 44.5677 274.99 46.6823 275.062 48.7969C275.135 50.9115 275.135 52.5521 275.062 53.7188C274.99 54.8125 274.844 56.0156 274.625 57.3281C274.479 58.6406 274.297 59.9531 274.078 61.2656C273.932 62.5052 273.859 63.7083 273.859 64.875C273.859 65.9688 273.969 66.8802 274.188 67.6094C272.365 67.026 270.25 66.4062 267.844 65.75C265.438 65.0208 262.812 64.474 259.969 64.1094C257.198 63.7448 254.281 63.6354 251.219 63.7812C248.229 63.8542 245.24 64.3646 242.25 65.3125C242.177 68.0833 242.359 70.8542 242.797 73.625C243.307 76.3229 244.109 78.9115 245.203 81.3906C246.151 83.5052 247.245 85.3646 248.484 86.9688C249.724 88.5729 251.036 89.8125 252.422 90.6875C253.88 91.4896 255.339 91.9271 256.797 92C258.328 92.0729 259.859 91.6354 261.391 90.6875C262.63 89.8125 263.578 88.7552 264.234 87.5156C264.818 86.4948 265.036 85.2552 264.891 83.7969C264.818 82.3385 264.052 80.6615 262.594 78.7656L276.266 78.1094C275.755 79.5677 274.99 81.3906 273.969 83.5781C273.021 85.7656 271.708 87.8802 270.031 89.9219C268.354 91.9635 266.276 93.6771 263.797 95.0625C261.318 96.4479 258.328 97.0677 254.828 96.9219C251.328 96.7031 248.156 95.5729 245.312 93.5312C242.542 91.5625 240.208 88.974 238.312 85.7656C236.417 82.5573 234.995 78.9479 234.047 74.9375C233.099 70.8542 232.734 66.6615 232.953 62.3594ZM260.078 36.1094C258.036 35.8906 256.031 36.401 254.062 37.6406C252.167 38.8802 250.417 40.6667 248.812 43C247.281 45.2604 245.969 47.9583 244.875 51.0938C243.781 54.2292 243.016 57.5104 242.578 60.9375C246.734 60.4271 250.599 60.1719 254.172 60.1719C257.745 60.099 261.062 60.3177 264.125 60.8281C264.927 59.151 265.656 57 266.312 54.375C266.969 51.6771 267.26 49.0521 267.188 46.5C267.115 43.875 266.531 41.5781 265.438 39.6094C264.417 37.6406 262.63 36.474 260.078 36.1094ZM298.031 50.7656C298.906 48.0677 300.146 45.3698 301.75 42.6719C303.354 39.974 305.177 37.5677 307.219 35.4531C309.333 33.2656 311.594 31.5521 314 30.3125C316.479 29.0729 319.031 28.526 321.656 28.6719C324.062 28.8906 326.031 29.9479 327.562 31.8438C329.167 33.7396 330.443 36 331.391 38.625C332.339 41.1771 332.958 43.8385 333.25 46.6094C333.615 49.3073 333.76 51.5677 333.688 53.3906C333.542 55.651 333.068 57.8385 332.266 59.9531C331.536 61.9948 330.698 64.0729 329.75 66.1875C328.875 68.2292 328.036 70.3438 327.234 72.5312C326.432 74.7188 325.958 77.0156 325.812 79.4219C325.667 81.8281 325.922 84.125 326.578 86.3125C327.307 88.4271 328.328 90.0677 329.641 91.2344C330.953 92.401 332.484 92.875 334.234 92.6562C336.057 92.5104 337.917 91.2708 339.812 88.9375L341.234 90.1406C340.505 91.3802 339.302 92.5833 337.625 93.75C335.948 94.9896 333.979 95.6094 331.719 95.6094C330.188 95.6094 328.656 95.2812 327.125 94.625C325.667 94.0417 324.318 93.0938 323.078 91.7812C321.911 90.3958 320.927 88.6458 320.125 86.5312C319.396 84.4167 318.995 81.8281 318.922 78.7656C318.922 76.2135 319.25 73.8438 319.906 71.6562C320.562 69.4688 321.255 67.2812 321.984 65.0938C322.786 62.9062 323.479 60.6458 324.062 58.3125C324.719 55.9062 325.01 53.2448 324.938 50.3281C324.792 47.6302 324.354 45.4427 323.625 43.7656C322.969 42.0156 322.13 40.7031 321.109 39.8281C320.161 38.8802 319.104 38.2969 317.938 38.0781C316.844 37.7865 315.823 37.7135 314.875 37.8594C312.906 38.224 310.901 39.3542 308.859 41.25C306.818 43.0729 304.958 45.4062 303.281 48.25C301.677 51.0208 300.365 54.1927 299.344 57.7656C298.323 61.3385 297.776 64.9844 297.703 68.7031V68.4844C297.703 70.3073 297.667 71.9115 297.594 73.2969C297.521 74.6823 297.557 75.849 297.703 76.7969C297.703 78.9115 297.885 80.5885 298.25 81.8281C298.688 82.9948 299.161 83.9062 299.672 84.5625C300.182 85.2188 300.729 85.6927 301.312 85.9844C301.969 86.2031 302.516 86.349 302.953 86.4219L302.844 88.3906C301.823 88.1719 300.51 88.0625 298.906 88.0625C297.375 87.9896 295.698 88.0625 293.875 88.2812C292.052 88.5 290.156 88.901 288.188 89.4844C286.292 90.0677 284.542 90.8698 282.938 91.8906L282.172 90.3594C283.266 89.4844 284.214 88.7188 285.016 88.0625C285.891 87.3333 286.62 86.4219 287.203 85.3281C287.859 84.2344 288.406 82.8125 288.844 81.0625C289.281 79.3125 289.609 77.0156 289.828 74.1719C290.266 68.4115 290.557 62.7604 290.703 57.2188C290.849 51.6042 290.703 46.3906 290.266 41.5781C290.12 40.0469 289.719 38.8802 289.062 38.0781C288.479 37.276 287.75 36.7292 286.875 36.4375C286 36.0729 285.089 35.8906 284.141 35.8906C283.193 35.8906 282.281 35.9271 281.406 36L281.297 34.1406C282.901 33.9948 284.542 33.8125 286.219 33.5938C287.969 33.375 289.646 33.1562 291.25 32.9375C292.854 32.7188 294.276 32.5 295.516 32.2812C296.828 31.9896 297.849 31.6615 298.578 31.2969C298.432 33.6302 298.323 35.9635 298.25 38.2969C298.25 40.5573 298.214 42.6354 298.141 44.5312C298.068 46.7188 298.031 48.7969 298.031 50.7656ZM365.516 88.3906C367.193 88.3906 368.76 87.8073 370.219 86.6406C371.677 85.474 372.698 83.5052 373.281 80.7344L375.578 81.6094C375.359 83.3594 374.667 85.1458 373.5 86.9688C372.333 88.7188 370.839 90.2135 369.016 91.4531C367.193 92.6927 365.115 93.4948 362.781 93.8594C360.521 94.224 358.188 93.8594 355.781 92.7656C353.156 91.526 351.26 89.9219 350.094 87.9531C348.927 85.9844 348.198 83.724 347.906 81.1719C347.615 78.5469 347.578 75.7396 347.797 72.75C348.016 69.6875 348.125 66.5156 348.125 63.2344C348.125 61.3385 348.089 59.1146 348.016 56.5625C348.016 53.9375 347.943 51.1667 347.797 48.25C347.724 45.3333 347.578 42.3438 347.359 39.2812C347.141 36.1458 346.922 33.0833 346.703 30.0938C344.224 30.3854 341.854 30.75 339.594 31.1875C337.406 31.5521 335.547 32.026 334.016 32.6094C333.943 31.9531 333.943 31.4427 334.016 31.0781C334.016 30.7135 334.052 30.3854 334.125 30.0938C334.125 29.7292 334.125 29.3646 334.125 29C334.125 28.5625 334.052 27.9792 333.906 27.25C335.656 27.1042 337.589 26.9583 339.703 26.8125C341.891 26.6667 344.115 26.5208 346.375 26.375C346.302 25.3542 346.229 24.3698 346.156 23.4219C346.083 22.401 345.974 21.4167 345.828 20.4688C345.464 17.0417 344.771 14.3073 343.75 12.2656C342.802 10.224 341.745 8.65625 340.578 7.5625C339.411 6.46875 338.318 5.73958 337.297 5.375C336.276 4.9375 335.51 4.64583 335 4.5L335.328 2.42188C336.714 3.00521 338.427 3.40625 340.469 3.625C342.51 3.77083 344.625 3.77083 346.812 3.625C349.073 3.40625 351.26 3.04167 353.375 2.53125C355.562 2.02083 357.458 1.36458 359.062 0.5625C358.333 2.60417 357.677 5.84896 357.094 10.2969C356.583 14.7448 356.146 19.9219 355.781 25.8281C359.573 25.6094 362.307 25.3177 363.984 24.9531C363.62 25.3906 363.438 26.1198 363.438 27.1406C363.438 28.0885 363.547 28.9635 363.766 29.7656C362.526 29.6198 361.214 29.5469 359.828 29.5469C358.443 29.474 357.021 29.4375 355.562 29.4375C355.344 33.6667 355.198 38.0781 355.125 42.6719C355.052 47.2656 355.089 51.8229 355.234 56.3438C355.453 60.7917 355.745 65.1667 356.109 69.4688C356.547 73.6979 357.094 77.599 357.75 81.1719C358.333 83.724 359.354 85.5469 360.812 86.6406C362.271 87.7344 363.839 88.3177 365.516 88.3906ZM396.359 31.0781C399.422 31.0052 402.448 31.625 405.438 32.9375C408.427 34.25 411.125 36.2188 413.531 38.8438C415.938 41.4688 417.87 44.6771 419.328 48.4688C420.859 52.1875 421.625 56.4531 421.625 61.2656C421.625 66.0781 421.005 70.3438 419.766 74.0625C418.599 77.7083 416.995 80.8073 414.953 83.3594C412.984 85.9115 410.688 87.8802 408.062 89.2656C405.51 90.5781 402.812 91.3438 399.969 91.5625C396.76 91.7812 393.625 91.2708 390.562 90.0312C387.5 88.7188 384.729 86.7865 382.25 84.2344C379.844 81.6094 377.875 78.401 376.344 74.6094C374.812 70.7448 374.01 66.3333 373.938 61.375C373.792 56.2708 374.411 51.8594 375.797 48.1406C377.255 44.349 379.078 41.2135 381.266 38.7344C383.453 36.2552 385.896 34.3958 388.594 33.1562C391.292 31.9167 393.88 31.224 396.359 31.0781ZM400.953 84.3438C402.484 84.1979 404.125 83.5417 405.875 82.375C407.625 81.2083 409.156 79.4948 410.469 77.2344C411.781 74.901 412.729 72.0573 413.312 68.7031C413.969 65.276 413.932 61.2656 413.203 56.6719C412.474 52.0781 411.38 48.3594 409.922 45.5156C408.464 42.6719 406.859 40.4844 405.109 38.9531C403.432 37.349 401.719 36.3281 399.969 35.8906C398.219 35.3802 396.688 35.1615 395.375 35.2344C393.26 35.3802 391.474 36.1094 390.016 37.4219C388.557 38.6615 387.318 40.3021 386.297 42.3438C385.349 44.3125 384.62 46.5729 384.109 49.125C383.672 51.6771 383.417 54.3385 383.344 57.1094C383.198 60.6094 383.453 64.1094 384.109 67.6094C384.766 71.1094 385.896 74.2448 387.5 77.0156C389.031 79.7135 390.964 81.6823 393.297 82.9219C395.63 84.1615 398.182 84.6354 400.953 84.3438ZM441.094 50.7656C441.969 48.0677 443.208 45.3698 444.812 42.6719C446.417 39.974 448.24 37.5677 450.281 35.4531C452.396 33.2656 454.656 31.5521 457.062 30.3125C459.542 29.0729 462.094 28.526 464.719 28.6719C467.125 28.8906 469.094 29.9479 470.625 31.8438C472.229 33.7396 473.505 36 474.453 38.625C475.401 41.1771 476.021 43.8385 476.312 46.6094C476.677 49.3073 476.823 51.5677 476.75 53.3906C476.604 55.651 476.13 57.8385 475.328 59.9531C474.599 61.9948 473.76 64.0729 472.812 66.1875C471.938 68.2292 471.099 70.3438 470.297 72.5312C469.495 74.7188 469.021 77.0156 468.875 79.4219C468.729 81.8281 468.984 84.125 469.641 86.3125C470.37 88.4271 471.391 90.0677 472.703 91.2344C474.016 92.401 475.547 92.875 477.297 92.6562C479.12 92.5104 480.979 91.2708 482.875 88.9375L484.297 90.1406C483.568 91.3802 482.365 92.5833 480.688 93.75C479.01 94.9896 477.042 95.6094 474.781 95.6094C473.25 95.6094 471.719 95.2812 470.188 94.625C468.729 94.0417 467.38 93.0938 466.141 91.7812C464.974 90.3958 463.99 88.6458 463.188 86.5312C462.458 84.4167 462.057 81.8281 461.984 78.7656C461.984 76.2135 462.312 73.8438 462.969 71.6562C463.625 69.4688 464.318 67.2812 465.047 65.0938C465.849 62.9062 466.542 60.6458 467.125 58.3125C467.781 55.9062 468.073 53.2448 468 50.3281C467.854 47.6302 467.417 45.4427 466.688 43.7656C466.031 42.0156 465.193 40.7031 464.172 39.8281C463.224 38.8802 462.167 38.2969 461 38.0781C459.906 37.7865 458.885 37.7135 457.938 37.8594C455.969 38.224 453.964 39.3542 451.922 41.25C449.88 43.0729 448.021 45.4062 446.344 48.25C444.74 51.0208 443.427 54.1927 442.406 57.7656C441.385 61.3385 440.839 64.9844 440.766 68.7031V68.4844C440.766 70.3073 440.729 71.9115 440.656 73.2969C440.583 74.6823 440.62 75.849 440.766 76.7969C440.766 78.9115 440.948 80.5885 441.312 81.8281C441.75 82.9948 442.224 83.9062 442.734 84.5625C443.245 85.2188 443.792 85.6927 444.375 85.9844C445.031 86.2031 445.578 86.349 446.016 86.4219L445.906 88.3906C444.885 88.1719 443.573 88.0625 441.969 88.0625C440.438 87.9896 438.76 88.0625 436.938 88.2812C435.115 88.5 433.219 88.901 431.25 89.4844C429.354 90.0677 427.604 90.8698 426 91.8906L425.234 90.3594C426.328 89.4844 427.276 88.7188 428.078 88.0625C428.953 87.3333 429.682 86.4219 430.266 85.3281C430.922 84.2344 431.469 82.8125 431.906 81.0625C432.344 79.3125 432.672 77.0156 432.891 74.1719C433.328 68.4115 433.62 62.7604 433.766 57.2188C433.911 51.6042 433.766 46.3906 433.328 41.5781C433.182 40.0469 432.781 38.8802 432.125 38.0781C431.542 37.276 430.812 36.7292 429.938 36.4375C429.062 36.0729 428.151 35.8906 427.203 35.8906C426.255 35.8906 425.344 35.9271 424.469 36L424.359 34.1406C425.964 33.9948 427.604 33.8125 429.281 33.5938C431.031 33.375 432.708 33.1562 434.312 32.9375C435.917 32.7188 437.339 32.5 438.578 32.2812C439.891 31.9896 440.911 31.6615 441.641 31.2969C441.495 33.6302 441.385 35.9635 441.312 38.2969C441.312 40.5573 441.276 42.6354 441.203 44.5312C441.13 46.7188 441.094 48.7969 441.094 50.7656Z" fill="black"/>
</svg>
