<svg fill="none" height="224" viewBox="0 0 224 224" width="224" xmlns="http://www.w3.org/2000/svg" xmlns:xlink="http://www.w3.org/1999/xlink"><filter id="a" color-interpolation-filters="sRGB" filterUnits="userSpaceOnUse" height="224" width="224" x="0" y="0"><feFlood flood-opacity="0" result="BackgroundImageFix"/><feColorMatrix in="SourceAlpha" type="matrix" values="0 0 0 0 0 0 0 0 0 0 0 0 0 0 0 0 0 0 127 0"/><feOffset dx="2" dy="4"/><feGaussianBlur stdDeviation="6"/><feColorMatrix type="matrix" values="0 0 0 0 0 0 0 0 0 0 0 0 0 0 0 0 0 0 0.25 0"/><feBlend in2="BackgroundImageFix" mode="normal" result="effect1_dropShadow"/><feBlend in="SourceGraphic" in2="effect1_dropShadow" mode="normal" result="shape"/></filter><clipPath id="b"><path d="m25 83h171v50h-171z"/></clipPath><g filter="url(#a)"><circle cx="110" cy="108" fill="#fff" r="100"/></g><g clip-path="url(#b)"><path d="m25.02 92.2982h5.9623v13.3008h12.5749v-13.3008h5.9699v32.6498h-5.9699v-13.58h-12.5749v13.58h-5.9623zm43.3956 22.0148c0 2.734-2.2176 4.958-4.9389 4.958-2.7224 0-4.9387-2.224-4.9387-4.958v-14.056h-5.6543v14.056c0 5.865 4.7522 10.635 10.593 10.635 5.8393 0 10.5913-4.77 10.5913-10.635v-14.056h-5.6524zm21.4371-13.892c-2.8048 0-4.7626.818-6.6533 2.681v-10.8038h-5.6727v20.0228c0 7.494 5.3965 12.627 11.4593 12.627 6.7402 0 12.646-5.224 12.646-12.263 0-6.95-5.4459-12.264-11.7793-12.264zm.141 19.258c-3.8439 0-6.7832-3.224-6.7832-6.994 0-3.771 2.9393-6.995 6.7832-6.995 3.257 0 6.1981 3.224 6.1981 6.995 0 3.77-2.9411 6.994-6.1981 6.994zm21.1653-17.823c0-2.863 1.9-3.7708 3.98-3.7708 1.675 0 3.891 1.2716 5.337 2.8158l3.708-4.3595c-1.853-2.4977-5.607-4.2242-8.683-4.2242-6.152 0-10.585 3.5884-10.585 9.5387 0 11.037 13.525 7.538 13.525 13.717 0 1.906-1.853 3.588-3.978 3.588-3.349 0-4.435-1.635-5.972-3.362l-4.117 4.269c2.625 3.225 5.881 4.861 9.771 4.861 5.835 0 10.539-3.634 10.539-9.312 0-12.263-13.525-8.447-13.525-13.761zm28.459-1.755c-6.062 0-11.459 5.13-11.459 12.626v20.074h5.672v-10.855c1.891 1.862 3.848 2.681 6.654 2.681 6.333 0 11.779-5.313 11.779-12.263 0-7.04-5.907-12.263-12.646-12.263zm1.008 19.258c-3.843 0-6.783-3.228-6.783-6.995 0-3.771 2.94-6.995 6.783-6.995 3.256 0 6.198 3.224 6.198 6.995 0 3.767-2.942 6.995-6.198 6.995zm53.393.32c-3.346 0-4.296-1.453-4.296-3.68v-9.855h5.201v-4.996h-5.201v-6.5861l-5.742 2.5883v20.0758c0 5.133 3.526 7.722 8.364 7.722.724 0 1.72-.047 2.264-.181l1.402-5.178c-.633.044-1.357.09-1.992.09" fill="#45535e"/><path d="m179.06 106.434c-1.088-1.878-2.617-3.385-4.53-4.518-1.429-.836-2.911-1.366-4.581-1.594v-5.9691c1.67-.7119 2.707-2.2878 2.707-4.1262 0-2.5058-2.002-4.5364-4.495-4.5364-2.496 0-4.532 2.0306-4.532 4.5364 0 1.8384.977 3.4143 2.647 4.1262v5.9721c-1.336.194-2.722.612-3.987 1.255-2.584-1.971-11.057-8.4357-16.014-12.2115.118-.4256.208-.8642.208-1.327 0-2.7754-2.238-5.025-5.003-5.025s-5.003 2.2496-5.003 5.025c0 2.7751 2.24 5.0253 5.005 5.0253.943 0 1.816-.277 2.569-.7324l1.046.7968 14.373 10.3988c-.76.701-1.468 1.497-2.034 2.391-1.147 1.823-1.848 3.829-1.848 6.016v.457c0 1.535.291 2.985.786 4.347.435 1.189 1.073 2.27 1.862 3.248l-4.77 4.801c-.692-.258-1.443-.311-2.163-.152-.721.158-1.381.522-1.901 1.047-.36.36-.645.788-.84 1.26-.194.471-.293.976-.291 1.487 0 1.037.403 2.012 1.133 2.745.358.362.785.649 1.254.845.469.195.973.295 1.481.293.508.002 1.012-.098 1.481-.294.47-.195.896-.482 1.255-.844.36-.36.645-.788.839-1.259.195-.471.294-.976.293-1.486 0-.402-.062-.793-.178-1.166l4.93-4.951c.676.469 1.406.863 2.191 1.204 1.548.672 3.257 1.081 5.127 1.081h.343c2.067 0 4.017-.487 5.85-1.485 1.932-1.054 3.444-2.495 4.586-4.335 1.149-1.845 1.781-3.884 1.781-6.127v-.112c0-2.206-.509-4.242-1.577-6.107zm-6.025 10.387c-1.338 1.494-2.876 2.413-4.615 2.413h-.287c-.993 0-1.965-.275-2.916-.777-1.072-.552-1.887-1.339-2.554-2.336-.689-.979-1.063-2.047-1.063-3.18v-.344c0-1.114.212-2.17.749-3.167.573-1.09 1.348-1.938 2.378-2.612 1.011-.67 2.091-.998 3.294-.998h.112c1.091 0 2.124.216 3.098.717.993.534 1.804 1.263 2.433 2.223.611.959.974 1.995 1.091 3.122.019.235.028.475.028.704 0 1.531-.582 2.948-1.748 4.235z" fill="#f8761f"/></g></svg>