<svg width="200" height="200" viewBox="0 0 200 200" fill="none" xmlns="http://www.w3.org/2000/svg">
<g clip-path="url(#clip0)">
<path d="M10.0211 83.8419H16.3321V97.9207H29.6423V83.8419H35.9614V118.401H29.6423V104.027H16.3321V118.401H10.0211V83.8419ZM55.9545 107.145C55.9545 110.038 53.6071 112.392 50.7267 112.392C47.8452 112.392 45.4992 110.038 45.4992 107.145V92.2657H39.5142V107.145C39.5142 113.352 44.5444 118.401 50.7267 118.401C56.9075 118.401 61.9374 113.352 61.9374 107.145V92.2657H55.9545V107.145ZM78.6452 92.44C75.6764 92.44 73.6041 93.3051 71.6028 95.2776V83.8419H65.5984V105.035C65.5984 112.968 71.3105 118.401 77.7279 118.401C84.8622 118.401 91.113 112.871 91.113 105.421C91.113 98.0648 85.3489 92.44 78.6452 92.44V92.44ZM78.7944 112.823C74.7258 112.823 71.6145 109.411 71.6145 105.421C71.6145 101.43 74.7258 98.0166 78.7944 98.0166C82.2419 98.0166 85.355 101.43 85.355 105.421C85.355 109.411 82.2419 112.823 78.7944 112.823V112.823ZM101.198 93.9589C101.198 90.9282 103.209 89.9673 105.411 89.9673C107.183 89.9673 109.529 91.3133 111.059 92.9483L114.985 88.3333C113.023 85.6895 109.05 83.8622 105.794 83.8622C99.2817 83.8622 94.5895 87.6603 94.5895 93.9589C94.5895 105.641 108.906 101.938 108.906 108.478C108.906 110.495 106.943 112.275 104.694 112.275C101.15 112.275 100 110.545 98.3732 108.717L94.0154 113.236C96.794 116.649 100.24 118.381 104.358 118.381C110.534 118.381 115.514 114.535 115.514 108.524C115.514 95.5446 101.198 99.5834 101.198 93.9589V93.9589ZM131.321 92.1013C124.904 92.1013 119.191 97.531 119.191 105.466V126.714H125.195V115.224C127.197 117.195 129.268 118.061 132.238 118.061C138.942 118.061 144.706 112.437 144.706 105.081C144.706 97.6296 138.454 92.1013 131.321 92.1013V92.1013ZM132.388 112.485C128.319 112.485 125.208 109.069 125.208 105.081C125.208 101.09 128.319 97.6769 132.388 97.6769C135.835 97.6769 138.948 101.09 138.948 105.081C138.948 109.069 135.835 112.485 132.388 112.485ZM188.903 112.823C185.362 112.823 184.356 111.286 184.356 108.929V98.4972H189.861V93.2096H184.356V86.238L178.278 88.9776V110.227C178.278 115.66 182.011 118.401 187.131 118.401C187.897 118.401 188.952 118.351 189.527 118.209L191.012 112.729C190.341 112.775 189.576 112.823 188.903 112.823" fill="#45535E"/>
<path d="M173.069 98.8046C171.918 96.8161 170.299 95.2219 168.275 94.0218C166.762 93.1375 165.193 92.5763 163.426 92.3353V86.0168C165.193 85.2632 166.29 83.5952 166.29 81.6493C166.29 78.997 164.172 76.8476 161.533 76.8476C158.891 76.8476 156.736 78.997 156.736 81.6493C156.736 83.5952 157.77 85.2632 159.537 86.0168V92.3381C158.123 92.5433 156.657 92.986 155.318 93.6661C152.582 91.5803 143.614 84.7375 138.367 80.7409C138.492 80.2905 138.587 79.8262 138.587 79.3363C138.587 76.3986 136.218 74.0175 133.291 74.0175C130.365 74.0175 127.996 76.3986 127.996 79.3363C127.996 82.2737 130.367 84.6555 133.294 84.6555C134.292 84.6555 135.216 84.3623 136.012 83.8803L137.12 84.7237L152.334 95.7306C151.529 96.4721 150.78 97.3155 150.181 98.2619C148.967 100.191 148.225 102.314 148.225 104.629V105.112C148.225 106.738 148.532 108.272 149.056 109.714C149.517 110.973 150.192 112.117 151.027 113.152L145.978 118.234C145.246 117.961 144.452 117.905 143.689 118.073C142.926 118.241 142.228 118.625 141.677 119.181C141.296 119.562 140.994 120.015 140.788 120.514C140.583 121.013 140.478 121.548 140.479 122.089C140.48 123.186 140.906 124.218 141.679 124.995C142.058 125.378 142.509 125.681 143.006 125.888C143.503 126.095 144.036 126.201 144.574 126.199C145.112 126.201 145.645 126.095 146.142 125.888C146.639 125.681 147.09 125.378 147.47 124.995C147.851 124.614 148.153 124.161 148.358 123.662C148.564 123.163 148.669 122.628 148.668 122.089C148.668 121.664 148.603 121.249 148.48 120.855L153.698 115.614C154.414 116.11 155.187 116.528 156.018 116.888C157.656 117.6 159.465 118.033 161.444 118.033H161.807C163.995 118.033 166.059 117.517 168 116.461C170.044 115.346 171.645 113.82 172.854 111.872C174.069 109.919 174.738 107.761 174.738 105.387V105.269C174.738 102.933 174.2 100.779 173.069 98.8046V98.8046ZM166.692 109.799C165.276 111.38 163.647 112.353 161.807 112.353H161.503C160.452 112.353 159.424 112.062 158.417 111.531C157.282 110.947 156.419 110.113 155.713 109.058C154.984 108.022 154.588 106.891 154.588 105.692V105.328C154.588 104.149 154.813 103.031 155.381 101.976C155.988 100.822 156.808 99.9242 157.898 99.2107C158.968 98.5022 160.112 98.1547 161.385 98.1547H161.503C162.658 98.1547 163.751 98.3833 164.783 98.9132C165.834 99.4784 166.692 100.25 167.358 101.266C168.005 102.282 168.389 103.378 168.513 104.571C168.532 104.82 168.542 105.074 168.542 105.317C168.542 106.937 167.926 108.437 166.692 109.799Z" fill="#F8761F"/>
</g>
<defs>
<clipPath id="clip0">
<rect x="10" y="74" width="181" height="52.924" fill="white"/>
</clipPath>
</defs>
</svg>
