<svg width="177" height="200" viewBox="0 0 177 200" fill="none" xmlns="http://www.w3.org/2000/svg">
<g clip-path="url(#clip0)">
<path d="M169.778 180.9C169.147 181.531 168.358 181.847 167.41 181.847C166.463 181.847 165.674 181.531 165.043 180.9C164.411 180.268 164.095 179.479 164.095 178.532C164.095 177.585 164.411 176.716 165.122 176.085C165.753 175.454 166.542 175.217 167.41 175.217C168.358 175.217 169.147 175.533 169.778 176.164C170.41 176.795 170.725 177.585 170.725 178.532C170.804 179.479 170.489 180.268 169.778 180.9V180.9ZM165.516 176.559C164.964 177.111 164.727 177.742 164.727 178.453C164.727 179.242 164.964 179.873 165.516 180.426C166.069 180.978 166.7 181.215 167.489 181.215C168.279 181.215 168.91 180.978 169.463 180.426C170.015 179.873 170.252 179.242 170.252 178.453C170.252 177.742 170.015 177.032 169.463 176.559C168.91 176.006 168.279 175.69 167.489 175.69C166.7 175.769 166.069 176.006 165.516 176.559ZM168.515 180.189C168.2 180.426 167.884 180.505 167.568 180.505C167.095 180.505 166.621 180.347 166.227 179.952C165.832 179.558 165.674 179.084 165.674 178.532C165.674 177.979 165.832 177.506 166.148 177.111C166.463 176.716 166.937 176.559 167.489 176.559C167.805 176.559 168.121 176.637 168.437 176.795C168.831 177.032 169.147 177.427 169.226 178.058H168.358C168.279 177.821 168.2 177.585 168.042 177.506C167.884 177.427 167.726 177.348 167.568 177.348C167.332 177.348 167.095 177.427 166.937 177.664C166.779 177.9 166.7 178.216 166.7 178.611C166.7 179.005 166.779 179.321 166.937 179.479C167.095 179.637 167.332 179.795 167.568 179.795C167.805 179.795 167.963 179.716 168.121 179.637L168.358 179.163H169.147C169.068 179.637 168.831 179.952 168.515 180.189V180.189ZM176.882 145.146C176.882 144.83 176.803 144.514 176.803 144.199C176.803 143.962 176.724 143.804 176.724 143.646C176.645 143.173 176.566 142.778 176.408 142.304C176.093 141.436 175.619 140.568 174.988 139.858C174.356 139.147 173.646 138.595 172.935 138.2C172.146 137.806 171.357 137.569 170.725 137.411C170.489 137.411 170.331 137.332 170.173 137.332C171.041 133.544 169.936 130.623 169.226 129.282L169.384 129.124C170.331 128.177 171.12 127.308 171.83 126.44L171.988 126.282C172.541 125.493 172.857 124.704 173.093 123.993C173.251 123.362 173.409 122.81 173.409 122.257V121.783V121.468V120.757C173.33 119.574 173.172 118.074 172.383 116.416C171.988 115.627 171.436 114.759 170.725 113.97C170.015 113.18 169.147 112.47 168.121 111.918C168.042 111.839 167.963 111.839 167.884 111.76C165.753 108.682 163.385 106.235 161.254 104.42C160.149 103.473 159.123 102.683 158.255 102.052C157.387 101.42 156.676 100.947 156.282 100.631C155.334 99.9208 154.624 99.5262 154.308 99.3683C153.519 98.8948 152.967 98.5001 152.651 98.2634C152.414 98.0266 152.256 97.9477 152.177 97.8687C152.177 97.8687 152.177 97.7898 152.098 97.632C152.019 97.3952 152.019 97.0795 152.019 96.527C152.019 95.7377 152.019 94.5538 152.098 92.9753C152.256 90.4496 152.493 87.0558 152.809 82.3991C152.888 80.8995 152.888 79.4788 152.888 78.216C152.809 76.085 152.493 74.1908 152.098 72.4544C152.019 72.0597 151.862 71.6651 151.783 71.2705C151.704 70.9548 151.625 70.7969 151.546 70.6391C151.467 70.4023 151.388 70.1655 151.23 69.8498C151.151 69.6919 151.151 69.5341 150.993 69.3762C150.835 68.9816 150.678 68.587 150.441 68.1923L150.362 68.1134L150.283 67.8766L150.204 67.7188C149.809 67.0084 149.336 66.377 148.862 65.8245C148.625 64.7196 148.231 63.141 147.52 61.3257C146.889 59.7472 146.1 58.0108 144.916 56.2744C144.521 55.643 144.048 55.0905 143.574 54.538L143.732 54.3802C143.969 54.1434 149.494 48.3028 153.914 40.7259C162.043 26.598 159.36 17.995 155.65 13.2594L155.571 13.1016L155.492 12.9437C151.94 8.99738 147.047 6.62958 141.127 5.84031C128.735 4.26178 114.686 10.4181 110.977 12.1544L104.189 4.73534C103.557 4.10393 102.926 3.47251 102.215 2.99895C101.505 2.52539 100.716 2.05184 99.9265 1.6572C98.348 0.946863 96.6115 0.473303 94.7173 0.236523C91.0076 -0.237036 86.7455 0.236523 82.1676 1.42042C75.3008 3.15681 67.6448 6.62958 59.594 11.4441C51.5433 16.2586 43.1769 22.4938 35.0473 29.9129C25.1023 38.9106 16.8937 48.4607 10.8951 57.6162C7.89583 62.115 5.44904 66.5349 3.63369 70.7969C1.81833 74.98 0.6344 79.0053 0.160829 82.6359C-0.154886 85.3194 -0.154886 87.8451 0.397614 90.1339C0.6344 91.16 0.950114 92.1071 1.42369 93.0542C1.97619 94.2381 2.68654 95.3431 3.55476 96.2902L10.5794 103.63L11.3687 104.42L11.2898 104.499L11.053 104.972C10.8951 105.209 10.8162 105.446 10.6583 105.604L10.4215 106.077C10.3426 106.314 10.1848 106.551 10.1058 106.787L9.86904 107.261C9.79011 107.498 9.63226 107.735 9.55333 107.971C9.4744 108.129 9.39547 108.287 9.39547 108.445L9.15869 109.155C9.07976 109.313 9.07976 109.471 9.00083 109.629C8.9219 109.866 8.84297 110.102 8.76404 110.418C8.76404 110.497 8.68511 110.576 8.68511 110.655C8.68511 110.734 8.60619 110.813 8.60619 110.892C8.52726 111.128 8.44833 111.444 8.3694 111.681C8.3694 111.839 8.29047 111.997 8.29047 112.154C8.29047 112.233 8.21154 112.391 8.21154 112.47C8.21154 112.628 8.13261 112.786 8.13261 112.944C8.13261 113.102 8.05369 113.259 8.05369 113.417C7.97476 113.733 7.97476 114.049 7.89583 114.443C7.89583 114.522 7.89583 114.601 7.8169 114.759V114.838C7.8169 115.075 7.73797 115.312 7.73797 115.469C7.73797 115.785 7.65904 116.18 7.65904 116.495V120.442C7.65904 120.6 7.65904 120.757 7.73797 120.915C7.73797 121.073 7.73797 121.31 7.8169 121.547V121.783C7.8169 121.941 7.89583 122.178 7.89583 122.336C7.89583 122.494 7.97476 122.652 7.97476 122.888C7.97476 122.967 7.97476 123.046 8.05369 123.125C8.05369 123.204 8.13261 123.362 8.13261 123.441V123.599C8.13261 123.757 8.21154 123.915 8.29047 124.23C8.29047 124.309 8.29047 124.309 8.3694 124.388C8.44833 124.546 8.44833 124.704 8.44833 124.783L8.52726 124.941C8.52726 125.019 8.52726 125.019 8.60619 125.098L8.68511 125.256V125.493C8.68511 125.572 8.68512 125.572 8.76404 125.651L8.84297 125.809C8.84297 125.967 8.9219 126.046 8.9219 126.203C9.00083 126.361 9.00083 126.519 9.07976 126.835V126.756V126.835C9.07976 126.914 9.07976 126.914 9.15869 126.993C9.23762 127.229 9.31654 127.387 9.31654 127.466C9.39547 127.624 9.4744 127.782 9.55333 128.098L9.63226 128.177C9.71119 128.334 9.71119 128.492 9.79011 128.571L9.86904 128.729C9.86904 128.808 9.94797 128.887 9.94797 128.966C9.94797 129.045 10.0269 129.203 10.1058 129.282L10.1848 129.439C10.2637 129.518 10.2637 129.676 10.3426 129.755C10.4215 129.834 10.4215 129.913 10.4215 129.992C10.5005 130.15 10.5794 130.308 10.6583 130.544L10.7373 130.623C10.8162 130.702 10.8162 130.781 10.8951 130.86C10.974 130.939 10.974 131.097 11.053 131.176C11.1319 131.255 11.2108 131.413 11.2898 131.649L11.3687 131.728C11.4476 131.807 11.4476 131.886 11.5265 131.965C11.6055 132.123 11.6844 132.202 11.6844 132.281C11.7633 132.36 11.8423 132.518 11.9212 132.675V132.754C12.0001 132.833 12.0001 132.912 12.079 132.991C12.158 133.149 12.2369 133.228 12.3158 133.307C12.3948 133.386 12.4737 133.544 12.6315 133.78C12.7105 133.859 12.7894 133.938 12.7894 134.017C12.8683 134.175 12.9473 134.254 13.0262 134.333C13.1051 134.412 13.184 134.57 13.263 134.727C13.3419 134.806 13.4208 134.964 13.4998 135.043C13.5787 135.201 13.6576 135.28 13.8155 135.359L14.0523 135.596L14.1312 135.675C14.289 135.832 14.368 135.99 14.5258 136.148L14.6837 136.306L14.9205 136.543L15.394 137.016L15.5519 137.174L15.7887 137.411L15.8676 137.49C16.0255 137.648 16.2623 137.806 16.4201 138.042L16.499 138.121C16.578 138.2 16.6569 138.2 16.7358 138.358C16.9726 138.595 17.2094 138.753 17.4462 138.989L17.604 139.068L17.683 139.147L17.8408 139.226C18.0776 139.384 18.2355 139.542 18.4723 139.7L18.5512 139.779C18.6301 139.858 18.709 139.858 18.709 139.858L18.8669 140.016C19.0248 140.173 19.1826 140.252 19.3405 140.41L19.4983 140.489L19.6562 140.647L19.7351 140.726C19.893 140.805 20.1298 140.963 20.2876 141.042C20.3665 141.121 20.4455 141.199 20.6033 141.199L20.7612 141.278L20.8401 141.357H20.919C21.2348 141.515 21.4715 141.673 21.7083 141.831L21.8662 141.91L22.8133 142.383H22.8923L23.0501 142.462L23.5237 142.699C23.6026 142.699 23.6815 142.778 23.7605 142.778C23.8394 142.857 23.9183 142.857 24.0762 142.936H24.1551C24.313 143.015 24.4708 143.094 24.6287 143.094H24.7076C24.8655 143.173 25.0233 143.252 25.2601 143.33H25.339L25.4969 143.409C25.5758 143.409 25.6548 143.488 25.7337 143.488H25.8126C26.0494 143.567 26.2862 143.646 26.6019 143.725H26.6808C27.0755 143.883 27.4701 143.962 27.8648 144.041H27.9437C28.2594 144.12 28.654 144.199 28.9698 144.278H29.2855C29.6012 144.357 29.9169 144.435 30.2326 144.435H30.5483C30.7851 144.435 30.943 144.514 31.1798 144.514C31.1798 144.593 31.2587 144.672 31.2587 144.751C31.8112 146.251 32.3637 147.75 32.9951 149.171C42.3087 174.98 68.1183 195.027 97.5587 198.737C126.999 202.368 158.492 182.794 171.278 156.353C171.83 155.327 172.304 154.38 172.778 153.354C174.04 152.012 175.067 150.671 175.698 149.25C176.724 148.382 176.961 146.645 176.882 145.146V145.146ZM13.4208 134.885H13.4998H13.4208Z" fill="#664F44"/>
<path d="M151.703 16.0221C150.283 14.4435 148.625 13.2596 146.81 12.3914C146.494 12.2336 146.178 12.1547 145.784 12.0757C145.626 11.9968 145.468 11.839 145.31 11.76C143.732 11.1286 142.074 10.734 140.338 10.4972C131.813 9.39224 122.026 12.5493 116.501 14.7592C116.186 14.9171 115.87 14.996 115.554 15.1539C115.081 15.3907 114.607 15.5485 114.133 15.7853C113.344 16.101 112.555 16.4956 111.687 16.8903C111.529 16.9692 111.45 16.9692 111.292 17.0481L109.792 15.3117L109.082 14.5225L108.451 13.8121L108.214 13.4964L102.452 6.86659L101.978 6.3141L101.347 5.60376H101.268L99.6106 5.99839L97.7163 6.39303C96.6902 5.91947 95.4274 5.60376 94.0067 5.36698C91.1652 4.97235 87.5345 5.36698 83.4302 6.39303C79.326 7.41907 74.6692 9.23439 69.7756 11.6811C59.9095 16.5746 49.0174 24.0726 38.4409 33.7016C34.7313 37.0165 31.3374 40.4893 28.1802 43.8832C25.102 47.1981 22.3395 50.5919 19.8138 53.8279C14.6835 60.5367 10.816 67.0087 8.29024 72.8492C6.63274 76.7166 5.60666 80.2683 5.21202 83.3465C4.89631 85.5564 4.97524 87.5296 5.36988 89.1081C5.52774 89.6606 5.68559 90.0552 5.84345 90.5288C6.23809 91.4759 6.71166 92.2652 7.34309 92.9755L13.7363 99.6843L14.4467 100.395L14.5256 100.316C14.6835 100.079 14.9202 99.8421 15.157 99.6843L15.2359 99.6053L15.4727 99.3686C15.6306 99.1318 15.8674 98.9739 16.0252 98.7372C16.1831 98.5793 16.262 98.5004 16.4199 98.4214C16.5777 98.3425 16.6567 98.1847 16.8145 98.1057L16.9724 97.9479C17.1302 97.869 17.2092 97.7111 17.367 97.6322C17.5249 97.4743 17.7617 97.3165 17.9195 97.1586C17.9985 97.0797 18.1563 97.0008 18.2352 96.9218H18.3142C18.551 96.764 18.7088 96.6061 18.9456 96.4483C19.1035 96.3694 19.1824 96.2904 19.3402 96.1326C19.577 95.9747 19.7349 95.8169 19.9717 95.659C20.1295 95.5801 20.2085 95.5012 20.3663 95.4222C20.6031 95.2644 20.8399 95.1065 21.0767 95.0276C21.2345 94.9487 21.3135 94.8697 21.4713 94.7908C21.7081 94.633 21.9449 94.554 22.1817 94.3962C22.3395 94.3173 22.4185 94.2383 22.5763 94.1594L22.7342 94.0805C22.971 94.0016 23.1288 93.8437 23.3656 93.7648C23.4445 93.6859 23.6024 93.6859 23.6813 93.6069C23.8392 93.528 23.997 93.4491 24.2338 93.3701L24.7074 93.1334L24.8652 93.0544L26.0492 92.5809C26.207 92.502 26.286 92.502 26.4438 92.423C26.6017 92.3441 26.6806 92.3441 26.8385 92.2652L26.9963 92.1862C27.0752 92.1862 27.1542 92.1073 27.2331 92.1073C27.391 92.0284 27.5488 92.0284 27.7856 91.9495H27.9435C28.1802 91.8705 28.3381 91.8705 28.5749 91.7916C28.7327 91.7127 28.9695 91.7127 29.1274 91.6338C29.3642 91.5548 29.601 91.5548 29.8377 91.4759C29.9167 91.4759 29.9956 91.397 30.1535 91.397C30.2324 91.397 30.3902 91.397 30.4692 91.3181C30.7059 91.2391 30.9427 91.2391 31.1795 91.2391C31.4163 91.2391 31.5742 91.1602 31.8109 91.1602C31.9688 91.1602 32.1267 91.0813 32.2845 91.0813H32.9159C33.7052 91.0813 34.6524 91.0813 35.5995 91.1602H35.7574C36.7045 91.2391 37.8095 91.397 38.9145 91.6338C39.1513 91.7127 39.467 91.7127 39.7038 91.7916C39.7827 91.7127 39.7827 91.5548 39.8617 91.4759C40.4931 90.4499 41.0456 89.3449 41.677 88.3188C45.2288 82.3993 49.0174 77.1902 52.8849 72.6124C54.2267 71.0339 55.5685 69.6132 56.9102 68.1926C62.5142 62.352 68.1181 57.8532 73.1695 54.3804C74.2745 53.5911 75.4585 52.8808 76.4845 52.1705C77.9842 51.2233 79.4049 50.4341 80.7467 49.6448C81.8517 49.0134 82.8777 48.4609 83.9038 47.9873C85.5613 47.1192 87.061 46.4088 88.4027 45.8563L89.5867 45.3828C90.1392 45.146 90.6917 44.9092 91.1652 44.7514C90.7706 44.6724 90.297 44.6724 89.9024 44.6724H88.3238C87.9292 44.6724 87.4556 44.6724 87.061 44.7514C86.2717 44.8303 85.4035 44.9092 84.5352 44.9881C84.2195 45.0671 83.9827 45.0671 83.667 45.146C85.7981 44.041 87.9292 43.2518 89.9024 42.6203C91.2442 42.2257 92.586 41.91 93.8488 41.6732C95.5852 41.3575 97.2427 41.1207 98.7424 41.0418C99.7685 40.9629 100.716 40.9629 101.584 40.9629C102.452 40.9629 103.32 41.0418 104.031 41.0418C106.635 41.1997 108.214 41.5943 108.214 41.5943C107.819 41.0418 107.346 40.6472 106.872 40.2525C105.925 39.5422 104.899 39.0686 103.952 38.674C103.557 38.5162 103.241 38.4372 102.926 38.2794C102.689 38.2004 102.452 38.1215 102.294 38.1215C102.768 38.0426 103.162 37.9637 103.557 37.9637C104.031 37.8847 104.425 37.8847 104.899 37.8058C108.608 37.4901 111.923 37.8058 114.37 38.2004C117.291 38.7529 119.106 39.4633 119.106 39.4633C118.711 38.674 118.08 37.9637 117.37 37.3323C116.896 36.9376 116.343 36.543 115.87 36.2273C116.896 36.4641 117.764 36.7008 118.711 37.0166C121.079 37.7269 123.052 38.5951 124.631 39.3054L126.052 40.0158C126.21 40.0947 126.288 40.1736 126.367 40.1736C127.788 40.9629 128.577 41.5154 128.577 41.5154C128.341 40.6472 127.867 39.8579 127.236 39.1476C127.078 38.9897 126.92 38.7529 126.762 38.5951H126.841C126.92 38.5951 126.999 38.674 127.157 38.674C127.236 38.674 127.393 38.7529 127.551 38.8319C128.183 39.0686 129.13 39.4633 130.235 40.0158C130.314 40.0158 130.314 40.0947 130.393 40.0947L130.866 40.3315C131.261 40.5682 131.656 40.7261 132.05 41.0418L133.234 41.7521C133.471 41.91 133.629 41.9889 133.866 42.1468C134.26 42.4625 134.734 42.7782 135.128 43.1728C135.602 43.5675 135.997 43.9621 136.391 44.3567L136.628 44.5935C136.944 44.9092 137.26 45.2249 137.496 45.5406C138.049 46.172 138.522 46.8824 138.996 47.5927C139.548 48.4609 139.943 49.487 140.338 50.513C140.338 50.5919 140.338 50.6708 140.417 50.6708C140.653 50.4341 141.127 49.9605 141.68 49.3291C146.257 43.9621 159.991 26.5982 151.703 16.0221" fill="#132134"/>
<path d="M172.146 145.698C172.146 145.698 172.304 144.515 171.672 143.41C171.672 143.331 171.594 143.252 171.594 143.252L171.515 143.173L171.278 142.936C171.12 142.778 170.962 142.62 170.725 142.462C170.646 142.384 170.489 142.305 170.331 142.226C169.936 142.068 169.541 141.91 168.989 141.831C168.594 141.752 168.2 141.752 167.726 141.752H167.095V141.91C167.095 141.989 167.174 142.068 167.174 142.226C167.174 142.305 167.174 142.383 167.252 142.383C167.331 142.62 167.41 143.015 167.489 143.331C167.489 143.331 167.489 143.41 167.41 143.567V143.646C167.174 144.199 166.542 145.462 165.121 147.04C164.885 147.356 164.648 147.593 164.332 147.908C160.386 152.013 151.861 157.774 133.866 161.01C127.788 161.878 122.105 161.957 117.37 161.326C110.266 160.458 104.978 158.169 102.452 155.091C102.215 154.854 102.057 154.538 101.821 154.301C101.663 154.065 101.584 153.907 101.426 153.67C101.347 153.591 101.347 153.512 101.268 153.433C100.242 151.539 99.7685 149.487 99.7685 147.514C99.7685 145.067 100.558 142.778 101.821 141.042C102.847 139.621 104.189 138.516 105.846 138.043C106.635 137.806 107.504 137.648 108.372 137.727C108.53 137.727 108.766 137.727 109.082 137.806C109.635 137.885 110.503 137.964 111.529 138.121C111.608 138.121 111.766 138.121 111.845 138.2C115.239 138.595 120.606 139.148 127.078 138.753C138.917 138.043 154.466 134.333 168.594 121.547V121.468C168.673 120.363 168.515 118.469 167.174 116.969C166.937 116.732 166.7 116.496 166.384 116.259C166.226 116.101 165.99 116.022 165.832 115.864C165.595 115.785 165.437 115.627 165.279 115.548L164.569 115.075V114.996C164.49 114.838 164.411 114.68 164.253 114.522C160.622 108.998 155.571 105.762 153.519 104.262C152.572 103.552 151.94 103.236 151.94 103.236C147.599 100.552 146.968 99.6842 147.362 92.5019C147.52 89.8973 147.757 86.5035 148.073 81.8468C148.073 81.2154 148.152 80.6629 148.152 80.1104V79.7158V77.8215C148.152 77.4269 148.073 77.0323 148.073 76.7166C148.073 76.5587 148.073 76.4009 147.994 76.243C147.915 75.8484 147.915 75.4537 147.836 75.0591C147.836 74.9013 147.757 74.6645 147.757 74.5066C147.757 74.2698 147.678 74.112 147.599 73.8752C147.52 73.7174 147.52 73.4806 147.441 73.3227C147.362 73.0859 147.284 72.8492 147.284 72.6124C147.284 72.5335 147.205 72.4545 147.205 72.3756C147.205 72.2967 147.126 72.2178 147.126 72.1388V72.0599L147.047 71.8231C146.968 71.6653 146.889 71.5074 146.889 71.3496V71.2706L146.81 71.1128L146.731 70.9549C146.573 70.6392 146.494 70.3235 146.336 70.0867L146.257 69.85C146.1 69.6132 145.942 69.2975 145.784 69.0607L145.705 68.9818L145.626 68.9028C145.468 68.745 145.389 68.5871 145.231 68.4293L145.074 68.1925C144.916 67.9557 144.758 67.7979 144.6 67.64V67.0086C144.521 66.6929 144.442 66.2983 144.363 65.9036C144.363 65.8247 144.284 65.6668 144.284 65.5879V65.509C144.284 65.3511 144.205 65.2722 144.205 65.1144C144.126 64.7987 144.047 64.4829 143.89 64.1672C143.89 64.0883 143.811 63.9305 143.811 63.8515L143.574 63.1412C143.495 62.9833 143.495 62.8255 143.416 62.7466C143.337 62.5098 143.258 62.273 143.1 62.0362L142.864 61.5627C142.785 61.3259 142.627 61.0891 142.548 60.8523L142.311 60.3788C142.153 60.142 142.074 59.9052 141.916 59.6684L141.68 59.1949C141.522 58.9581 141.364 58.7213 141.206 58.4056C141.127 58.2477 141.048 58.1688 140.969 58.011C140.89 57.932 140.811 57.7742 140.732 57.6953C140.496 57.4585 140.338 57.2217 140.101 56.9849L139.943 56.906C139.627 56.5903 139.391 56.2746 139.075 56.0378L138.996 55.9589C138.838 55.8799 138.68 55.7221 138.601 55.6432H138.522C138.365 55.5642 138.286 55.4853 138.128 55.4064L138.049 55.3275C137.891 55.2485 137.654 55.0907 137.339 54.9328C137.26 54.8539 137.102 54.8539 136.944 54.775C136.234 54.5382 135.365 54.2225 134.26 53.9068C134.181 53.9068 134.102 53.9068 134.024 53.8279C133.155 53.5911 132.129 53.3543 131.024 53.1964C130.63 53.1175 130.314 53.1175 129.919 53.0386C129.761 53.0386 129.604 53.0386 129.367 52.9597H129.13C128.262 52.8807 127.472 52.8018 126.604 52.8018H126.525C125.42 52.8018 124.315 52.8807 123.289 53.1175C123.526 52.7229 124.236 52.2493 124.868 51.8547C125.736 51.3811 126.525 51.0654 126.525 51.0654C126.052 51.0654 125.578 51.1444 125.105 51.2233C124.947 51.2233 124.789 51.3022 124.631 51.3022C124.552 51.3022 124.394 51.3022 124.315 51.3811H124.236C124.157 51.3811 124.079 51.3811 124 51.4601C121.553 52.0125 119.185 52.8807 117.843 53.4332L117.37 53.67H117.291C117.133 53.67 117.054 53.67 116.896 53.7489C117.843 51.9336 119.264 50.9865 120.369 50.5129C120.527 50.434 120.764 50.3551 120.921 50.2762C121 50.2762 121 50.2762 121.079 50.1972C121.237 50.1183 121.395 50.1183 121.474 50.0394C121.711 49.9605 121.869 49.9604 121.869 49.9604H120.606C117.922 50.2762 115.475 51.1444 113.423 52.3283C112.002 53.1175 110.74 53.9857 109.635 54.8539C109.319 54.9328 109.082 55.0118 108.766 55.0118C105.767 55.6432 102.373 56.4324 98.8214 57.5374C97.4796 57.932 96.1378 58.4056 94.796 58.8792C93.77 59.2738 92.665 59.6684 91.6389 60.0631C90.8496 60.3788 90.1393 60.6945 89.35 61.0102C83.9039 63.4569 78.4578 66.6929 73.9589 71.0339L73.4853 71.5074L72.3014 72.6913L71.8278 73.1649C71.67 73.4016 71.4332 73.6384 71.2753 73.7963C70.4071 74.7434 69.6178 75.7695 68.8285 76.8744C68.276 77.6637 67.7235 78.5319 67.25 79.4001L67.171 79.479C66.145 81.2943 65.1978 83.1885 64.4875 85.3196C64.0928 86.3456 63.7771 87.4506 63.4614 88.5556C63.3825 88.8713 63.3035 89.108 63.2246 89.4238L63.1457 89.5816C62.83 90.7655 62.5932 92.0283 62.4353 93.2912C62.4353 93.5279 62.3564 93.7647 62.3564 94.0804C62.2775 94.7118 62.1985 95.3432 62.1985 96.0536C62.1196 96.685 62.1196 97.2375 62.1196 97.8689V100.316C62.1196 101.026 62.1196 101.736 62.1985 102.447V102.526C62.1985 103.236 62.2775 103.946 62.3564 104.736C62.3564 105.051 62.4353 105.367 62.4353 105.683V105.919C62.4353 106.077 62.4353 106.235 62.5142 106.472C62.5932 107.261 62.751 108.129 62.83 108.998C62.83 109.234 62.9089 109.471 62.9089 109.708C63.0667 110.418 63.1457 111.207 63.3035 111.918C63.3035 111.918 63.1457 110.971 63.2246 109.55C63.2246 109.234 63.3035 108.84 63.3035 108.524C63.3825 107.735 63.5403 106.788 63.856 105.919L64.0928 105.209C64.0928 105.13 64.1718 105.051 64.2507 104.893C64.4085 104.499 64.6453 104.025 64.8821 103.631C64.961 103.946 64.961 104.262 65.04 104.499V108.682C65.1189 111.365 65.3557 114.601 65.9082 117.364C65.9082 117.364 65.9871 112.391 66.8553 111.76C66.8553 111.76 68.355 121.073 69.6968 124.546C69.8546 125.02 70.0914 125.335 70.2493 125.572V124.625L70.0914 119.495V118.942C71.1175 121.073 72.3014 123.204 73.6432 125.493C74.0378 126.125 74.3535 126.756 74.7482 127.387C72.2225 129.597 69.8546 132.833 68.1182 136.622C67.8814 137.253 67.5657 137.885 67.3289 138.516C67.171 138.911 67.0921 139.226 66.9343 139.621C66.9343 139.7 66.8553 139.858 66.8553 139.937C66.7764 140.174 66.6975 140.489 66.6185 140.726C66.6185 140.884 66.5396 140.963 66.5396 141.121C66.4607 141.357 66.3818 141.673 66.3028 141.91C66.3028 142.068 66.2239 142.147 66.2239 142.305L65.9871 143.488C65.9082 143.883 65.8293 144.278 65.8293 144.672C65.8293 144.83 65.8293 144.909 65.7503 145.067C65.7503 145.383 65.6714 145.619 65.6714 145.935C65.6714 146.093 65.6714 146.251 65.5925 146.409C65.5925 146.724 65.5135 146.961 65.5135 147.277V150.039C65.5135 150.355 65.5135 150.671 65.5925 151.065V151.302C65.5925 151.697 65.6714 152.091 65.7503 152.565C65.7503 152.723 65.7503 152.802 65.8293 152.96C65.8293 153.275 65.9082 153.512 65.9871 153.828C65.9871 153.986 66.066 154.144 66.066 154.301C66.145 154.538 66.145 154.854 66.2239 155.091C66.2239 155.249 66.3028 155.406 66.3028 155.564C66.3818 155.801 66.4607 156.038 66.4607 156.354C66.5396 156.511 66.5396 156.669 66.6185 156.906C66.6975 157.143 66.7764 157.458 66.8553 157.695C66.9342 157.853 66.9343 158.011 67.0132 158.169C67.0921 158.406 67.171 158.721 67.25 158.958C67.3289 159.116 67.3289 159.274 67.4078 159.432C67.4868 159.747 67.6446 160.063 67.7235 160.3C67.8025 160.458 67.8025 160.537 67.8814 160.694L69.0653 163.299C69.1443 163.457 69.2232 163.536 69.3021 163.694L69.7757 164.641C69.8546 164.799 69.9335 164.957 70.0914 165.114C70.2493 165.351 70.4071 165.667 70.565 165.904C70.6439 166.061 70.8018 166.219 70.8807 166.377C71.0385 166.614 71.1964 166.93 71.4332 167.166C71.591 167.324 71.67 167.482 71.8278 167.719C71.9857 167.956 72.2225 168.271 72.3803 168.508C72.5382 168.666 72.6171 168.824 72.775 169.061C73.0117 169.297 73.1696 169.613 73.4064 169.85C73.5643 170.008 73.6432 170.166 73.801 170.324C74.0378 170.639 74.2746 170.876 74.5903 171.192L74.985 171.586C75.3796 171.981 75.7743 172.455 76.1689 172.849C76.1689 172.849 75.9321 172.533 75.6164 171.902C75.5375 171.823 75.4585 171.665 75.4585 171.507L75.2218 171.034C75.1428 170.876 75.0639 170.718 74.985 170.481C74.3535 169.061 73.801 167.009 73.88 164.799L74.5903 165.746C74.8271 166.298 75.2218 167.009 75.6164 167.798C75.7743 168.035 75.9321 168.35 76.011 168.587C76.6425 169.692 77.2739 170.955 78.0632 172.139C79.0103 173.638 79.9575 175.059 80.9835 176.401C80.9835 176.401 79.7996 173.875 79.405 172.218C79.326 171.744 79.2471 171.35 79.326 171.113C79.405 171.192 79.4839 171.35 79.6418 171.428C79.7207 171.507 79.7996 171.665 79.9575 171.744C80.1153 171.981 80.3521 172.297 80.6678 172.691L80.8257 172.849C80.9835 173.007 81.0625 173.244 81.2203 173.402C81.3782 173.638 81.536 173.875 81.7728 174.112C83.4303 176.243 85.7193 179.084 87.2978 180.584C87.8503 181.058 88.3239 181.452 88.6396 181.61L86.3507 177.506C91.56 181.768 113.186 187.214 134.418 181.136C137.023 180.426 139.549 179.479 142.074 178.374C143.574 177.743 145.074 176.953 146.573 176.164L146.81 176.006C147.836 175.454 148.862 174.822 149.888 174.191C150.677 173.717 151.467 173.165 152.177 172.691C153.44 171.823 154.703 170.876 155.966 169.85C156.045 169.771 156.124 169.692 156.202 169.692C157.386 168.666 158.57 167.561 159.596 166.456C161.017 164.957 162.28 163.457 163.385 161.957L163.464 161.878C163.78 161.484 164.016 161.168 164.253 160.773L164.332 160.694C164.411 160.537 164.49 160.458 164.569 160.3C164.964 159.747 165.279 159.274 165.674 158.721C165.753 158.563 165.832 158.485 165.911 158.327C166.069 158.011 166.226 157.774 166.463 157.458C166.621 157.222 166.7 157.064 166.858 156.827C167.016 156.59 167.174 156.354 167.252 156.117C167.489 155.722 167.726 155.249 167.963 154.854L168.2 154.38L168.673 153.433L168.91 152.96L168.989 152.802C169.147 152.407 169.384 152.013 169.541 151.618V151.539C170.252 150.908 170.725 150.276 171.199 149.724C171.278 149.645 171.357 149.566 171.357 149.487C171.83 147.987 172.146 146.803 172.146 145.698V145.698ZM45.15 130.387C45.15 130.308 45.15 130.229 45.071 130.071C44.8342 128.729 44.5975 127.309 44.5185 125.888V125.572C44.2818 125.651 44.045 125.967 43.7293 126.361C43.6503 126.519 43.4925 126.677 43.4135 126.914C42.7032 128.256 42.0717 130.15 42.0717 130.15C42.1507 129.518 42.2296 128.887 42.2296 128.256V128.019C42.3085 127.387 42.3875 126.677 42.4664 126.046V125.809C42.5453 125.02 42.7032 124.309 42.861 123.599C42.861 123.52 42.861 123.441 42.94 123.283V123.204C42.94 123.125 42.94 123.046 43.0189 122.968C43.0189 122.81 43.0978 122.731 43.0978 122.573C43.1767 122.02 43.3346 121.468 43.4135 120.915C43.4925 120.442 43.5714 119.968 43.6503 119.574V119.416C43.6503 119.337 43.6503 119.258 43.7293 119.258V119.1C43.7293 119.021 43.8082 118.863 43.8082 118.784C43.8082 118.706 43.8082 118.627 43.8871 118.548C43.8871 118.39 43.966 118.232 43.966 118.153C43.966 118.074 44.045 117.916 44.045 117.837C44.045 117.679 44.1239 117.522 44.1239 117.443C44.1239 117.364 44.1239 117.285 44.2028 117.206C44.2028 117.127 44.2028 117.048 44.2817 117.048C44.2817 116.89 44.3607 116.811 44.3607 116.732V116.496L44.2028 116.653C44.045 116.732 43.966 116.89 43.8082 116.969L43.6503 117.127C43.4925 117.285 43.3346 117.443 43.2557 117.601L43.1767 117.679L42.7032 118.39L42.6242 118.469C42.6242 118.548 42.5453 118.548 42.5453 118.627L42.3085 119.1V119.258C42.2296 119.495 42.0717 119.732 41.9928 119.968C41.756 120.6 41.5193 121.231 41.3614 121.784C41.2825 121.942 41.2825 122.178 41.2035 122.257C41.1246 122.573 41.0457 122.889 41.0457 122.968V123.046V122.968C41.0457 122.731 41.0457 122.573 41.1246 122.336C41.1246 121.942 41.2035 121.468 41.2035 121.073C41.2035 120.758 41.2825 120.363 41.3614 120.047C41.3614 119.968 41.3614 119.81 41.4403 119.732C41.4403 119.574 41.5192 119.416 41.5192 119.258C41.5192 119.1 41.5982 118.942 41.5982 118.784V118.548C41.5982 118.39 41.6771 118.153 41.6771 117.995V117.601V117.443C41.6771 117.364 41.6771 117.285 41.756 117.206C41.835 116.969 41.9139 116.653 41.9139 116.417V116.338C41.9928 116.18 41.9928 115.943 42.0717 115.785V115.706C42.1507 115.312 42.3085 114.917 42.3875 114.522V114.365C42.3875 114.286 42.3875 114.207 42.4664 114.128C42.6242 113.496 42.861 112.865 43.0189 112.312V112.234C43.1767 111.76 43.4135 111.207 43.5714 110.734V110.655C43.6503 110.418 43.7292 110.26 43.8082 110.024C43.966 109.708 44.045 109.392 44.2028 109.076C44.2028 108.998 44.2817 108.84 44.4396 108.524C44.5185 108.445 44.5185 108.287 44.5975 108.208C44.6764 108.05 44.7553 107.893 44.8342 107.656L44.9132 107.498L46.255 105.051C46.3339 104.972 46.3339 104.814 46.4128 104.736V104.657L46.4918 104.499C46.6496 104.262 46.8075 103.946 46.9653 103.709C47.2021 103.315 47.36 102.92 47.5967 102.604C47.9914 101.894 48.3071 101.263 48.5439 100.947C48.6228 100.71 48.7017 100.631 48.7807 100.552C48.7017 100.552 48.3071 100.237 47.6757 99.8421C46.8864 99.3685 45.7814 98.7371 44.4396 98.1057C43.966 97.8689 43.5714 97.711 43.0978 97.4743C42.5453 97.2375 41.9139 97.0007 41.2825 96.7639C41.1246 96.685 40.9667 96.685 40.8089 96.6061C40.2564 96.4482 39.7828 96.2904 39.2303 96.1325C38.8357 96.0536 38.441 95.9747 38.1253 95.8957C37.8096 95.8168 37.4939 95.8168 37.1782 95.7379C37.0203 95.7379 36.8625 95.7379 36.7046 95.659C36.5467 95.659 36.3889 95.659 36.231 95.58C35.8364 95.58 35.3628 95.5011 34.9682 95.5011H34.3367C33.3896 95.5011 32.5214 95.58 31.6532 95.7379H31.4953C29.9167 95.9747 28.4171 96.3693 26.9175 96.9218C26.4439 97.0796 25.9703 97.3164 25.4178 97.5532C25.26 97.6321 25.181 97.711 25.0232 97.711L24.5496 97.9478C23.1289 98.6582 21.7871 99.6053 20.5242 100.631H20.4453C19.3403 101.5 18.3932 102.526 17.525 103.552L16.8146 104.499C16.4989 104.893 16.2621 105.288 16.0253 105.683C15.5517 106.393 15.0782 107.182 14.6835 107.972C14.5257 108.287 14.3678 108.524 14.2889 108.84C14.2889 108.919 14.21 108.919 14.21 108.998C13.4207 110.892 12.7892 112.865 12.5525 114.996C12.4735 115.391 12.4735 115.785 12.3946 116.259V116.417C12.3946 116.732 12.3157 117.048 12.3157 117.443V118.863C12.3157 119.179 12.3157 119.495 12.3946 119.81V120.205C12.3946 120.442 12.4735 120.679 12.4735 120.915V120.994C12.4735 121.152 12.4735 121.231 12.5525 121.389C12.5525 121.626 12.6314 121.863 12.6314 122.02C12.6314 122.178 12.7103 122.336 12.7103 122.494C12.7892 122.731 12.7892 122.889 12.8682 123.125C12.8682 123.283 12.9471 123.441 13.026 123.599V123.678L13.105 123.836V123.994L13.1839 124.151C13.2628 124.309 13.2628 124.467 13.3417 124.625C13.4207 124.783 13.4207 125.02 13.4996 125.178C13.5785 125.335 13.6575 125.493 13.6575 125.73L13.7364 125.888C13.8153 126.046 13.8153 126.125 13.8942 126.282C13.9732 126.44 14.0521 126.598 14.131 126.835L14.3678 127.309C14.4467 127.387 14.4467 127.466 14.5257 127.545C14.6046 127.624 14.6046 127.703 14.6835 127.782L14.9203 128.256C14.9992 128.413 15.0782 128.65 15.236 128.808C15.315 128.966 15.3939 129.124 15.4728 129.203C15.5517 129.361 15.7096 129.597 15.7885 129.755C15.8675 129.913 15.9464 129.992 16.0253 130.15C16.1042 130.308 16.2621 130.545 16.42 130.702C16.4989 130.86 16.5778 130.939 16.6567 131.018C16.8146 131.176 16.8935 131.413 17.0514 131.571C17.1303 131.649 17.2092 131.807 17.2882 131.886C17.446 132.044 17.6039 132.281 17.7617 132.439C17.8407 132.518 17.9196 132.597 17.9985 132.754C18.1564 132.912 18.3142 133.149 18.4721 133.307L18.7089 133.544C18.8667 133.702 19.0246 133.938 19.2614 134.096L19.4982 134.333L20.0507 134.885C20.1296 134.964 20.2085 135.043 20.2875 135.043C20.4453 135.201 20.6821 135.359 20.9189 135.596C20.9978 135.675 21.0767 135.675 21.1557 135.754C21.3925 135.912 21.5503 136.069 21.7871 136.227C21.866 136.306 21.945 136.306 21.945 136.385L22.6553 136.859L22.8132 136.938L23.5235 137.411L23.6814 137.49C23.9182 137.648 24.2339 137.806 24.4707 137.964L24.6285 138.043C24.8653 138.2 25.181 138.358 25.4178 138.437L25.5757 138.516C25.8914 138.674 26.1282 138.753 26.4439 138.911L26.5228 138.99C26.8385 139.148 27.1542 139.226 27.391 139.384H27.47C27.7857 139.463 28.1014 139.621 28.4171 139.7H28.496C28.6539 139.779 28.8117 139.779 28.9696 139.858C29.1275 139.937 29.2853 139.937 29.5221 140.016H29.601C29.9167 140.095 30.3114 140.174 30.6271 140.252C30.9428 140.331 31.3375 140.41 31.6532 140.41C32.7582 140.568 33.8632 140.647 34.9682 140.726H35.7575C36.1521 140.726 36.4678 140.726 36.8625 140.647C37.336 140.568 37.8885 140.568 38.441 140.489C38.9146 140.41 39.3882 140.331 39.7828 140.252C40.4932 140.095 41.2035 139.937 41.835 139.7C43.8871 139.148 45.6235 138.358 46.7285 137.49C46.7285 137.49 46.0182 134.333 45.4657 131.176C45.3078 131.018 45.2289 130.702 45.15 130.387" fill="#90694C"/>
<path d="M95.8221 13.1017L95.5853 9.94467L97.1639 6.4719L97.7953 6.31405C96.7692 5.84049 95.5064 5.52478 94.0856 5.288C91.2442 4.89337 87.6135 5.288 83.5092 6.31405C79.4049 7.34009 74.7481 9.15541 69.8546 11.6021C59.9885 16.4956 49.0964 23.9936 38.5199 33.6227C34.8103 36.9376 31.4164 40.4103 28.2592 43.8042C25.181 47.1191 22.4185 50.513 19.8928 53.7489C14.7624 60.4577 10.8949 66.9297 8.36922 72.7703C6.71172 76.6377 5.68564 80.1894 5.291 83.2675C4.97529 85.4774 5.05422 87.4506 5.44886 89.0291C5.60672 89.5816 5.76457 89.9763 5.92243 90.4498C6.31707 91.3969 6.79064 92.1862 7.42207 92.8965L13.8153 99.6053L14.5256 100.316L14.6046 100.237C14.7624 99.9999 14.9992 99.7632 15.236 99.6053L15.3149 99.5264L15.5517 99.2896C15.7096 99.0528 15.9464 98.895 16.1042 98.6582C16.2621 98.5003 16.341 98.4214 16.4989 98.3425C16.6567 98.2635 16.7356 98.1057 16.8935 98.0268L17.0514 97.8689C17.2092 97.79 17.2881 97.6321 17.446 97.5532C17.6039 97.3954 17.8406 97.2375 17.9985 97.0796C18.0774 97.0007 18.2353 96.9218 18.3142 96.8429H18.3931C18.6299 96.685 18.7878 96.5272 19.0246 96.3693C19.1824 96.2904 19.2614 96.2115 19.4192 96.0536C19.656 95.8957 19.8139 95.7379 20.0506 95.58C20.2085 95.5011 20.2874 95.4222 20.4453 95.3433C20.6821 95.1854 20.9189 95.0276 21.1556 94.9486C21.3135 94.8697 21.3924 94.7908 21.5503 94.7119C21.7871 94.554 22.0239 94.4751 22.2606 94.3172C22.4185 94.2383 22.4974 94.1594 22.6553 94.0804L22.8131 94.0015C24.3128 89.8184 26.6017 85.1617 29.601 80.4261C33.2317 74.5856 37.8885 68.4293 43.4135 62.273C46.8864 58.4056 50.6749 54.5382 54.7792 50.8287C60.0674 46.0141 65.5135 41.6732 70.8806 37.8847C74.5114 35.359 78.0631 33.0702 81.536 31.097C81.8517 30.9392 82.1674 30.7024 82.5621 30.5445C83.5092 29.992 84.3774 29.5185 85.3246 29.0449C87.2978 28.0189 89.271 27.0717 91.1653 26.2825L90.2181 25.1775L90.0603 25.0197L88.8764 23.6779L82.3253 15.7852L82.4042 10.1025L82.3253 10.0236L86.9821 8.60292L95.8221 13.1017Z" fill="#2F83C1"/>
<path d="M172.146 145.698C172.146 145.698 172.304 144.515 171.672 143.41C171.672 143.331 171.593 143.252 171.593 143.252L171.514 143.173L171.278 142.936C171.12 142.778 170.962 142.62 170.725 142.462C170.646 142.384 170.488 142.305 170.331 142.226C169.936 142.068 169.541 141.91 168.989 141.831C168.594 141.752 168.199 141.752 167.726 141.752H167.094V141.91C167.094 141.989 167.173 142.068 167.173 142.226C167.173 142.305 167.173 142.384 167.252 142.384C167.331 142.62 167.41 143.015 167.489 143.331C167.489 143.331 167.489 143.41 167.41 143.567V143.646C167.173 144.199 166.542 145.462 165.121 147.04C164.884 147.356 164.648 147.593 164.332 147.908C160.386 152.013 151.861 157.774 133.866 161.01C127.788 161.878 122.105 161.957 117.369 161.326C110.266 160.458 104.978 158.169 102.452 155.091C102.215 154.854 102.057 154.538 101.821 154.301C101.663 154.065 101.584 153.907 101.426 153.67C101.347 153.591 101.347 153.512 101.268 153.433C100.242 151.539 99.7684 149.487 99.7684 147.514C99.7684 145.067 100.558 142.778 101.821 141.042C102.847 139.621 104.188 138.516 105.846 138.043C106.635 137.806 107.503 137.648 108.372 137.727C108.529 137.727 108.766 137.727 109.082 137.806C109.634 137.885 110.503 137.964 111.529 138.122C111.608 138.122 111.766 138.122 111.844 138.2C115.238 138.595 120.606 139.148 127.078 138.753C138.917 138.043 154.466 134.333 168.594 121.547V121.468C168.673 120.363 168.515 118.469 167.173 116.969C166.937 116.732 166.7 116.496 166.384 116.259C166.226 116.101 165.989 116.022 165.832 115.864C165.595 115.785 165.437 115.627 165.279 115.549L164.569 115.075V114.996C164.49 114.838 164.411 114.68 164.253 114.522C160.622 108.998 155.571 105.762 153.519 104.262C152.572 103.552 151.94 103.236 151.94 103.236C147.599 100.552 146.968 99.6843 147.362 92.502C147.52 89.8974 147.757 86.5035 148.073 81.8469C148.073 81.2154 148.152 80.663 148.152 80.1105V79.7158V77.8216C148.152 77.427 148.073 77.0323 148.073 76.7166C148.073 76.5588 148.073 76.4009 147.994 76.2431C147.915 75.8484 147.915 75.4538 147.836 75.0592C147.836 74.9013 147.757 74.6645 147.757 74.5067C147.757 74.2699 147.678 74.1121 147.599 73.8753C147.52 73.7174 147.52 73.4806 147.441 73.3228C147.362 73.086 147.283 72.8492 147.283 72.6124C147.283 72.5335 147.204 72.4546 147.204 72.3757C147.204 72.2967 147.126 72.2178 147.126 72.1389V72.06L147.047 71.8232C146.968 71.6653 146.889 71.5075 146.889 71.3496V71.2707L146.81 71.1128L146.731 70.955C146.573 70.6393 146.494 70.3236 146.336 70.0868L146.257 69.85C146.099 69.6132 145.942 69.2975 145.784 69.0608L145.705 68.9818L145.626 68.9029C145.468 68.745 145.389 68.5872 145.231 68.4293L145.073 68.1926C144.916 67.9558 144.758 67.7979 144.6 67.6401L143.968 67.0087C143.732 66.8508 143.495 66.693 143.258 66.614C143.179 66.5351 143.1 66.5351 143.021 66.5351L142.548 66.2983C142.469 66.2983 142.39 66.2194 142.311 66.2194C142.153 66.1405 141.995 66.1405 141.916 66.0615C141.837 66.0615 141.758 65.9826 141.601 65.9826C141.443 65.9826 141.364 65.9037 141.206 65.9037H139.469C139.391 65.9037 139.312 65.9037 139.233 65.9826C139.154 65.9826 139.075 65.9826 138.996 66.0615C138.838 66.0615 138.68 66.1405 138.443 66.2194H138.286C137.812 66.3772 137.417 66.5351 136.944 66.693L136.786 66.7719C136.628 66.8508 136.47 66.9297 136.233 67.0087L135.997 67.0876L135.523 67.3244L135.286 67.4822L134.813 67.719L134.576 67.8769C134.418 67.9558 134.26 68.1136 134.102 68.1926L133.944 68.2715C133.787 68.4293 133.55 68.5083 133.392 68.6661L133.313 68.745C133.076 68.9029 132.918 69.0607 132.682 69.1397C132.287 69.3765 131.892 69.6922 131.498 69.9289C131.182 70.1657 130.866 70.4025 130.472 70.6393L130.314 70.7182C129.998 70.955 129.603 71.1918 129.288 71.3496L129.13 71.4285C128.814 71.6653 128.419 71.8232 128.104 72.06L127.946 72.1389C127.63 72.3757 127.236 72.5335 126.841 72.6914L126.683 72.7703C126.288 72.9282 125.973 73.086 125.578 73.2439L125.42 73.3228C125.026 73.4806 124.631 73.5596 124.236 73.7174H124.157C123.763 73.7963 123.289 73.8753 122.894 73.9542C122.184 74.0331 121.395 74.1121 120.684 74.1121C119.501 74.1121 118.317 74.0331 117.054 73.8753L115.87 73.6385C115.712 73.6385 115.554 73.5596 115.475 73.5596C114.449 73.3228 113.344 73.086 112.318 72.8492C111.844 72.7703 111.45 72.6124 110.976 72.5335C110.266 72.3757 109.556 72.2178 108.766 72.06C108.608 72.06 108.451 71.981 108.372 71.981C108.293 71.981 108.135 71.9021 108.056 71.9021C107.898 71.9021 107.74 71.8232 107.582 71.8232C107.424 71.8232 107.267 71.7443 107.109 71.7443H106.951C106.793 71.7443 106.635 71.6653 106.556 71.6653C106.241 71.5864 105.925 71.5075 105.53 71.5075C105.451 71.5075 105.293 71.5075 105.214 71.4285C104.978 71.4285 104.741 71.3496 104.504 71.3496C104.346 71.3496 104.267 71.3496 104.109 71.2707C103.873 71.2707 103.715 71.1918 103.478 71.1918H99.8473C99.4527 71.1918 99.137 71.2707 98.7423 71.2707H98.4266C98.1898 71.2707 97.953 71.3496 97.7163 71.3496H97.6373C97.4795 71.3496 97.4005 71.4285 97.2427 71.4285C97.0059 71.5075 96.7691 71.5075 96.5323 71.5864C96.3745 71.5864 96.2166 71.6653 96.1377 71.6653C95.9009 71.7443 95.6641 71.8232 95.4273 71.8232C95.2695 71.8232 95.1905 71.9021 95.0327 71.981C94.7959 72.06 94.4802 72.1389 94.2434 72.2178C94.0855 72.2967 94.0066 72.2967 93.9277 72.3757C93.533 72.5335 93.1384 72.6914 92.8227 72.8492C89.8234 74.5856 87.2188 76.9534 85.2455 79.6369C84.5352 80.584 83.9038 81.5312 83.3513 82.4783C82.7198 83.5043 82.2463 84.6093 81.7727 85.7143C81.6148 86.03 81.5359 86.3457 81.378 86.6614C81.2202 87.2139 80.9834 87.7664 80.8255 88.3188C80.8255 88.3978 80.8255 88.4767 80.7466 88.4767C80.5888 89.1081 80.4309 89.7395 80.273 90.4499C80.1152 91.1602 80.0363 91.7916 79.9573 92.502C79.8784 92.8966 79.8784 93.2123 79.8784 93.6069C79.7995 94.633 79.7995 95.5801 79.8784 96.6061V96.8429C79.8784 97.0797 79.8784 97.3165 79.9573 97.6322C80.0363 98.3425 80.1152 99.0529 80.273 99.7632C80.352 100 80.4309 100.237 80.4309 100.552C80.5098 100.789 80.5098 101.026 80.5888 101.263C81.0623 103.078 81.7727 104.736 82.6409 106.156C85.877 111.76 91.2441 115.154 95.1905 116.969C96.6902 117.601 98.2688 118.232 99.9263 118.785L99.7684 118.942C99.4527 119.021 99.137 119.1 98.7423 119.179C98.1898 119.337 97.4795 119.574 96.7691 119.811C95.9798 120.047 95.0327 120.442 94.0855 120.837C91.5598 121.863 88.7184 123.362 86.1927 125.414C85.877 125.651 85.5613 125.967 85.2455 126.204C84.693 126.677 84.2195 127.151 83.7459 127.703L83.588 127.861L83.3513 128.098C83.1934 128.335 82.9566 128.492 82.7988 128.729L82.562 128.966C82.3252 129.282 82.0884 129.597 81.9305 129.913C81.6938 130.229 81.5359 130.545 81.2991 130.86C79.7995 133.465 78.9313 136.622 79.168 140.41V140.253C79.168 140.174 79.168 140.095 79.247 140.016V139.937C79.247 139.858 79.3259 139.779 79.3259 139.621V139.542C79.3259 139.463 79.4048 139.305 79.4048 139.148C79.4048 138.99 79.4838 138.911 79.5627 138.753V138.674C79.6416 138.516 79.6416 138.358 79.7205 138.2V138.122C79.7995 137.964 79.7995 137.806 79.8784 137.648V137.569C79.9573 137.411 80.0363 137.253 80.1152 137.017L80.1941 136.938C80.273 136.78 80.352 136.543 80.5098 136.385C80.6677 136.069 80.8255 135.833 80.9834 135.517C81.0623 135.438 81.1413 135.28 81.2202 135.201L81.2991 135.122L81.7727 134.412C81.9305 134.254 82.0884 134.017 82.2463 133.86L82.4041 133.702C82.562 133.544 82.6409 133.386 82.7988 133.307L82.9566 133.149C83.1145 132.991 83.3513 132.833 83.5091 132.597C83.5091 132.597 80.1152 140.331 81.6148 146.409V146.33V146.172V145.935V145.62V145.225C81.6148 145.067 81.6148 144.909 81.6938 144.751C81.6938 144.594 81.6938 144.436 81.7727 144.278V144.199C81.7727 144.041 81.8516 143.804 81.8516 143.646V143.489C81.9305 143.252 81.9305 143.094 82.0095 142.857V142.778C82.0884 142.541 82.1673 142.305 82.1673 142.147C82.1673 142.068 82.2463 141.989 82.2463 141.91L82.3252 141.752C82.4041 141.594 82.483 141.358 82.562 141.2C82.6409 140.963 82.7988 140.726 82.9566 140.489C82.9566 140.41 83.0355 140.331 83.0355 140.331L83.5091 139.621C83.5091 139.621 83.3513 141.515 83.3513 143.804C83.3513 144.199 83.3513 144.515 83.4302 144.909C83.4302 145.146 83.4302 145.383 83.5091 145.62C83.667 143.173 84.1405 140.884 84.772 138.753C84.1405 140.884 83.667 143.173 83.5091 145.62C83.4302 147.198 83.4302 148.777 83.588 150.434C83.8248 153.197 84.5352 156.196 85.7191 159.274C85.7191 159.274 84.6141 155.722 86.1927 152.17L86.6663 153.118C86.8241 154.144 86.982 155.643 87.2977 157.301C87.6134 160.063 88.8763 168.35 94.5591 174.112C94.5591 174.112 92.428 171.35 92.7438 167.798C92.9805 168.272 93.2173 168.666 93.3752 169.061C94.3223 170.876 96.2166 174.191 98.3477 176.559C98.3477 176.559 96.6902 173.323 97.0848 172.612C97.0848 172.612 102.61 179.479 104.346 180.11L102.057 176.322L101.978 176.243C109.95 182.084 121 184.215 134.576 180.426C136.944 179.795 139.312 178.927 141.837 177.901C143.337 177.269 144.837 176.48 146.336 175.691L146.573 175.533C147.599 174.98 148.625 174.349 149.651 173.717C150.441 173.244 151.23 172.691 151.94 172.218C153.203 171.35 154.466 170.403 155.729 169.376C155.808 169.298 155.887 169.219 155.966 169.219C157.149 168.193 158.333 167.088 159.359 165.983C160.78 164.483 162.043 162.983 163.148 161.484L163.227 161.405C163.543 161.01 163.779 160.695 164.016 160.3L164.095 160.221C164.174 160.063 164.253 159.984 164.332 159.826C164.727 159.274 165.042 158.8 165.437 158.248C165.516 158.09 165.595 158.011 165.674 157.853C165.832 157.537 165.989 157.301 166.226 156.985C166.384 156.748 166.463 156.59 166.621 156.354C166.779 156.117 166.937 155.88 167.016 155.643C167.252 155.249 167.489 154.775 167.726 154.38L167.963 153.907L168.436 152.96L168.673 152.486L168.752 152.328C168.91 151.934 169.147 151.539 169.304 151.144V151.065C170.015 150.434 170.488 149.803 170.962 149.25C171.041 149.171 171.12 149.092 171.12 149.013C171.83 147.987 172.146 146.803 172.146 145.698V145.698ZM44.5184 125.572C44.2816 125.651 44.0448 125.967 43.7291 126.361C43.6502 126.519 43.4923 126.677 43.4134 126.914C42.703 128.256 42.0716 130.15 42.0716 130.15C42.1505 129.519 42.2295 128.887 42.2295 128.256V128.019C42.3084 127.388 42.3873 126.677 42.4663 126.046V125.809C42.5452 125.02 42.703 124.309 42.8609 123.599C42.8609 123.52 42.8609 123.441 42.9398 123.283V123.204C42.9398 123.125 42.9398 123.047 43.0188 122.968C43.0188 122.81 43.0977 122.731 43.0977 122.573C43.1766 122.021 43.3345 121.468 43.4134 120.916C43.4923 120.442 43.5713 119.968 43.6502 119.574V119.416C43.6502 119.337 43.6502 119.258 43.7291 119.258V119.1C43.7291 119.021 43.808 118.863 43.808 118.785C43.808 118.706 43.808 118.627 43.887 118.548C43.887 118.39 43.9659 118.232 43.9659 118.153C43.9659 118.074 44.0448 117.916 44.0448 117.837C44.0448 117.68 44.1238 117.522 44.1238 117.443C44.1238 117.364 44.1238 117.285 44.2027 117.206C44.2027 117.127 44.2027 117.048 44.2816 117.048C44.2816 116.89 44.3605 116.811 44.3605 116.732V116.496L44.2027 116.653C44.0448 116.732 43.9659 116.89 43.808 116.969L43.6502 117.127C43.4923 117.285 43.3345 117.443 43.2555 117.601L43.1766 117.68L42.703 118.39L42.6241 118.469C42.6241 118.548 42.5452 118.548 42.5452 118.627L42.3084 119.1V119.258C42.2295 119.495 42.0716 119.732 41.9927 119.968C41.7559 120.6 41.5191 121.231 41.3613 121.784C41.2823 121.942 41.2823 122.178 41.2034 122.257C41.1245 122.573 41.0455 122.889 41.0455 122.968V123.047V122.968C41.0455 122.731 41.0455 122.573 41.1245 122.336C41.1245 121.942 41.2034 121.468 41.2034 121.073C41.2034 120.758 41.2823 120.363 41.3613 120.047C41.3613 119.968 41.3613 119.811 41.4402 119.732C41.4402 119.574 41.5191 119.416 41.5191 119.258C41.5191 119.1 41.598 118.942 41.598 118.785V118.548C41.598 118.39 41.677 118.153 41.677 117.995V117.601V117.443C41.677 117.364 41.677 117.285 41.7559 117.206C41.8348 116.969 41.9138 116.653 41.9138 116.417V116.338C41.9927 116.18 41.9927 115.943 42.0716 115.785V115.706C42.1505 115.312 42.3084 114.917 42.3873 114.522V114.365C42.3873 114.286 42.3873 114.207 42.4663 114.128C42.6241 113.496 42.8609 112.865 43.0188 112.313V112.234C43.1766 111.76 43.4134 111.208 43.5713 110.734V110.655C43.6502 110.418 43.7291 110.26 43.808 110.024C43.9659 109.708 44.0448 109.392 44.2027 109.077C44.2027 108.998 44.2816 108.84 44.4395 108.524C44.5184 108.445 44.5184 108.287 44.5973 108.208C44.6763 108.051 44.7552 107.893 44.8341 107.656L44.913 107.498C44.8341 107.419 44.6763 107.419 44.5973 107.34H44.5184L44.3605 107.261C43.6502 106.946 42.8609 106.63 42.0716 106.393H41.9138C41.3613 106.235 40.8877 106.156 40.3352 106.077C40.0195 106.077 39.7038 105.998 39.388 105.998H38.5988C38.2041 105.998 37.8095 106.077 37.4148 106.077C37.257 106.077 37.178 106.077 37.0202 106.156C36.8623 106.156 36.6255 106.235 36.4677 106.235C36.3888 106.235 36.3098 106.235 36.2309 106.314C36.073 106.314 35.9941 106.393 35.8363 106.393C35.5995 106.472 35.2838 106.551 35.047 106.63C34.968 106.63 34.8102 106.709 34.7313 106.709C34.4155 106.867 34.0209 106.946 33.7052 107.103C33.5473 107.182 33.4684 107.261 33.3105 107.261L32.837 107.498L32.6791 107.577C32.5213 107.656 32.3634 107.735 32.2055 107.893C32.0477 107.972 31.8898 108.051 31.732 108.208C31.5741 108.287 31.4163 108.445 31.2584 108.524C31.1795 108.603 31.0216 108.682 30.9427 108.761C30.7059 108.998 30.3902 109.234 30.1534 109.471L29.7588 109.866C29.522 110.103 29.3641 110.339 29.1273 110.576L29.0484 110.655C28.9695 110.813 28.8116 110.892 28.7327 111.05L28.4959 111.286C28.1013 111.839 27.7066 112.47 27.3909 113.102C27.312 113.181 27.312 113.26 27.233 113.339C27.0752 113.654 26.9963 113.97 26.8384 114.286C26.7595 114.444 26.7595 114.522 26.6805 114.68C26.6016 114.996 26.4438 115.312 26.3648 115.706V116.022C26.2859 116.259 26.2859 116.496 26.207 116.732C26.207 116.89 26.207 116.969 26.128 117.127C26.128 117.285 26.128 117.364 26.0491 117.522V117.837C26.0491 118.232 25.9702 118.627 26.0491 119.021C26.0491 119.337 26.0491 119.653 26.128 119.968V120.126C26.128 120.284 26.207 120.442 26.207 120.6C26.2859 121.231 26.4438 121.784 26.6016 122.415C26.7595 122.889 26.9173 123.283 27.0752 123.678C27.3909 124.467 27.7855 125.178 28.2591 125.888C29.2063 127.309 30.4691 128.571 31.9688 129.519C32.758 130.071 33.7052 130.466 34.6523 130.781C35.5205 131.097 36.4677 131.334 37.4938 131.413C37.7305 131.413 37.9673 131.492 38.1252 131.492H39.1513C39.467 131.492 39.7827 131.413 40.0984 131.413C40.2563 131.413 40.493 131.413 40.6509 131.334C41.1245 131.255 41.5191 131.176 41.9927 131.097H42.0716C42.2295 131.018 42.3873 131.018 42.6241 130.939C43.1766 130.781 43.7291 130.545 44.2027 130.308L44.2816 130.229C44.4395 130.15 44.5973 130.071 44.6763 130.071C44.4395 128.729 44.2027 127.309 44.1238 125.888C44.5184 125.73 44.5184 125.651 44.5184 125.572" fill="#FCE9CD"/>
<path d="M97.7953 14.049L98.0321 14.2068L97.7953 14.049Z" fill="#4D9ED7"/>
<path d="M167.331 142.462C167.331 142.384 167.331 142.305 167.252 142.305C167.173 142.147 167.173 142.068 167.173 141.989C166.779 140.726 166.305 139.779 165.832 139.069C165.279 138.2 164.806 137.727 164.806 137.727L165.042 136.78C165.121 136.385 165.2 135.99 165.2 135.596C165.516 132.755 164.806 130.545 164.174 129.282C164.095 129.045 164.016 128.887 163.937 128.729C163.464 129.045 163.069 129.361 162.596 129.676C154.071 135.438 144.521 139.148 134.181 140.726C127.078 141.831 119.579 141.91 111.766 140.963L111.923 141.042C111.923 141.042 107.188 141.673 105.925 146.172L106.004 146.251L105.609 149.25C105.767 153.354 107.582 155.88 109.713 157.222C111.923 158.09 114.607 158.721 117.606 159.116C122.737 159.747 128.735 159.59 134.734 158.642C142.785 157.537 154.15 153.275 162.28 147.751C164.095 146.488 165.832 145.146 167.252 143.804L167.331 143.725L167.41 143.646C167.41 143.094 167.331 142.778 167.331 142.462" fill="white"/>
<path d="M151.94 103.473C147.599 100.789 146.968 99.9211 147.362 92.7388C147.52 90.1342 147.757 86.7404 148.073 82.0837C148.073 81.4523 148.152 80.8998 148.152 80.3473V79.9527V78.0585C148.152 77.6638 148.073 77.2692 148.073 76.9535C148.073 76.7956 148.073 76.6378 147.994 76.4799C147.915 76.0853 147.915 75.6907 147.836 75.296C147.836 75.1382 147.757 74.9014 147.757 74.7435C147.757 74.5068 147.678 74.3489 147.599 74.1121C147.52 73.9543 147.52 73.7175 147.441 73.5596C146.81 72.6125 146.1 71.8233 145.231 71.1129L145.073 70.9551L144.916 70.8761H144.837C144.679 70.7972 144.6 70.7183 144.442 70.6394C144.284 70.5604 144.126 70.4815 144.047 70.4026C142.785 69.6133 141.285 69.1398 139.785 68.903C138.917 68.7451 138.049 68.7451 137.181 68.7451C136.786 68.7451 136.312 68.824 135.918 68.824C134.813 68.9819 133.708 69.2187 132.524 69.5344C132.129 69.7712 131.735 70.0869 131.34 70.3236C131.024 70.5604 130.708 70.7972 130.314 71.034L130.156 71.1129C129.84 71.3497 129.446 71.5865 129.13 71.7443L128.972 71.8233C128.656 72.06 128.262 72.2179 127.946 72.4547L127.788 72.5336C127.472 72.7704 127.078 72.9282 126.683 73.0861L126.525 73.165C126.131 73.3229 125.815 73.4807 125.42 73.6386L125.262 73.7175C124.868 73.8753 124.473 73.9543 124.078 74.1121H124C123.605 74.1911 123.131 74.27 122.737 74.3489C122.026 74.4278 121.237 74.5068 120.527 74.5068C119.343 74.5068 118.159 74.4278 116.896 74.27L115.712 74.0332C115.554 74.0332 115.396 73.9543 115.317 73.9543C114.291 73.7175 113.186 73.4807 112.16 73.2439C111.687 73.165 111.292 73.0072 110.818 72.9282C110.108 72.7704 109.398 72.6125 108.608 72.4547C108.451 72.4547 108.293 72.3757 108.214 72.3757C107.582 72.3757 106.951 72.4547 106.398 72.5336H106.241C104.425 72.7704 102.689 73.165 100.873 73.7964C100.795 73.7964 100.716 73.8753 100.558 73.8753C100.242 73.9543 100.005 74.1121 99.6895 74.1911C99.2949 74.3489 98.9792 74.5068 98.5845 74.6646C95.9799 75.7696 93.5331 77.3481 91.1652 79.3213C90.2181 80.1106 89.3499 80.9787 88.4817 81.8469C87.2188 83.1887 86.1138 84.6094 85.0877 86.109C85.0088 86.1879 85.0088 86.2668 84.9299 86.3458C84.3774 87.135 83.9038 88.0032 83.5092 88.7925C83.3513 89.1082 83.1934 89.4239 83.0356 89.6607V89.7396C82.562 90.7656 82.1674 91.7128 81.8517 92.7388C81.8517 92.8177 81.8517 92.8967 81.7727 92.8967C81.6938 93.0545 81.6938 93.2124 81.6149 93.3702C81.457 93.8438 81.2992 94.3173 81.2202 94.7909C81.0624 95.2645 80.9835 95.738 80.9045 96.2905C80.9045 96.3694 80.8256 96.5273 80.8256 96.6062C80.7467 96.9219 80.7467 97.2376 80.6677 97.4744C80.5099 98.5794 80.431 99.6843 80.352 100.789V101.579C80.8256 103.394 81.536 105.051 82.4042 106.472C85.6402 112.076 91.0074 115.47 94.9538 117.285C96.4535 117.916 98.032 118.548 99.6895 119.1L99.7685 119.179L99.8474 119.1C100.084 118.942 100.242 118.785 100.479 118.627C100.558 118.548 100.637 118.548 100.716 118.469L101.426 117.995C101.505 117.916 101.584 117.916 101.663 117.837L102.373 117.364C102.452 117.285 102.531 117.285 102.61 117.206C102.847 117.048 103.083 116.89 103.399 116.732C103.478 116.654 103.557 116.654 103.636 116.575C103.873 116.417 104.188 116.259 104.425 116.101C104.504 116.022 104.583 116.022 104.662 115.943C104.899 115.785 105.215 115.628 105.451 115.47C105.53 115.391 105.688 115.391 105.767 115.312C106.004 115.154 106.32 114.996 106.556 114.838C106.635 114.759 106.793 114.68 106.872 114.68C107.109 114.523 107.425 114.365 107.74 114.207C107.898 114.128 107.977 114.049 108.135 114.049C108.451 113.891 108.687 113.733 109.003 113.654C109.161 113.575 109.24 113.497 109.398 113.497C109.713 113.339 109.95 113.26 110.266 113.102L110.74 112.865C111.055 112.707 111.292 112.628 111.608 112.47C111.766 112.392 111.923 112.313 112.16 112.234C112.476 112.155 112.713 111.997 113.028 111.918C113.186 111.839 113.423 111.76 113.581 111.681C113.897 111.602 114.133 111.444 114.449 111.365C114.686 111.287 114.844 111.208 115.081 111.129C115.396 111.05 115.633 110.892 115.949 110.813L116.659 110.576C116.896 110.497 117.212 110.418 117.448 110.261C117.685 110.182 118.001 110.103 118.238 110.024C118.475 109.945 118.79 109.866 119.027 109.787C119.343 109.708 119.658 109.629 119.895 109.55C120.132 109.471 120.369 109.392 120.685 109.313C121 109.234 121.316 109.156 121.711 108.998C121.868 108.919 122.026 108.919 122.184 108.84C123.447 105.604 127.315 97.5533 133.866 96.6851C134.576 96.6062 135.207 96.5273 135.839 96.5273H136.312C136.233 96.0537 136.155 95.5802 136.155 95.0277C135.918 91.5549 137.023 88.6346 138.522 88.5557C139.706 88.4768 140.653 90.2132 140.811 90.7656C141.285 91.7917 141.601 93.1334 141.68 94.633C141.758 95.9748 141.601 97.2376 141.364 98.3426C141.522 98.5004 141.601 98.6583 141.758 98.7372C143.258 100.631 143.495 103.157 143.416 105.051C143.968 104.972 144.6 104.972 145.231 104.894C145.389 104.894 145.547 104.894 145.705 104.815H146.021C146.731 104.736 147.52 104.657 148.31 104.657C150.046 104.499 151.782 104.42 153.598 104.341C152.572 103.789 151.94 103.473 151.94 103.473V103.473ZM168.436 152.092C165.595 154.617 162.596 156.669 159.596 158.327C158.097 159.116 156.597 159.826 155.176 160.458C151.94 161.879 148.862 162.826 146.1 163.536C140.022 165.036 135.839 165.036 135.839 165.036C139.154 166.851 143.337 166.851 146.178 166.614C148.152 166.456 149.493 166.062 149.493 166.062C149.415 167.246 149.257 168.35 149.099 169.455C148.862 170.639 148.546 171.665 148.152 172.613V172.691C147.678 173.875 147.047 174.901 146.415 175.849C146.336 175.927 146.257 176.085 146.178 176.164L146.415 176.006C147.441 175.454 148.467 174.822 149.493 174.191C150.283 173.718 151.072 173.165 151.782 172.691C153.045 171.823 154.308 170.876 155.571 169.85C155.65 169.771 155.729 169.692 155.808 169.692C156.992 168.666 158.176 167.561 159.202 166.456C160.622 164.957 161.885 163.457 162.99 161.957L163.069 161.879C163.385 161.484 163.622 161.168 163.858 160.774L163.937 160.695C164.016 160.537 164.095 160.458 164.174 160.3C164.569 159.748 164.885 159.274 165.279 158.721C165.358 158.564 165.437 158.485 165.516 158.327C165.674 158.011 165.832 157.774 166.068 157.459C166.226 157.222 166.305 157.064 166.463 156.827C166.621 156.59 166.779 156.354 166.858 156.117C167.095 155.722 167.331 155.249 167.568 154.854L167.805 154.38L168.278 153.433L168.515 152.96L168.594 152.802C168.752 152.407 168.989 152.013 169.147 151.618C168.831 151.697 168.673 151.855 168.436 152.092V152.092ZM96.4535 120.284C95.6642 120.521 94.717 120.916 93.7699 121.31C91.2442 122.336 88.4027 123.836 85.877 125.888C85.5613 126.125 85.2456 126.44 84.9299 126.677C84.3774 127.151 83.9038 127.624 83.4302 128.177L83.2724 128.335L83.0356 128.571C82.8777 128.808 82.641 128.966 82.4831 129.203L82.2463 129.44C82.0095 129.755 81.7727 130.071 81.6149 130.387C81.3781 130.703 81.2202 131.018 80.9834 131.334C79.4838 133.938 78.6156 137.096 78.8524 140.884V140.726C78.8524 140.647 78.8524 140.568 78.9313 140.489V140.41C78.9313 140.332 79.0102 140.253 79.0102 140.095V140.016C79.0102 139.937 79.0892 139.779 79.0892 139.621C79.0892 139.463 79.1681 139.384 79.247 139.227V139.148C79.326 138.99 79.3259 138.832 79.4049 138.674V138.595C79.4838 138.437 79.4838 138.279 79.5627 138.122V138.043C79.6417 137.885 79.7206 137.727 79.7995 137.49L79.8784 137.411C79.9574 137.253 80.0363 137.017 80.1942 136.859C80.352 136.543 80.5099 136.306 80.6677 135.991C80.7467 135.912 80.8256 135.754 80.9045 135.675L80.9834 135.596L81.457 134.886C81.6149 134.728 81.7727 134.491 81.9306 134.333L82.0885 134.175C82.2463 134.017 82.3252 133.86 82.4831 133.781L82.6409 133.623C82.7988 133.465 83.0356 133.307 83.1935 133.07C83.1935 133.07 79.7995 140.805 81.2992 146.882V146.804V146.646V146.409V146.093V145.699C81.2992 145.541 81.2992 145.383 81.3781 145.225C81.3781 145.067 81.3781 144.909 81.457 144.751V144.673C81.457 144.515 81.536 144.278 81.536 144.12V143.962C81.6149 143.725 81.6149 143.568 81.6938 143.331V143.252C81.7727 143.015 81.8517 142.778 81.8517 142.62C81.8517 142.541 81.9306 142.463 81.9306 142.384L82.0095 142.226C82.0885 142.068 82.1674 141.831 82.2463 141.673C82.3252 141.437 82.4831 141.2 82.6409 140.963C82.6409 140.884 82.7199 140.805 82.7199 140.805L83.1935 140.095C83.1935 140.095 83.0356 141.989 83.0356 144.278C83.0356 144.673 83.0356 144.988 83.1145 145.383C83.1145 145.62 83.1145 145.856 83.1935 146.093C83.3513 143.646 83.8249 141.358 84.4563 139.227C84.6142 138.674 84.8509 138.043 85.0088 137.49C85.0088 137.411 85.0877 137.332 85.0877 137.253C85.3245 136.701 85.4824 136.227 85.7192 135.675C85.7981 135.596 85.7981 135.517 85.877 135.359C86.1138 134.886 86.3506 134.333 86.5874 133.86C86.6663 133.781 86.6663 133.702 86.6663 133.623C87.2188 132.597 87.7713 131.65 88.3238 130.781C88.4027 130.703 88.4027 130.624 88.4817 130.545C88.7185 130.229 88.9552 129.913 89.192 129.519C89.271 129.44 89.271 129.361 89.3499 129.282C89.4288 129.203 89.4288 129.124 89.5077 129.045C89.8235 128.65 90.0602 128.256 90.376 127.861C90.4549 127.782 90.4549 127.703 90.5338 127.703C90.8495 127.309 91.1652 126.914 91.481 126.598C91.8756 126.125 92.2702 125.73 92.6649 125.257C92.9806 124.941 93.2174 124.625 93.5331 124.388L93.8488 124.073C94.4802 123.441 95.1117 122.81 95.7431 122.257C97.4795 120.679 98.9002 119.653 99.3738 119.337C99.0581 119.416 98.7424 119.495 98.3477 119.574C97.8742 119.811 97.2427 120.047 96.4535 120.284" fill="#F2D2AC"/>
<path d="M141.916 103.157C141.916 103.157 141.916 102.999 141.837 102.683C141.522 101.579 140.417 98.895 136.076 99.2896C131.498 99.7632 129.919 103.473 129.525 104.736C129.446 104.972 129.446 105.13 129.446 105.13L129.603 105.209C130.156 104.736 131.261 104.736 132.287 105.446C132.761 105.762 133.076 106.077 133.392 106.472C133.787 107.103 133.866 107.735 133.629 108.208L133.392 108.445C133.392 108.445 133.55 108.524 133.866 108.603C135.128 108.998 138.68 109.708 140.575 107.261C140.653 107.103 140.732 107.024 140.811 106.867C140.417 106.709 140.259 106.156 140.259 105.446C140.259 105.13 140.338 104.815 140.417 104.42C140.653 103.473 141.364 102.92 141.916 103.157ZM119.106 136.938C116.107 137.569 113.502 138.043 111.529 138.358C111.608 138.358 111.766 138.358 111.845 138.437C115.238 138.832 120.606 139.384 127.078 138.99C138.917 138.279 154.466 134.57 168.594 121.784V121.705C168.673 120.6 168.515 118.706 167.173 117.206C166.937 116.969 166.7 116.732 166.384 116.496C166.305 116.496 166.305 116.417 166.226 116.417C165.832 116.18 165.516 116.022 165.2 115.785L164.49 115.312V115.233C163.622 116.496 162.596 117.68 161.491 118.785C161.096 119.179 160.701 119.574 160.228 119.968C156.36 123.441 151.309 126.44 145.863 128.808C136.865 132.755 126.762 135.359 119.106 136.938ZM44.2817 116.338C44.1238 116.417 44.0449 116.575 43.887 116.654L43.7292 116.811C43.5713 116.969 43.4134 117.127 43.3345 117.285L43.2556 117.364L42.782 118.074L42.7031 118.153C42.7031 118.232 42.6242 118.232 42.6242 118.311L42.3874 118.785V118.942C42.3084 119.179 42.1506 119.416 42.0717 119.653C41.8349 120.284 41.5981 120.916 41.4402 121.468C41.3613 121.626 41.3613 121.863 41.2824 121.942C41.2034 122.257 41.1245 122.573 41.1245 122.652V122.731V122.652C41.1245 122.415 41.1245 122.257 41.2034 122.021C41.2034 121.626 41.2824 121.152 41.2824 120.758C41.2824 120.442 41.3613 120.047 41.4402 119.732C41.4402 119.653 41.4402 119.495 41.5192 119.416C41.5192 119.258 41.5981 119.1 41.5981 118.942C41.5981 118.785 41.677 118.627 41.677 118.469V118.232C41.677 118.074 41.7559 117.837 41.7559 117.68V117.285V117.127C41.7559 117.048 41.7559 116.969 41.8349 116.89C41.9138 116.654 41.9927 116.338 41.9927 116.101V116.022C42.0717 115.864 42.0717 115.627 42.1506 115.47V115.391C42.2295 114.996 42.3874 114.601 42.4663 114.207V114.049C42.4663 113.97 42.4663 113.891 42.5452 113.812C42.7031 113.181 42.9399 112.549 43.0977 111.997V111.918C43.2556 111.444 43.4924 110.892 43.6502 110.418V110.339C43.7292 110.103 43.8081 109.945 43.887 109.708C44.0449 109.392 44.1238 109.077 44.2817 108.761C44.2817 108.682 44.3606 108.524 44.5184 108.208C44.5974 108.129 44.5974 107.972 44.6763 107.893C44.7552 107.735 44.8342 107.577 44.9131 107.34L44.992 107.182C44.9131 107.103 44.7552 107.103 44.6763 107.024H44.5974L44.4395 106.946C43.7292 106.63 42.9399 106.314 42.1506 106.077H41.9927C41.4402 105.919 40.9667 105.841 40.4142 105.762C40.0984 105.762 39.7827 105.683 39.467 105.683H38.6777C38.2831 105.683 37.8884 105.762 37.4938 105.762C37.3359 105.762 37.257 105.762 37.0992 105.841C36.9413 105.841 36.7045 105.919 36.5467 105.919C36.4677 105.919 36.3888 105.919 36.3099 105.998C36.152 105.998 36.0731 106.077 35.9152 106.077C35.6784 106.156 35.3627 106.235 35.1259 106.314C35.047 106.314 34.8892 106.393 34.8102 106.393C34.4945 106.551 34.0999 106.63 33.7842 106.788C33.6263 106.867 33.5474 106.946 33.3895 106.946L32.9159 107.182L32.7581 107.261C32.6002 107.34 32.4424 107.419 32.2845 107.577C32.1267 107.656 31.9688 107.735 31.8109 107.893C31.6531 107.972 31.4952 108.129 31.3374 108.208C31.2584 108.287 31.1006 108.366 31.0217 108.445C30.7849 108.682 30.4692 108.919 30.2324 109.155L29.8377 109.55C29.6009 109.787 29.4431 110.024 29.2063 110.26L29.1274 110.339C29.0484 110.497 28.8906 110.576 28.8117 110.734L28.5749 110.971C28.1802 111.523 27.7856 112.155 27.4699 112.786C27.3909 112.865 27.3909 112.944 27.312 113.023C27.1542 113.339 27.0752 113.654 26.9174 113.97C26.8384 114.128 26.8385 114.207 26.7595 114.365C26.7595 114.444 26.8384 114.522 26.8384 114.601C26.9174 114.917 26.9963 115.154 27.0752 115.47V115.627C27.1542 115.864 27.312 116.18 27.3909 116.417C27.7067 117.206 28.0224 117.916 28.417 118.548C28.4959 118.627 28.4959 118.706 28.5749 118.785V118.863L28.6538 118.942C28.8906 119.416 29.1274 119.811 29.3642 120.126C29.7588 120.679 30.0745 121.073 30.3113 121.389L30.4692 121.547C30.4692 121.626 30.5481 121.626 30.5481 121.626L30.7059 121.784C30.7059 121.626 30.627 121.468 30.627 121.389C30.3902 120.363 30.3113 119.416 30.3113 118.39V118.232C30.3113 117.601 30.3113 116.969 30.3902 116.417L30.627 117.127C30.7059 117.443 30.8638 117.758 30.9427 118.074V118.232C31.4163 119.574 31.9688 120.679 32.5213 121.547C33.1527 122.652 33.7052 123.362 34.0999 123.836C34.1788 123.915 34.2577 123.994 34.2577 124.073L34.4156 124.23C34.1788 123.125 34.0209 122.099 34.0209 121.073V120.047C34.0209 119.574 34.0209 119.179 34.0999 118.785C34.2577 119.495 34.4945 120.205 34.7313 120.837V120.916C35.5995 123.204 36.6256 124.862 37.3359 125.888L37.4149 125.967C37.5727 126.125 37.6517 126.283 37.7306 126.44C37.8095 126.519 37.8884 126.598 37.8884 126.677L38.0463 126.835L38.1252 126.914V126.756C38.1252 126.598 38.0463 126.44 38.0463 126.283C37.9674 125.73 37.8884 125.178 37.8095 124.704C37.8095 124.388 37.7306 123.994 37.7306 123.678V122.731V122.573V121.942C37.7306 121.547 37.8095 121.073 37.8095 120.679C37.8884 120.916 37.9674 121.231 38.0463 121.468C38.1252 121.626 38.2042 121.863 38.2831 122.021V122.099L38.362 122.178C38.4409 122.415 38.5199 122.652 38.5988 122.81C38.7567 123.204 38.9145 123.599 39.1513 123.915C39.3881 124.388 39.5459 124.783 39.7827 125.099C39.9406 125.335 40.0195 125.493 40.0984 125.651C40.2563 125.888 40.4142 126.125 40.4931 126.283C40.6509 126.44 40.7299 126.598 40.8088 126.756L40.8877 126.835C40.9667 126.993 41.1245 127.072 41.2034 127.23C41.2824 127.309 41.3613 127.388 41.3613 127.466C41.5192 127.624 41.5981 127.782 41.677 127.782L41.7559 127.861V127.624C41.8349 126.993 41.9138 126.283 41.9927 125.651V125.414C42.0717 124.625 42.2295 123.915 42.3874 123.204C42.3874 123.125 42.3874 123.047 42.4663 122.889V122.81C42.4663 122.731 42.4663 122.652 42.5452 122.573C42.5452 122.415 42.6242 122.336 42.6242 122.178C42.7031 121.626 42.8609 121.073 42.9399 120.521C43.0188 120.047 43.0977 119.574 43.1767 119.179V119.021C43.1767 118.942 43.1767 118.863 43.2556 118.863V118.706C43.2556 118.627 43.3345 118.469 43.3345 118.39C43.3345 118.311 43.3345 118.232 43.4134 118.153C43.4134 117.995 43.4924 117.837 43.4924 117.758C43.4924 117.68 43.5713 117.522 43.5713 117.443C43.5713 117.285 43.6502 117.127 43.6502 117.048C43.6502 116.969 43.6502 116.89 43.7292 116.811C43.7292 116.732 43.7292 116.654 43.8081 116.654C43.8081 116.496 43.887 116.417 43.887 116.338V116.101L44.2817 116.338ZM139.943 149.329C141.048 148.935 141.995 148.619 142.785 148.303C144.284 147.672 145.073 147.198 145.073 147.04C144.995 146.882 144.126 146.961 142.548 147.356C141.758 147.514 140.811 147.672 139.627 147.987C139.075 148.145 138.443 148.224 137.812 148.303C137.181 148.382 136.47 148.54 135.76 148.619C134.339 148.856 132.761 149.013 131.024 149.171L128.42 149.408C127.551 149.487 126.604 149.487 125.657 149.566C121.868 149.645 117.685 149.487 113.423 148.698C111.213 148.303 108.135 147.277 106.004 146.093L105.925 146.014C107.188 141.515 111.923 140.884 111.923 140.884L111.766 140.805H111.529C110.818 140.726 110.266 140.647 109.713 140.568C109.319 140.489 109.003 140.489 108.766 140.41C108.53 140.41 108.293 140.332 108.214 140.332C105.372 140.174 103.794 142.541 103.32 143.567L103.083 144.041C102.689 144.988 102.373 146.014 102.294 147.198C102.136 149.329 102.689 151.618 104.346 153.591C105.451 154.933 107.346 156.117 109.792 157.064C107.661 155.722 105.767 153.118 105.688 149.092C108.135 150.118 110.897 150.75 113.028 151.144C117.527 152.013 121.947 152.092 125.815 151.855C126.762 151.776 127.788 151.697 128.656 151.618C129.603 151.46 130.472 151.381 131.34 151.302C133.076 150.987 134.576 150.75 136.076 150.434C136.786 150.276 137.496 150.118 138.128 149.882C138.838 149.724 139.391 149.566 139.943 149.329" fill="#F2D2AC"/>
<path d="M136.233 96.6062C138.601 96.6851 140.18 97.3955 141.285 98.5004C141.522 97.4744 141.679 96.2116 141.601 94.7909C141.522 93.2913 141.206 91.9495 140.732 90.9235C140.574 90.2921 139.627 88.6346 138.443 88.7135C136.944 88.7925 135.839 91.7127 136.076 95.1855C136.076 95.6591 136.154 96.1326 136.233 96.6062ZM140.18 105.525C140.18 106.156 140.417 106.709 140.732 106.946C141.285 107.261 141.995 106.63 142.311 105.604C142.311 105.525 142.39 105.446 142.39 105.367C142.627 104.42 142.39 103.473 141.837 103.236C141.285 102.92 140.574 103.552 140.259 104.578C140.259 104.893 140.18 105.209 140.18 105.525ZM129.446 107.261C129.682 107.656 130.077 108.051 130.551 108.366C131.577 108.998 132.682 109.077 133.313 108.524L133.55 108.287C133.787 107.814 133.708 107.182 133.313 106.551C133.076 106.156 132.682 105.762 132.208 105.525C131.182 104.893 130.077 104.815 129.524 105.288C129.446 105.367 129.367 105.446 129.288 105.604C129.051 105.998 129.13 106.63 129.446 107.261V107.261ZM168.673 121.705C168.594 121.705 168.594 121.705 168.673 121.705V121.705ZM167.41 143.568C165.911 144.988 164.253 146.33 162.359 147.593C154.229 153.118 142.863 157.459 134.813 158.485C128.735 159.432 122.816 159.59 117.685 158.958C114.686 158.564 112.081 157.932 109.792 157.064C107.346 156.117 105.451 154.933 104.346 153.591C102.689 151.618 102.215 149.25 102.294 147.198C102.373 146.093 102.61 144.988 103.083 144.041L103.32 143.568C103.873 142.541 105.372 140.095 108.214 140.332C108.293 140.332 108.529 140.332 108.766 140.41C109.003 140.41 109.398 140.489 109.713 140.568C110.266 140.647 110.818 140.726 111.529 140.805H111.766C119.579 141.752 127.078 141.673 134.181 140.568C144.521 138.99 154.071 135.28 162.596 129.519C163.069 129.203 163.464 128.887 163.937 128.571L168.594 121.626C154.466 134.491 138.917 138.201 127.078 138.911C120.606 139.305 115.238 138.832 111.844 138.358C111.687 138.358 111.608 138.358 111.529 138.279C110.503 138.122 109.713 138.043 109.082 137.964C108.766 137.964 108.529 137.885 108.372 137.885C107.503 137.806 106.635 137.964 105.846 138.201C104.267 138.674 102.847 139.779 101.821 141.2C100.558 142.936 99.7684 145.304 99.7684 147.672C99.7684 149.645 100.242 151.697 101.268 153.591C101.347 153.67 101.347 153.749 101.426 153.828C101.584 154.065 101.663 154.223 101.821 154.459C101.978 154.696 102.215 155.012 102.452 155.249C104.899 158.327 110.266 160.537 117.369 161.484C122.184 162.115 127.788 162.036 133.866 161.168C151.861 157.932 160.386 152.092 164.332 148.066C164.648 147.751 164.884 147.514 165.121 147.198C166.542 145.541 167.173 144.278 167.41 143.804V143.725C167.489 143.568 167.489 143.489 167.489 143.489L167.41 143.568Z" fill="#664F44"/>
<path d="M110.187 81.2155C109.635 80.8998 109.003 80.663 108.372 80.5051C107.977 80.4262 107.582 80.3473 107.109 80.2683C106.951 80.2683 106.793 80.2683 106.635 80.1894C104.504 80.0316 102.689 80.3473 102.689 80.3473C102.294 80.4262 101.9 80.5051 101.584 80.663C98.7424 81.5312 96.7692 83.0308 95.3485 84.7672C94.2435 86.1878 93.4542 87.6874 93.0595 89.1871C92.9806 89.3449 92.9806 89.4238 92.9806 89.5817C92.9017 89.9763 92.7438 90.371 92.6649 90.6867C92.4281 91.9495 92.2703 93.0545 92.2703 94.0016C92.2703 95.2644 92.3492 96.0537 92.3492 96.0537C92.8228 94.9487 93.3753 94.0016 93.9278 93.0545C95.2695 90.7656 96.6903 88.8713 98.1899 87.3717C101.031 84.4515 103.952 82.8729 106.162 82.0837C108.53 81.2944 110.187 81.2155 110.187 81.2155V81.2155ZM144.363 77.1902L144.284 77.0323C143.968 76.6377 143.574 76.2431 143.1 75.9274C141.995 75.217 140.496 74.8224 138.443 75.217C138.443 75.217 135.997 75.7695 134.576 77.427C134.576 77.427 138.838 75.6117 143.416 78.8477C143.811 79.1634 144.284 79.4791 144.679 79.8737C145.073 80.2683 145.547 80.663 145.942 81.2155C145.942 81.2155 145.784 79.2423 144.6 77.5059C144.521 77.3481 144.442 77.2691 144.363 77.1902" fill="#E9B784"/>
<path d="M110.74 108.603C112.397 108.129 114.133 107.656 116.107 107.182C116.422 105.683 116.501 103.867 116.265 101.894C115.712 97.3165 113.66 93.7648 111.608 94.0015C109.556 94.2383 108.372 98.1847 108.924 102.762C109.24 105.13 109.871 107.182 110.74 108.603Z" fill="#664F44"/>
<path d="M101.347 5.44592L97.0849 6.39304L97.9531 14.1278L86.6663 8.36621L82.0095 9.78689L82.0884 9.86581L95.822 25.4933L95.9799 25.4144L96.1377 25.3354C96.5324 25.0986 97.0059 24.7829 97.4006 24.5462C97.5584 24.4672 97.7163 24.3883 97.8742 24.2305C98.5056 23.8358 99.137 23.4412 99.7684 23.1255L93.9277 16.4167L103.32 20.9945C103.636 20.8366 103.873 20.6788 104.188 20.5209L103.32 13.8121L107.582 18.7845H107.661C108.056 18.6267 108.372 18.3899 108.766 18.232L108.924 18.1531L109.082 18.0742C109.161 18.0742 109.24 17.9953 109.24 17.9953L109.713 17.7585C109.713 17.7585 109.792 17.7585 109.792 17.6795C110.266 17.4428 110.818 17.206 111.292 16.9692L101.347 5.44592Z" fill="#FFD250"/>
<path d="M97.1638 6.62982V6.39305V6.62982ZM97.1638 6.39305L97.7952 6.23519C96.7692 5.76163 95.5063 5.44593 94.0856 5.20915C91.2441 4.81451 87.6134 5.20915 83.5091 6.23519C79.4049 7.26124 74.7481 9.07655 69.8545 11.5233C59.9884 16.4167 49.0963 23.9148 38.5199 33.5438C34.8102 36.8587 31.4163 40.3315 28.2592 43.7254L41.0456 59.5107C44.5184 55.7222 48.2281 51.9337 52.3324 48.2242C57.7784 43.2518 63.3034 38.8319 68.7495 35.0434C74.0377 31.3339 79.3259 28.1768 84.2984 25.6511L82.0884 15.5485L82.1674 9.86582L82.0884 9.78689L86.7452 8.36621L95.822 13.0229L95.5852 9.86582L97.1638 6.39305Z" fill="#4D9ED7"/>
<path d="M97.1638 6.39307L95.5852 9.86584L95.822 13.1018L98.032 14.2068L97.1638 6.39307ZM93.9277 16.4167L103.399 21.0734L99.7685 23.1255L93.9277 16.4167ZM103.399 13.8122L104.267 20.5209L107.661 18.7845L103.399 13.8122Z" fill="#132134"/>
<path d="M139.075 11.3655H140.811C142.39 11.3655 143.89 11.6023 145.31 11.918C145.389 11.918 145.468 11.918 145.547 11.997H145.626L145.784 12.0759H145.942C145.784 11.997 145.626 11.8391 145.468 11.7602C143.89 11.1288 142.232 10.7341 140.496 10.4973C131.971 9.39237 122.184 12.5494 116.659 14.7594C116.343 14.9172 116.028 14.9962 115.712 15.154C115.238 15.3908 114.765 15.5487 114.291 15.7854C113.502 16.1011 112.713 16.4958 111.845 16.8904C111.687 16.9693 111.608 16.9693 111.45 17.0483C110.976 17.285 110.424 17.5218 109.95 17.7586C109.95 17.7586 109.871 17.7586 109.871 17.8375L109.398 18.0743C109.319 18.0743 109.24 18.1532 109.24 18.1532H108.924L108.845 18.2322C108.451 18.39 108.135 18.5479 107.74 18.7846H107.661C107.582 18.8636 107.503 18.8636 107.425 18.9425H107.346C107.267 18.9425 107.188 19.0214 107.188 19.0214C106.635 19.3371 106.083 19.5739 105.53 19.8896C105.136 20.1264 104.741 20.2842 104.346 20.521H104.267C103.952 20.6789 103.715 20.8367 103.399 20.9946C102.452 21.4681 101.584 22.0206 100.637 22.5731C100.558 22.652 100.479 22.652 100.321 22.731C100.242 22.8099 100.163 22.8099 100.084 22.8888C100.005 22.9678 99.9263 22.9678 99.8474 23.0467L99.7685 23.1256C99.137 23.5202 98.5056 23.8359 97.8742 24.2306C97.7163 24.3095 97.5585 24.3884 97.4006 24.5463C97.006 24.7831 96.5324 25.0988 96.1378 25.3356L95.9799 25.4145L95.822 25.4934L92.2702 27.8612C90.297 29.203 88.4027 30.5447 86.5085 31.9654C86.2717 32.1232 86.0349 32.36 85.7981 32.5179C80.8256 36.2274 76.0899 40.2527 71.512 44.3569C66.6974 48.7768 62.0406 53.2756 57.6995 57.8533C55.3317 60.2211 53.2795 62.3521 51.701 64.0885C48.386 67.6402 46.5706 69.8502 46.6495 69.9291C46.6495 69.9291 46.9652 69.6923 47.5177 69.1398C47.1231 69.6134 46.6495 70.1659 46.2549 70.6394C53.5163 62.9046 61.4881 55.012 70.0913 47.5929C75.3006 43.094 80.7467 38.7531 86.3506 34.7278C88.7974 32.9914 91.3231 31.2551 93.8488 29.5976C94.6381 29.0451 95.5063 28.5715 96.2956 28.0191C96.6902 27.7823 97.0849 27.5455 97.5585 27.3087C97.7952 27.1509 98.032 26.993 98.2688 26.9141C98.7424 26.6773 99.137 26.3616 99.6106 26.1248C100.005 25.888 100.479 25.6513 100.873 25.3356C101.11 25.1777 101.347 25.0988 101.584 24.9409L103.241 23.9938C103.557 23.8359 103.873 23.5992 104.188 23.4413C105.215 22.8888 106.241 22.3363 107.346 21.7839C107.425 21.7049 107.503 21.7049 107.582 21.626L108.056 21.3892C108.293 21.3103 108.451 21.1524 108.687 21.0735C108.766 20.9946 108.845 20.9946 108.924 20.9157L109.398 20.6789C109.398 20.6789 109.477 20.6789 109.477 20.6H109.556C110.029 20.3632 110.503 20.1264 110.897 19.9685C110.976 19.9685 111.055 19.8896 111.134 19.8107L111.608 19.5739C112.16 19.3371 112.634 19.1003 113.186 18.8636C113.344 18.7846 113.502 18.7057 113.581 18.6268C113.66 18.6268 113.739 18.5479 113.818 18.5479C113.976 18.4689 114.133 18.39 114.291 18.39C114.923 18.1532 115.475 17.8375 116.107 17.6007C116.659 17.364 117.133 17.1272 117.685 16.8904C120.685 15.6276 123.447 14.6015 126.052 13.7333C130.945 12.3916 135.286 11.5234 139.075 11.3655" fill="white"/>
</g>
<defs>
<clipPath id="clip0">
<rect width="176.884" height="200" fill="white"/>
</clipPath>
</defs>
</svg>
