<svg width="177" height="200" viewBox="0 0 177 200" fill="none" xmlns="http://www.w3.org/2000/svg">
<path d="M156.097 168.312C155.569 168.841 154.909 169.105 154.116 169.105C153.324 169.105 152.663 168.841 152.135 168.312C151.607 167.784 151.342 167.124 151.342 166.331C151.342 165.539 151.607 164.812 152.201 164.284C152.729 163.756 153.39 163.558 154.116 163.558C154.909 163.558 155.569 163.822 156.097 164.35C156.626 164.878 156.89 165.539 156.89 166.331C156.956 167.124 156.692 167.784 156.097 168.312V168.312ZM152.531 164.68C152.069 165.143 151.871 165.671 151.871 166.265C151.871 166.926 152.069 167.454 152.531 167.916C152.993 168.378 153.522 168.577 154.182 168.577C154.842 168.577 155.371 168.378 155.833 167.916C156.295 167.454 156.493 166.926 156.493 166.265C156.493 165.671 156.295 165.076 155.833 164.68C155.371 164.218 154.842 163.954 154.182 163.954C153.522 164.02 152.993 164.218 152.531 164.68ZM155.041 167.718C154.776 167.916 154.512 167.982 154.248 167.982C153.852 167.982 153.456 167.85 153.125 167.52C152.795 167.19 152.663 166.793 152.663 166.331C152.663 165.869 152.795 165.473 153.059 165.143C153.324 164.812 153.72 164.68 154.182 164.68C154.446 164.68 154.71 164.746 154.975 164.878C155.305 165.076 155.569 165.407 155.635 165.935H154.909C154.842 165.737 154.776 165.539 154.644 165.473C154.512 165.407 154.38 165.341 154.248 165.341C154.05 165.341 153.852 165.407 153.72 165.605C153.588 165.803 153.522 166.067 153.522 166.397C153.522 166.727 153.588 166.992 153.72 167.124C153.852 167.256 154.05 167.388 154.248 167.388C154.446 167.388 154.578 167.322 154.71 167.256L154.909 166.86H155.569C155.503 167.256 155.305 167.52 155.041 167.718V167.718ZM162.041 138.397C162.041 138.133 161.975 137.869 161.975 137.605C161.975 137.407 161.909 137.275 161.909 137.143C161.843 136.746 161.777 136.416 161.645 136.02C161.38 135.293 160.984 134.567 160.456 133.973C159.928 133.378 159.333 132.916 158.739 132.586C158.078 132.256 157.418 132.058 156.89 131.926C156.692 131.926 156.56 131.859 156.427 131.859C157.154 128.69 156.229 126.246 155.635 125.124L155.767 124.992C156.56 124.199 157.22 123.473 157.814 122.746L157.946 122.614C158.409 121.954 158.673 121.293 158.871 120.699C159.003 120.171 159.135 119.709 159.135 119.246V118.85V118.586V117.992C159.069 117.001 158.937 115.746 158.277 114.359C157.946 113.699 157.484 112.973 156.89 112.312C156.295 111.652 155.569 111.058 154.71 110.595C154.644 110.529 154.578 110.529 154.512 110.463C152.729 107.888 150.748 105.841 148.965 104.322C148.04 103.529 147.182 102.869 146.455 102.341C145.729 101.812 145.135 101.416 144.804 101.152C144.012 100.558 143.418 100.227 143.154 100.095C142.493 99.6991 142.031 99.3689 141.767 99.1708C141.569 98.9727 141.436 98.9066 141.37 98.8406C141.37 98.8406 141.37 98.7746 141.304 98.6425C141.238 98.4444 141.238 98.1802 141.238 97.718C141.238 97.0576 141.238 96.067 141.304 94.7463C141.436 92.633 141.635 89.7934 141.899 85.8972C141.965 84.6425 141.965 83.4538 141.965 82.3972C141.899 80.6142 141.635 79.0293 141.304 77.5764C141.238 77.2462 141.106 76.916 141.04 76.5859C140.974 76.3217 140.908 76.1896 140.842 76.0576C140.776 75.8594 140.71 75.6613 140.578 75.3972C140.512 75.2651 140.512 75.133 140.38 75.0009C140.248 74.6708 140.116 74.3406 139.918 74.0104L139.852 73.9443L139.785 73.7462L139.719 73.6142C139.389 73.0198 138.993 72.4915 138.597 72.0292C138.399 71.1047 138.068 69.784 137.474 68.2651C136.946 66.9443 136.285 65.4915 135.295 64.0387C134.965 63.5104 134.568 63.0481 134.172 62.5858L134.304 62.4538C134.502 62.2557 139.125 57.3689 142.823 51.0292C149.625 39.2085 147.38 32.0103 144.276 28.0481L144.21 27.916L144.144 27.7839C141.172 24.482 137.078 22.5009 132.125 21.8405C121.757 20.5198 110.002 25.6707 106.898 27.1235L101.218 20.916C100.69 20.3877 100.162 19.8594 99.5675 19.4632C98.9731 19.0669 98.3127 18.6707 97.6523 18.3405C96.3315 17.7462 94.8787 17.3499 93.2937 17.1518C90.1899 16.7556 86.6237 17.1518 82.7935 18.1424C77.048 19.5952 70.6422 22.5009 63.9062 26.5292C57.1702 30.5575 50.17 35.7745 43.3679 41.982C35.0469 49.5104 28.1788 57.5009 23.1598 65.1613C20.6503 68.9255 18.6031 72.6236 17.0842 76.1896C15.5653 79.6896 14.5747 83.0576 14.1785 86.0953C13.9143 88.3406 13.9143 90.4538 14.3766 92.3689C14.5747 93.2274 14.8389 94.0198 15.2351 94.8123C15.6974 95.8029 16.2917 96.7274 17.0182 97.5198L22.8957 103.661L23.5561 104.322L23.49 104.388L23.2919 104.784C23.1598 104.982 23.0938 105.18 22.9617 105.312L22.7636 105.709C22.6976 105.907 22.5655 106.105 22.4995 106.303L22.3013 106.699C22.2353 106.897 22.1032 107.095 22.0372 107.293C21.9711 107.426 21.9051 107.558 21.9051 107.69L21.707 108.284C21.6409 108.416 21.6409 108.548 21.5749 108.68C21.5089 108.878 21.4428 109.076 21.3768 109.341C21.3768 109.407 21.3107 109.473 21.3107 109.539C21.3107 109.605 21.2447 109.671 21.2447 109.737C21.1787 109.935 21.1126 110.199 21.0466 110.397C21.0466 110.529 20.9805 110.661 20.9805 110.793C20.9805 110.859 20.9145 110.992 20.9145 111.058C20.9145 111.19 20.8485 111.322 20.8485 111.454C20.8485 111.586 20.7824 111.718 20.7824 111.85C20.7164 112.114 20.7164 112.378 20.6503 112.709C20.6503 112.775 20.6503 112.841 20.5843 112.973V113.039C20.5843 113.237 20.5183 113.435 20.5183 113.567C20.5183 113.831 20.4522 114.161 20.4522 114.426V117.727C20.4522 117.859 20.4522 117.992 20.5183 118.124C20.5183 118.256 20.5183 118.454 20.5843 118.652V118.85C20.5843 118.982 20.6503 119.18 20.6503 119.312C20.6503 119.444 20.7164 119.576 20.7164 119.775C20.7164 119.841 20.7164 119.907 20.7824 119.973C20.7824 120.039 20.8485 120.171 20.8485 120.237V120.369C20.8485 120.501 20.9145 120.633 20.9805 120.897C20.9805 120.963 20.9805 120.963 21.0466 121.029C21.1126 121.161 21.1126 121.293 21.1126 121.359L21.1787 121.492C21.1787 121.558 21.1787 121.558 21.2447 121.624L21.3107 121.756V121.954C21.3107 122.02 21.3107 122.02 21.3768 122.086L21.4428 122.218C21.4428 122.35 21.5089 122.416 21.5089 122.548C21.5749 122.68 21.5749 122.812 21.6409 123.076V123.01V123.076C21.6409 123.142 21.6409 123.142 21.707 123.209C21.773 123.407 21.8391 123.539 21.8391 123.605C21.9051 123.737 21.9711 123.869 22.0372 124.133L22.1032 124.199C22.1693 124.331 22.1693 124.463 22.2353 124.529L22.3013 124.661C22.3013 124.727 22.3674 124.793 22.3674 124.859C22.3674 124.926 22.4334 125.058 22.4995 125.124L22.5655 125.256C22.6315 125.322 22.6315 125.454 22.6976 125.52C22.7636 125.586 22.7636 125.652 22.7636 125.718C22.8297 125.85 22.8957 125.982 22.9617 126.18L23.0278 126.246C23.0938 126.312 23.0938 126.378 23.1598 126.444C23.2259 126.51 23.2259 126.642 23.2919 126.709C23.358 126.775 23.424 126.907 23.49 127.105L23.5561 127.171C23.6221 127.237 23.6221 127.303 23.6882 127.369C23.7542 127.501 23.8202 127.567 23.8202 127.633C23.8863 127.699 23.9523 127.831 24.0184 127.963V128.029C24.0844 128.095 24.0844 128.161 24.1504 128.227C24.2165 128.359 24.2825 128.426 24.3486 128.492C24.4146 128.558 24.4806 128.69 24.6127 128.888C24.6788 128.954 24.7448 129.02 24.7448 129.086C24.8108 129.218 24.8769 129.284 24.9429 129.35C25.009 129.416 25.075 129.548 25.141 129.68C25.2071 129.746 25.2731 129.878 25.3391 129.944C25.4052 130.076 25.4712 130.143 25.6033 130.209L25.8014 130.407L25.8675 130.473C25.9995 130.605 26.0656 130.737 26.1977 130.869L26.3297 131.001L26.5279 131.199L26.9241 131.595L27.0562 131.727L27.2543 131.926L27.3203 131.992C27.4524 132.124 27.6505 132.256 27.7826 132.454L27.8486 132.52C27.9147 132.586 27.9807 132.586 28.0468 132.718C28.2449 132.916 28.443 133.048 28.6411 133.246L28.7732 133.312L28.8392 133.378L28.9713 133.444C29.1694 133.576 29.3015 133.709 29.4996 133.841L29.5657 133.907C29.6317 133.973 29.6978 133.973 29.6978 133.973L29.8298 134.105C29.9619 134.237 30.094 134.303 30.2261 134.435L30.3581 134.501L30.4902 134.633L30.5563 134.699C30.6883 134.765 30.8865 134.897 31.0185 134.963C31.0846 135.029 31.1506 135.095 31.2827 135.095L31.4148 135.161L31.4808 135.227H31.5469C31.811 135.359 32.0091 135.492 32.2073 135.624L32.3393 135.69L33.1318 136.086H33.1978L33.3299 136.152L33.7262 136.35C33.7922 136.35 33.8582 136.416 33.9243 136.416C33.9903 136.482 34.0564 136.482 34.1884 136.548H34.2545C34.3866 136.614 34.5186 136.68 34.6507 136.68H34.7167C34.8488 136.746 34.9809 136.812 35.179 136.878H35.2451L35.3771 136.944C35.4432 136.944 35.5092 137.01 35.5753 137.01H35.6413C35.8394 137.076 36.0375 137.143 36.3017 137.209H36.3677C36.6979 137.341 37.0281 137.407 37.3583 137.473H37.4244C37.6885 137.539 38.0187 137.605 38.2829 137.671H38.547C38.8112 137.737 39.0753 137.803 39.3395 137.803H39.6037C39.8018 137.803 39.9339 137.869 40.132 137.869C40.132 137.935 40.198 138.001 40.198 138.067C40.6603 139.322 41.1226 140.576 41.6509 141.765C49.4435 163.36 71.0384 180.133 95.6711 183.237C120.304 186.275 146.654 169.897 157.352 147.775C157.814 146.916 158.21 146.124 158.607 145.265C159.663 144.143 160.522 143.02 161.05 141.831C161.909 141.105 162.107 139.652 162.041 138.397V138.397ZM25.2731 129.812H25.3391H25.2731Z" fill="#664F44"/>
<path d="M140.974 30.3597C139.785 29.0389 138.398 28.0483 136.88 27.3219C136.615 27.1899 136.351 27.1238 136.021 27.0578C135.889 26.9917 135.757 26.8597 135.625 26.7936C134.304 26.2653 132.917 25.9351 131.464 25.737C124.332 24.8125 116.143 27.454 111.52 29.3031C111.256 29.4351 110.992 29.5012 110.728 29.6333C110.332 29.8314 109.935 29.9634 109.539 30.1616C108.879 30.4257 108.218 30.7559 107.492 31.0861C107.36 31.1521 107.294 31.1521 107.162 31.2182L105.907 29.7653L105.313 29.105L104.784 28.5106L104.586 28.2465L99.7654 22.6993L99.3692 22.237L98.8409 21.6427H98.7748L97.388 21.9729L95.803 22.3031C94.9445 21.9068 93.8879 21.6427 92.6992 21.4446C90.3218 21.1144 87.284 21.4446 83.8499 22.3031C80.4158 23.1616 76.5195 24.6804 72.4251 26.7276C64.1702 30.8219 55.0567 37.0955 46.2074 45.1521C43.1036 47.9257 40.2639 50.8314 37.6223 53.671C35.0468 56.4446 32.7354 59.2842 30.6221 61.9918C26.3296 67.605 23.0936 73.0201 20.9804 77.9069C19.5935 81.1427 18.735 84.1144 18.4048 86.6899C18.1407 88.539 18.2067 90.1899 18.5369 91.5107C18.669 91.9729 18.8011 92.3031 18.9331 92.6993C19.2633 93.4918 19.6596 94.1522 20.1879 94.7465L25.5371 100.36L26.1314 100.954L26.1975 100.888C26.3296 100.69 26.5277 100.492 26.7258 100.36L26.7918 100.294L26.9899 100.096C27.122 99.8975 27.3201 99.7654 27.4522 99.5673C27.5843 99.4352 27.6503 99.3692 27.7824 99.3031C27.9145 99.2371 27.9805 99.105 28.1126 99.039L28.2447 98.9069C28.3768 98.8409 28.4428 98.7088 28.5749 98.6427C28.707 98.5107 28.9051 98.3786 29.0372 98.2465C29.1032 98.1805 29.2353 98.1144 29.3013 98.0484H29.3674C29.5655 97.9163 29.6976 97.7843 29.8957 97.6522C30.0278 97.5861 30.0938 97.5201 30.2259 97.388C30.424 97.256 30.5561 97.1239 30.7542 96.9918C30.8863 96.9258 30.9523 96.8597 31.0844 96.7937C31.2825 96.6616 31.4806 96.5295 31.6787 96.4635C31.8108 96.3975 31.8769 96.3314 32.0089 96.2654C32.2071 96.1333 32.4052 96.0673 32.6033 95.9352C32.7354 95.8692 32.8014 95.8031 32.9335 95.7371L33.0656 95.671C33.2637 95.605 33.3958 95.4729 33.5939 95.4069C33.6599 95.3409 33.792 95.3409 33.858 95.2748C33.9901 95.2088 34.1222 95.1427 34.3203 95.0767L34.7166 94.8786L34.8486 94.8126L35.8392 94.4163C35.9713 94.3503 36.0373 94.3503 36.1694 94.2843C36.3015 94.2182 36.3675 94.2182 36.4996 94.1522L36.6317 94.0861C36.6977 94.0861 36.7638 94.0201 36.8298 94.0201C36.9619 93.9541 37.094 93.9541 37.2921 93.888H37.4242C37.6223 93.822 37.7544 93.822 37.9525 93.756C38.0846 93.6899 38.2827 93.6899 38.4148 93.6239C38.6129 93.5578 38.811 93.5578 39.0091 93.4918C39.0752 93.4918 39.1412 93.4258 39.2733 93.4258C39.3393 93.4258 39.4714 93.4258 39.5374 93.3597C39.7356 93.2937 39.9337 93.2937 40.1318 93.2937C40.3299 93.2937 40.462 93.2276 40.6601 93.2276C40.7922 93.2276 40.9243 93.1616 41.0563 93.1616H41.5847C42.2451 93.1616 43.0375 93.1616 43.83 93.2276H43.9621C44.7546 93.2937 45.6791 93.4258 46.6037 93.6239C46.8018 93.6899 47.0659 93.6899 47.2641 93.756C47.3301 93.6899 47.3301 93.5578 47.3961 93.4918C47.9244 92.6333 48.3867 91.7088 48.915 90.8503C51.8868 85.8975 55.0567 81.539 58.2926 77.7088C59.4153 76.388 60.538 75.1993 61.6607 74.0107C66.3495 69.1239 71.0382 65.3597 75.2648 62.454C76.1893 61.7937 77.1799 61.1993 78.0384 60.605C79.2932 59.8125 80.4819 59.1521 81.6046 58.4918C82.5291 57.9635 83.3876 57.5012 84.2461 57.105C85.633 56.3786 86.8877 55.7842 88.0104 55.322L89.001 54.9257C89.4633 54.7276 89.9255 54.5295 90.3218 54.3974C89.9916 54.3314 89.5953 54.3314 89.2651 54.3314H87.9443C87.6142 54.3314 87.2179 54.3314 86.8877 54.3974C86.2273 54.4635 85.5009 54.5295 84.7745 54.5955C84.5103 54.6616 84.3122 54.6616 84.048 54.7276C85.8311 53.8031 87.6142 53.1427 89.2651 52.6144C90.3878 52.2842 91.5105 52.0201 92.5671 51.822C94.02 51.5578 95.4068 51.3597 96.6616 51.2937C97.5201 51.2276 98.3125 51.2276 99.039 51.2276C99.7654 51.2276 100.492 51.2937 101.086 51.2937C103.265 51.4257 104.586 51.7559 104.586 51.7559C104.256 51.2937 103.86 50.9635 103.464 50.6333C102.671 50.0389 101.813 49.6427 101.02 49.3125C100.69 49.1804 100.426 49.1144 100.162 48.9823C99.9635 48.9163 99.7654 48.8503 99.6333 48.8503C100.03 48.7842 100.36 48.7182 100.69 48.7182C101.086 48.6521 101.416 48.6521 101.813 48.5861C104.916 48.322 107.69 48.5861 109.737 48.9163C112.181 49.3786 113.7 49.9729 113.7 49.9729C113.37 49.3125 112.841 48.7182 112.247 48.1899C111.851 47.8597 111.388 47.5295 110.992 47.2653C111.851 47.4635 112.577 47.6616 113.37 47.9257C115.351 48.5201 117.002 49.2465 118.322 49.8408L119.511 50.4352C119.643 50.5012 119.709 50.5672 119.775 50.5672C120.964 51.2276 121.624 51.6899 121.624 51.6899C121.426 50.9635 121.03 50.3031 120.502 49.7087C120.37 49.5767 120.238 49.3786 120.106 49.2465H120.172C120.238 49.2465 120.304 49.3125 120.436 49.3125C120.502 49.3125 120.634 49.3786 120.766 49.4446C121.294 49.6427 122.087 49.9729 123.011 50.4352C123.077 50.4352 123.077 50.5012 123.143 50.5012L123.54 50.6993C123.87 50.8974 124.2 51.0295 124.53 51.2937L125.521 51.888C125.719 52.0201 125.851 52.0861 126.049 52.2182C126.379 52.4823 126.776 52.7465 127.106 53.0767C127.502 53.4069 127.832 53.737 128.162 54.0672L128.36 54.2654C128.625 54.5295 128.889 54.7937 129.087 55.0578C129.549 55.5861 129.945 56.1804 130.342 56.7748C130.804 57.5012 131.134 58.3597 131.464 59.2182C131.464 59.2842 131.464 59.3503 131.53 59.3503C131.728 59.1521 132.125 58.7559 132.587 58.2276C136.417 53.737 147.908 39.2087 140.974 30.3597" fill="#132134"/>
<path d="M158.078 138.86C158.078 138.86 158.21 137.869 157.682 136.944C157.682 136.878 157.616 136.812 157.616 136.812L157.55 136.746L157.352 136.548C157.22 136.416 157.088 136.284 156.89 136.152C156.824 136.086 156.692 136.02 156.559 135.954C156.229 135.822 155.899 135.69 155.437 135.624C155.107 135.558 154.776 135.558 154.38 135.558H153.852V135.69C153.852 135.756 153.918 135.822 153.918 135.954C153.918 136.02 153.918 136.086 153.984 136.086C154.05 136.284 154.116 136.614 154.182 136.878C154.182 136.878 154.182 136.944 154.116 137.077V137.143C153.918 137.605 153.39 138.661 152.201 139.982C152.003 140.246 151.805 140.444 151.54 140.709C148.238 144.143 141.106 148.963 126.049 151.671C120.964 152.397 116.209 152.463 112.247 151.935C106.303 151.209 101.879 149.294 99.7656 146.718C99.5674 146.52 99.4354 146.256 99.2372 146.058C99.1052 145.86 99.0391 145.728 98.907 145.529C98.841 145.463 98.841 145.397 98.775 145.331C97.9164 143.746 97.5202 142.029 97.5202 140.378C97.5202 138.331 98.1806 136.416 99.2372 134.963C100.096 133.775 101.218 132.85 102.605 132.454C103.266 132.256 103.992 132.124 104.719 132.19C104.851 132.19 105.049 132.19 105.313 132.256C105.775 132.322 106.502 132.388 107.36 132.52C107.426 132.52 107.558 132.52 107.624 132.586C110.464 132.916 114.955 133.378 120.37 133.048C130.276 132.454 143.286 129.35 155.107 118.652V118.586C155.173 117.661 155.041 116.077 153.918 114.822C153.72 114.624 153.522 114.426 153.257 114.227C153.125 114.095 152.927 114.029 152.795 113.897C152.597 113.831 152.465 113.699 152.333 113.633L151.739 113.237V113.171C151.673 113.039 151.607 112.907 151.474 112.775C148.437 108.152 144.21 105.444 142.493 104.19C141.701 103.595 141.172 103.331 141.172 103.331C137.54 101.086 137.012 100.36 137.342 94.3501C137.474 92.1709 137.672 89.3312 137.936 85.435C137.936 84.9067 138.002 84.4444 138.002 83.9822V83.652V82.0671C138.002 81.7369 137.936 81.4067 137.936 81.1425C137.936 81.0105 137.936 80.8784 137.87 80.7463C137.804 80.4161 137.804 80.0859 137.738 79.7558C137.738 79.6237 137.672 79.4256 137.672 79.2935C137.672 79.0954 137.606 78.9633 137.54 78.7652C137.474 78.6331 137.474 78.435 137.408 78.3029C137.342 78.1048 137.276 77.9067 137.276 77.7086C137.276 77.6425 137.21 77.5765 137.21 77.5105C137.21 77.4444 137.144 77.3784 137.144 77.3124V77.2463L137.078 77.0482C137.012 76.9161 136.946 76.7841 136.946 76.652V76.5859L136.88 76.4539L136.814 76.3218C136.682 76.0576 136.616 75.7935 136.483 75.5954L136.417 75.3973C136.285 75.1991 136.153 74.935 136.021 74.7369L135.955 74.6708L135.889 74.6048C135.757 74.4727 135.691 74.3407 135.559 74.2086L135.427 74.0105C135.295 73.8124 135.163 73.6803 135.031 73.5482V73.0199C134.965 72.7558 134.899 72.4256 134.832 72.0954C134.832 72.0293 134.766 71.8973 134.766 71.8312V71.7652C134.766 71.6331 134.7 71.5671 134.7 71.435C134.634 71.1708 134.568 70.9067 134.436 70.6425C134.436 70.5765 134.37 70.4444 134.37 70.3784L134.172 69.784C134.106 69.652 134.106 69.5199 134.04 69.4539C133.974 69.2557 133.908 69.0576 133.776 68.8595L133.578 68.4633C133.512 68.2652 133.38 68.0671 133.314 67.869L133.115 67.4727C132.983 67.2746 132.917 67.0765 132.785 66.8784L132.587 66.4822C132.455 66.284 132.323 66.0859 132.191 65.8218C132.125 65.6897 132.059 65.6237 131.993 65.4916C131.927 65.4256 131.861 65.2935 131.795 65.2274C131.597 65.0293 131.464 64.8312 131.266 64.6331L131.134 64.5671C130.87 64.3029 130.672 64.0388 130.408 63.8406L130.342 63.7746C130.21 63.7086 130.078 63.5765 130.012 63.5105H129.946C129.813 63.4444 129.747 63.3784 129.615 63.3123L129.549 63.2463C129.417 63.1803 129.219 63.0482 128.955 62.9161C128.889 62.8501 128.757 62.8501 128.625 62.784C128.03 62.5859 127.304 62.3218 126.379 62.0576C126.313 62.0576 126.247 62.0576 126.181 61.9916C125.455 61.7935 124.596 61.5954 123.672 61.4633C123.342 61.3973 123.077 61.3972 122.747 61.3312C122.615 61.3312 122.483 61.3312 122.285 61.2652H122.087C121.36 61.1991 120.7 61.1331 119.974 61.1331H119.908C118.983 61.1331 118.058 61.1991 117.2 61.3973C117.398 61.0671 117.992 60.6708 118.521 60.3406C119.247 59.9444 119.908 59.6803 119.908 59.6803C119.511 59.6803 119.115 59.7463 118.719 59.8123C118.587 59.8123 118.455 59.8784 118.323 59.8784C118.257 59.8784 118.125 59.8784 118.058 59.9444H117.992C117.926 59.9444 117.86 59.9444 117.794 60.0105C115.747 60.4727 113.766 61.1991 112.643 61.6614L112.247 61.8595H112.181C112.049 61.8595 111.983 61.8595 111.851 61.9256C112.643 60.4067 113.832 59.6142 114.756 59.218C114.889 59.152 115.087 59.0859 115.219 59.0199C115.285 59.0199 115.285 59.0199 115.351 58.9539C115.483 58.8878 115.615 58.8878 115.681 58.8218C115.879 58.7557 116.011 58.7557 116.011 58.7557H114.955C112.709 59.0199 110.662 59.7463 108.945 60.7369C107.756 61.3973 106.7 62.1237 105.775 62.8501C105.511 62.9161 105.313 62.9822 105.049 62.9822C102.539 63.5105 99.6995 64.1708 96.7277 65.0954C95.6051 65.4256 94.4824 65.8218 93.3597 66.218C92.5012 66.5482 91.5767 66.8784 90.7181 67.2086C90.0578 67.4727 89.4634 67.7369 88.803 68.001C84.2463 70.0482 79.6896 72.7557 75.9253 76.3878L75.5291 76.7841L74.5385 77.7746L74.1422 78.1708C74.0102 78.369 73.8121 78.5671 73.68 78.6992C72.9535 79.4916 72.2931 80.3501 71.6327 81.2746C71.1705 81.935 70.7082 82.6614 70.312 83.3878L70.2459 83.4539C69.3874 84.9727 68.5949 86.5576 68.0006 88.3407C67.6704 89.1992 67.4062 90.1237 67.1421 91.0482C67.076 91.3124 67.01 91.5105 66.9439 91.7746L66.8779 91.9067C66.6138 92.8973 66.4156 93.9539 66.2836 95.0105C66.2836 95.2086 66.2175 95.4067 66.2175 95.6709C66.1515 96.1992 66.0854 96.7275 66.0854 97.3218C66.0194 97.8501 66.0194 98.3124 66.0194 98.8407V100.888C66.0194 101.482 66.0194 102.077 66.0854 102.671V102.737C66.0854 103.331 66.1515 103.926 66.2175 104.586C66.2175 104.85 66.2836 105.114 66.2836 105.378V105.577C66.2836 105.709 66.2836 105.841 66.3496 106.039C66.4156 106.699 66.5477 107.426 66.6138 108.152C66.6138 108.35 66.6798 108.548 66.6798 108.746C66.8119 109.341 66.8779 110.001 67.01 110.595C67.01 110.595 66.8779 109.803 66.9439 108.614C66.9439 108.35 67.01 108.02 67.01 107.756C67.076 107.095 67.2081 106.303 67.4723 105.577L67.6704 104.982C67.6704 104.916 67.7364 104.85 67.8025 104.718C67.9345 104.388 68.1327 103.992 68.3308 103.661C68.3968 103.926 68.3968 104.19 68.4629 104.388V107.888C68.5289 110.133 68.727 112.841 69.1893 115.152C69.1893 115.152 69.2553 110.992 69.9818 110.463C69.9818 110.463 71.2365 118.256 72.3592 121.161C72.4913 121.558 72.6894 121.822 72.8215 122.02V121.227L72.6894 116.935V116.473C73.5479 118.256 74.5385 120.039 75.6612 121.954C75.9914 122.482 76.2555 123.011 76.5857 123.539C74.4724 125.388 72.4913 128.095 71.0384 131.265C70.8403 131.794 70.5761 132.322 70.378 132.85C70.2459 133.18 70.1799 133.444 70.0478 133.775C70.0478 133.841 69.9818 133.973 69.9818 134.039C69.9157 134.237 69.8497 134.501 69.7836 134.699C69.7836 134.831 69.7176 134.897 69.7176 135.029C69.6516 135.228 69.5855 135.492 69.5195 135.69C69.5195 135.822 69.4534 135.888 69.4534 136.02L69.2553 137.011C69.1893 137.341 69.1233 137.671 69.1233 138.001C69.1233 138.133 69.1233 138.199 69.0572 138.331C69.0572 138.595 68.9912 138.794 68.9912 139.058C68.9912 139.19 68.9912 139.322 68.9251 139.454C68.9251 139.718 68.8591 139.916 68.8591 140.18V142.492C68.8591 142.756 68.8591 143.02 68.9251 143.35V143.548C68.9251 143.878 68.9912 144.209 69.0572 144.605C69.0572 144.737 69.0572 144.803 69.1233 144.935C69.1233 145.199 69.1893 145.397 69.2553 145.661C69.2553 145.794 69.3214 145.926 69.3214 146.058C69.3874 146.256 69.3874 146.52 69.4534 146.718C69.4534 146.85 69.5195 146.982 69.5195 147.114C69.5855 147.312 69.6516 147.511 69.6516 147.775C69.7176 147.907 69.7176 148.039 69.7836 148.237C69.8497 148.435 69.9157 148.699 69.9818 148.897C70.0478 149.029 70.0478 149.161 70.1138 149.294C70.1799 149.492 70.2459 149.756 70.312 149.954C70.378 150.086 70.378 150.218 70.444 150.35C70.5101 150.614 70.6422 150.878 70.7082 151.077C70.7742 151.209 70.7742 151.275 70.8403 151.407L71.8309 153.586C71.8969 153.718 71.9629 153.784 72.029 153.916L72.4252 154.709C72.4913 154.841 72.5573 154.973 72.6894 155.105C72.8215 155.303 72.9535 155.567 73.0856 155.765C73.1517 155.897 73.2837 156.029 73.3498 156.161C73.4819 156.36 73.6139 156.624 73.8121 156.822C73.9441 156.954 74.0102 157.086 74.1422 157.284C74.2743 157.482 74.4724 157.746 74.6045 157.944C74.7366 158.077 74.8026 158.209 74.9347 158.407C75.1328 158.605 75.2649 158.869 75.463 159.067C75.5951 159.199 75.6612 159.331 75.7932 159.463C75.9914 159.728 76.1895 159.926 76.4536 160.19L76.7838 160.52C77.114 160.85 77.4442 161.246 77.7744 161.577C77.7744 161.577 77.5763 161.312 77.3121 160.784C77.2461 160.718 77.1801 160.586 77.1801 160.454L76.9819 160.058C76.9159 159.926 76.8499 159.794 76.7838 159.595C76.2555 158.407 75.7932 156.69 75.8593 154.841L76.4536 155.633C76.6517 156.095 76.9819 156.69 77.3121 157.35C77.4442 157.548 77.5763 157.812 77.6423 158.011C78.1707 158.935 78.699 159.992 79.3594 160.982C80.1518 162.237 80.9443 163.426 81.8028 164.548C81.8028 164.548 80.8122 162.435 80.482 161.048C80.416 160.652 80.35 160.322 80.416 160.124C80.482 160.19 80.5481 160.322 80.6802 160.388C80.7462 160.454 80.8122 160.586 80.9443 160.652C81.0764 160.85 81.2745 161.114 81.5387 161.445L81.6707 161.577C81.8028 161.709 81.8689 161.907 82.0009 162.039C82.133 162.237 82.2651 162.435 82.4632 162.633C83.85 164.416 85.7652 166.794 87.086 168.048C87.5483 168.445 87.9445 168.775 88.2086 168.907L86.2935 165.473C90.6521 169.039 108.747 173.595 126.512 168.511C128.691 167.916 130.804 167.124 132.917 166.199C134.172 165.671 135.427 165.011 136.682 164.35L136.88 164.218C137.738 163.756 138.597 163.228 139.455 162.699C140.116 162.303 140.776 161.841 141.37 161.445C142.427 160.718 143.484 159.926 144.54 159.067C144.606 159.001 144.672 158.935 144.738 158.935C145.729 158.077 146.72 157.152 147.578 156.228C148.767 154.973 149.823 153.718 150.748 152.463L150.814 152.397C151.078 152.067 151.276 151.803 151.474 151.473L151.54 151.407C151.606 151.275 151.673 151.209 151.739 151.077C152.069 150.614 152.333 150.218 152.663 149.756C152.729 149.624 152.795 149.558 152.861 149.426C152.993 149.161 153.125 148.963 153.324 148.699C153.456 148.501 153.522 148.369 153.654 148.171C153.786 147.973 153.918 147.775 153.984 147.577C154.182 147.246 154.38 146.85 154.578 146.52L154.776 146.124L155.173 145.331L155.371 144.935L155.437 144.803C155.569 144.473 155.767 144.143 155.899 143.812V143.746C156.493 143.218 156.89 142.69 157.286 142.228C157.352 142.161 157.418 142.095 157.418 142.029C157.814 140.775 158.078 139.784 158.078 138.86V138.86ZM51.8209 126.048C51.8209 125.982 51.8209 125.916 51.7549 125.784C51.5568 124.661 51.3586 123.473 51.2926 122.284V122.02C51.0945 122.086 50.8964 122.35 50.6322 122.68C50.5662 122.812 50.4341 122.944 50.368 123.143C49.7737 124.265 49.2454 125.85 49.2454 125.85C49.3114 125.322 49.3775 124.794 49.3775 124.265V124.067C49.4435 123.539 49.5095 122.944 49.5756 122.416V122.218C49.6416 121.558 49.7737 120.963 49.9058 120.369C49.9058 120.303 49.9058 120.237 49.9718 120.105V120.039C49.9718 119.973 49.9718 119.907 50.0379 119.841C50.0379 119.709 50.1039 119.643 50.1039 119.511C50.1699 119.048 50.302 118.586 50.368 118.124C50.4341 117.727 50.5001 117.331 50.5662 117.001V116.869C50.5662 116.803 50.5662 116.737 50.6322 116.737V116.605C50.6322 116.539 50.6982 116.407 50.6982 116.341C50.6982 116.275 50.6982 116.209 50.7643 116.143C50.7643 116.01 50.8303 115.878 50.8303 115.812C50.8303 115.746 50.8964 115.614 50.8964 115.548C50.8964 115.416 50.9624 115.284 50.9624 115.218C50.9624 115.152 50.9624 115.086 51.0284 115.02C51.0284 114.954 51.0284 114.888 51.0945 114.888C51.0945 114.756 51.1605 114.69 51.1605 114.624V114.426L51.0284 114.558C50.8964 114.624 50.8303 114.756 50.6982 114.822L50.5662 114.954C50.4341 115.086 50.302 115.218 50.236 115.35L50.1699 115.416L49.7737 116.011L49.7077 116.077C49.7077 116.143 49.6416 116.143 49.6416 116.209L49.4435 116.605V116.737C49.3775 116.935 49.2454 117.133 49.1793 117.331C48.9812 117.86 48.7831 118.388 48.651 118.85C48.585 118.982 48.585 119.18 48.5189 119.246C48.4529 119.51 48.3869 119.775 48.3869 119.841V119.907V119.841C48.3869 119.643 48.3869 119.511 48.4529 119.312C48.4529 118.982 48.5189 118.586 48.5189 118.256C48.5189 117.992 48.585 117.661 48.651 117.397C48.651 117.331 48.651 117.199 48.7171 117.133C48.7171 117.001 48.7831 116.869 48.7831 116.737C48.7831 116.605 48.8491 116.473 48.8491 116.341V116.143C48.8491 116.01 48.9152 115.812 48.9152 115.68V115.35V115.218C48.9152 115.152 48.9152 115.086 48.9812 115.02C49.0473 114.822 49.1133 114.558 49.1133 114.36V114.294C49.1793 114.161 49.1793 113.963 49.2454 113.831V113.765C49.3114 113.435 49.4435 113.105 49.5095 112.775V112.643C49.5095 112.577 49.5095 112.511 49.5756 112.444C49.7077 111.916 49.9058 111.388 50.0379 110.926V110.86C50.1699 110.463 50.368 110.001 50.5001 109.605V109.539C50.5662 109.341 50.6322 109.209 50.6982 109.01C50.8303 108.746 50.8964 108.482 51.0284 108.218C51.0284 108.152 51.0945 108.02 51.2266 107.756C51.2926 107.69 51.2926 107.558 51.3586 107.492C51.4247 107.36 51.4907 107.227 51.5568 107.029L51.6228 106.897L52.7455 104.85C52.8115 104.784 52.8115 104.652 52.8775 104.586V104.52L52.9436 104.388C53.0757 104.19 53.2077 103.926 53.3398 103.727C53.5379 103.397 53.67 103.067 53.8681 102.803C54.1983 102.209 54.4625 101.68 54.6606 101.416C54.7267 101.218 54.7927 101.152 54.8587 101.086C54.7927 101.086 54.4625 100.822 53.9342 100.492C53.2738 100.095 52.3492 99.5671 51.2266 99.0388C50.8303 98.8407 50.5001 98.7086 50.1039 98.5105C49.6416 98.3124 49.1133 98.1143 48.585 97.9161C48.4529 97.8501 48.3208 97.8501 48.1887 97.7841C47.7265 97.652 47.3302 97.5199 46.868 97.3878C46.5378 97.3218 46.2076 97.2558 45.9434 97.1897C45.6792 97.1237 45.4151 97.1237 45.1509 97.0577C45.0189 97.0577 44.8868 97.0577 44.7547 96.9916C44.6226 96.9916 44.4905 96.9916 44.3585 96.9256C44.0283 96.9256 43.632 96.8595 43.3018 96.8595H42.7735C41.981 96.8595 41.2546 96.9256 40.5282 97.0577H40.3961C39.0753 97.2558 37.8206 97.586 36.5658 98.0482C36.1696 98.1803 35.7733 98.3784 35.3111 98.5765C35.179 98.6426 35.1129 98.7086 34.9809 98.7086L34.5846 98.9067C33.3959 99.5011 32.2732 100.294 31.2166 101.152H31.1506C30.226 101.878 29.4335 102.737 28.7071 103.595L28.1128 104.388C27.8486 104.718 27.6505 105.048 27.4524 105.378C27.0561 105.973 26.6599 106.633 26.3297 107.294C26.1976 107.558 26.0655 107.756 25.9995 108.02C25.9995 108.086 25.9335 108.086 25.9335 108.152C25.2731 109.737 24.7447 111.388 24.5466 113.171C24.4806 113.501 24.4806 113.831 24.4145 114.227V114.36C24.4145 114.624 24.3485 114.888 24.3485 115.218V116.407C24.3485 116.671 24.3485 116.935 24.4145 117.199V117.529C24.4145 117.727 24.4806 117.926 24.4806 118.124V118.19C24.4806 118.322 24.4806 118.388 24.5466 118.52C24.5466 118.718 24.6127 118.916 24.6127 119.048C24.6127 119.18 24.6787 119.312 24.6787 119.444C24.7447 119.643 24.7447 119.775 24.8108 119.973C24.8108 120.105 24.8768 120.237 24.9429 120.369V120.435L25.0089 120.567V120.699L25.0749 120.831C25.141 120.963 25.141 121.095 25.207 121.227C25.2731 121.36 25.2731 121.558 25.3391 121.69C25.4051 121.822 25.4712 121.954 25.4712 122.152L25.5372 122.284C25.6033 122.416 25.6033 122.482 25.6693 122.614C25.7353 122.746 25.8014 122.878 25.8674 123.077L26.0655 123.473C26.1316 123.539 26.1316 123.605 26.1976 123.671C26.2637 123.737 26.2637 123.803 26.3297 123.869L26.5278 124.265C26.5939 124.397 26.6599 124.595 26.792 124.727C26.858 124.86 26.924 124.992 26.9901 125.058C27.0561 125.19 27.1882 125.388 27.2542 125.52C27.3203 125.652 27.3863 125.718 27.4524 125.85C27.5184 125.982 27.6505 126.18 27.7826 126.312C27.8486 126.444 27.9146 126.511 27.9807 126.577C28.1128 126.709 28.1788 126.907 28.3109 127.039C28.3769 127.105 28.443 127.237 28.509 127.303C28.6411 127.435 28.7732 127.633 28.9052 127.765C28.9713 127.831 29.0373 127.897 29.1033 128.029C29.2354 128.161 29.3675 128.36 29.4996 128.492L29.6977 128.69C29.8298 128.822 29.9619 129.02 30.16 129.152L30.3581 129.35L30.8204 129.812C30.8864 129.878 30.9525 129.944 31.0185 129.944C31.1506 130.077 31.3487 130.209 31.5468 130.407C31.6128 130.473 31.6789 130.473 31.7449 130.539C31.943 130.671 32.0751 130.803 32.2732 130.935C32.3393 131.001 32.4053 131.001 32.4053 131.067L32.9997 131.463L33.1318 131.529L33.7261 131.926L33.8582 131.992C34.0563 132.124 34.3205 132.256 34.5186 132.388L34.6507 132.454C34.8488 132.586 35.1129 132.718 35.3111 132.784L35.4431 132.85C35.7073 132.982 35.9054 133.048 36.1696 133.18L36.2356 133.246C36.4998 133.378 36.7639 133.444 36.962 133.577H37.0281C37.2922 133.643 37.5564 133.775 37.8206 133.841H37.8866C38.0187 133.907 38.1508 133.907 38.2828 133.973C38.4149 134.039 38.547 134.039 38.7451 134.105H38.8111C39.0753 134.171 39.4055 134.237 39.6697 134.303C39.9338 134.369 40.264 134.435 40.5282 134.435C41.4527 134.567 42.3773 134.633 43.3018 134.699H43.9622C44.2924 134.699 44.5566 134.699 44.8868 134.633C45.283 134.567 45.7453 134.567 46.2076 134.501C46.6038 134.435 47 134.369 47.3302 134.303C47.9246 134.171 48.5189 134.039 49.0473 133.841C50.7643 133.378 52.2172 132.718 53.1417 131.992C53.1417 131.992 52.5474 129.35 52.0851 126.709C51.953 126.577 51.887 126.312 51.8209 126.048" fill="#90694C"/>
<path d="M94.2181 27.9161L94.02 25.2746L95.3408 22.369L95.8691 22.2369C95.0106 21.8407 93.9539 21.5765 92.7652 21.3784C90.3878 21.0482 87.35 21.3784 83.9159 22.2369C80.4819 23.0954 76.5856 24.6143 72.4911 26.6614C64.2362 30.7558 55.1227 37.0294 46.2735 45.086C43.1696 47.8596 40.3299 50.7652 37.6883 53.6049C35.1128 56.3784 32.8014 59.2181 30.6882 61.9256C26.3956 67.5388 23.1597 72.9539 21.0464 77.8407C19.6596 81.0766 18.8011 84.0483 18.4709 86.6237C18.2067 88.4728 18.2727 90.1237 18.6029 91.4445C18.735 91.9068 18.8671 92.237 18.9992 92.6332C19.3294 93.4256 19.7256 94.086 20.2539 94.6804L25.6031 100.294L26.1975 100.888L26.2635 100.822C26.3956 100.624 26.5937 100.426 26.7918 100.294L26.8579 100.228L27.056 100.029C27.1881 99.8313 27.3862 99.6992 27.5183 99.5011C27.6503 99.369 27.7164 99.303 27.8485 99.237C27.9805 99.1709 28.0466 99.0388 28.1787 98.9728L28.3107 98.8407C28.4428 98.7747 28.5089 98.6426 28.6409 98.5766C28.773 98.4445 28.9711 98.3124 29.1032 98.1804C29.1692 98.1143 29.3013 98.0483 29.3674 97.9822H29.4334C29.6315 97.8502 29.7636 97.7181 29.9617 97.586C30.0938 97.52 30.1598 97.4539 30.2919 97.3219C30.49 97.1898 30.6221 97.0577 30.8202 96.9256C30.9523 96.8596 31.0184 96.7936 31.1504 96.7275C31.3485 96.5955 31.5467 96.4634 31.7448 96.3973C31.8769 96.3313 31.9429 96.2653 32.075 96.1992C32.2731 96.0671 32.4712 96.0011 32.6693 95.869C32.8014 95.803 32.8675 95.737 32.9995 95.6709L33.1316 95.6049C34.3864 92.1049 36.3015 88.2087 38.811 84.2464C41.8488 79.3596 45.7451 74.2086 50.3679 69.0577C53.2736 65.8218 56.4435 62.586 59.8776 59.4822C64.3022 55.4539 68.859 51.8218 73.3496 48.652C76.3874 46.5388 79.3592 44.6237 82.265 42.9728C82.5291 42.8407 82.7933 42.6426 83.1235 42.5105C83.9159 42.0482 84.6424 41.652 85.4348 41.2558C87.0858 40.3973 88.7368 39.6048 90.3218 38.9445L89.5293 38.0199L89.3972 37.8879L88.4066 36.7652L82.9254 30.1614L82.9914 25.4067L82.9254 25.3407L86.8217 24.152L94.2181 27.9161Z" fill="#2F83C1"/>
<path d="M158.078 138.86C158.078 138.86 158.21 137.869 157.682 136.945C157.682 136.879 157.616 136.813 157.616 136.813L157.55 136.746L157.352 136.548C157.22 136.416 157.088 136.284 156.889 136.152C156.823 136.086 156.691 136.02 156.559 135.954C156.229 135.822 155.899 135.69 155.437 135.624C155.106 135.558 154.776 135.558 154.38 135.558H153.852V135.69C153.852 135.756 153.918 135.822 153.918 135.954C153.918 136.02 153.918 136.086 153.984 136.086C154.05 136.284 154.116 136.614 154.182 136.879C154.182 136.879 154.182 136.945 154.116 137.077V137.143C153.918 137.605 153.389 138.662 152.201 139.982C152.003 140.246 151.804 140.445 151.54 140.709C148.238 144.143 141.106 148.963 126.049 151.671C120.964 152.397 116.209 152.463 112.247 151.935C106.303 151.209 101.879 149.294 99.7653 146.718C99.5672 146.52 99.4351 146.256 99.237 146.058C99.1049 145.86 99.0389 145.728 98.9068 145.529C98.8408 145.463 98.8408 145.397 98.7748 145.331C97.9162 143.746 97.52 142.029 97.52 140.379C97.52 138.331 98.1804 136.416 99.237 134.963C100.096 133.775 101.218 132.85 102.605 132.454C103.265 132.256 103.992 132.124 104.718 132.19C104.85 132.19 105.048 132.19 105.313 132.256C105.775 132.322 106.501 132.388 107.36 132.52C107.426 132.52 107.558 132.52 107.624 132.586C110.464 132.916 114.954 133.379 120.37 133.048C130.276 132.454 143.285 129.35 155.106 118.652V118.586C155.172 117.662 155.04 116.077 153.918 114.822C153.72 114.624 153.521 114.426 153.257 114.228C153.125 114.096 152.927 114.029 152.795 113.897C152.597 113.831 152.465 113.699 152.333 113.633L151.738 113.237V113.171C151.672 113.039 151.606 112.907 151.474 112.775C148.436 108.152 144.21 105.445 142.493 104.19C141.7 103.595 141.172 103.331 141.172 103.331C137.54 101.086 137.012 100.36 137.342 94.3502C137.474 92.1709 137.672 89.3313 137.936 85.4351C137.936 84.9068 138.002 84.4445 138.002 83.9823V83.6521V82.0672C138.002 81.737 137.936 81.4068 137.936 81.1426C137.936 81.0106 137.936 80.8785 137.87 80.7464C137.804 80.4162 137.804 80.086 137.738 79.7558C137.738 79.6238 137.672 79.4257 137.672 79.2936C137.672 79.0955 137.606 78.9634 137.54 78.7653C137.474 78.6332 137.474 78.4351 137.408 78.303C137.342 78.1049 137.276 77.9068 137.276 77.7087C137.276 77.6426 137.21 77.5766 137.21 77.5106C137.21 77.4445 137.144 77.3785 137.144 77.3124V77.2464L137.078 77.0483C137.012 76.9162 136.946 76.7841 136.946 76.6521V76.586L136.88 76.454L136.813 76.3219C136.681 76.0577 136.615 75.7936 136.483 75.5955L136.417 75.3973C136.285 75.1992 136.153 74.9351 136.021 74.737L135.955 74.6709L135.889 74.6049C135.757 74.4728 135.691 74.3407 135.559 74.2087L135.427 74.0106C135.295 73.8124 135.162 73.6804 135.03 73.5483L134.502 73.02C134.304 72.8879 134.106 72.7558 133.908 72.6898C133.842 72.6238 133.776 72.6238 133.71 72.6238L133.313 72.4256C133.247 72.4256 133.181 72.3596 133.115 72.3596C132.983 72.2936 132.851 72.2936 132.785 72.2275C132.719 72.2275 132.653 72.1615 132.521 72.1615C132.389 72.1615 132.323 72.0955 132.191 72.0955H130.738C130.672 72.0955 130.606 72.0955 130.54 72.1615C130.474 72.1615 130.408 72.1615 130.342 72.2275C130.21 72.2275 130.077 72.2936 129.879 72.3596H129.747C129.351 72.4917 129.021 72.6238 128.625 72.7558L128.493 72.8219C128.36 72.8879 128.228 72.954 128.03 73.02L127.832 73.086L127.436 73.2841L127.238 73.4162L126.842 73.6143L126.643 73.7464C126.511 73.8124 126.379 73.9445 126.247 74.0106L126.115 74.0766C125.983 74.2087 125.785 74.2747 125.653 74.4068L125.587 74.4728C125.389 74.6049 125.257 74.737 125.058 74.803C124.728 75.0011 124.398 75.2653 124.068 75.4634C123.804 75.6615 123.54 75.8596 123.209 76.0577L123.077 76.1238C122.813 76.3219 122.483 76.52 122.219 76.6521L122.087 76.7181C121.823 76.9162 121.492 77.0483 121.228 77.2464L121.096 77.3124C120.832 77.5106 120.502 77.6426 120.172 77.7747L120.039 77.8407C119.709 77.9728 119.445 78.1049 119.115 78.237L118.983 78.303C118.653 78.4351 118.322 78.5011 117.992 78.6332H117.926C117.596 78.6992 117.2 78.7653 116.87 78.8313C116.275 78.8974 115.615 78.9634 115.02 78.9634C114.03 78.9634 113.039 78.8974 111.983 78.7653L110.992 78.5672C110.86 78.5672 110.728 78.5011 110.662 78.5011C109.803 78.303 108.879 78.1049 108.02 77.9068C107.624 77.8407 107.294 77.7087 106.898 77.6426C106.303 77.5106 105.709 77.3785 105.049 77.2464C104.916 77.2464 104.784 77.1804 104.718 77.1804C104.652 77.1804 104.52 77.1143 104.454 77.1143C104.322 77.1143 104.19 77.0483 104.058 77.0483C103.926 77.0483 103.794 76.9823 103.662 76.9823H103.53C103.398 76.9823 103.265 76.9162 103.199 76.9162C102.935 76.8502 102.671 76.7841 102.341 76.7841C102.275 76.7841 102.143 76.7841 102.077 76.7181C101.879 76.7181 101.68 76.6521 101.482 76.6521C101.35 76.6521 101.284 76.6521 101.152 76.586C100.954 76.586 100.822 76.52 100.624 76.52H97.586C97.2558 76.52 96.9917 76.586 96.6615 76.586H96.3973C96.1992 76.586 96.0011 76.6521 95.803 76.6521H95.7369C95.6049 76.6521 95.5388 76.7181 95.4067 76.7181C95.2086 76.7841 95.0105 76.7841 94.8124 76.8502C94.6803 76.8502 94.5482 76.9162 94.4822 76.9162C94.2841 76.9823 94.086 77.0483 93.8878 77.0483C93.7558 77.0483 93.6897 77.1143 93.5576 77.1804C93.3595 77.2464 93.0954 77.3124 92.8972 77.3785C92.7652 77.4445 92.6991 77.4445 92.6331 77.5106C92.3029 77.6426 91.9727 77.7747 91.7085 77.9068C89.199 79.3596 87.0197 81.3408 85.3687 83.586C84.7744 84.3785 84.2461 85.1709 83.7838 85.9634C83.2555 86.8219 82.8592 87.7464 82.463 88.6709C82.3309 88.9351 82.2649 89.1993 82.1328 89.4634C82.0007 89.9257 81.8026 90.3879 81.6705 90.8502C81.6705 90.9162 81.6705 90.9823 81.6045 90.9823C81.4724 91.5106 81.3403 92.0389 81.2083 92.6332C81.0762 93.2276 81.0101 93.7559 80.9441 94.3502C80.8781 94.6804 80.8781 94.9445 80.8781 95.2747C80.812 96.1332 80.812 96.9257 80.8781 97.7842V97.9823C80.8781 98.1804 80.8781 98.3785 80.9441 98.6427C81.0101 99.237 81.0762 99.8313 81.2083 100.426C81.2743 100.624 81.3403 100.822 81.3403 101.086C81.4064 101.284 81.4064 101.482 81.4724 101.68C81.8687 103.199 82.463 104.586 83.1894 105.775C85.8971 110.463 90.3877 113.303 93.6897 114.822C94.9445 115.35 96.2653 115.879 97.6521 116.341L97.52 116.473C97.2558 116.539 96.9917 116.605 96.6615 116.671C96.1992 116.803 95.6049 117.001 95.0105 117.199C94.3501 117.397 93.5576 117.728 92.7652 118.058C90.6519 118.916 88.2745 120.171 86.1612 121.888C85.8971 122.086 85.6329 122.35 85.3687 122.548C84.9065 122.945 84.5102 123.341 84.114 123.803L83.9819 123.935L83.7838 124.133C83.6517 124.331 83.4536 124.463 83.3215 124.662L83.1234 124.86C82.9253 125.124 82.7272 125.388 82.5951 125.652C82.397 125.916 82.2649 126.18 82.0668 126.445C80.812 128.624 80.0856 131.265 80.2837 134.435V134.303C80.2837 134.237 80.2837 134.171 80.3497 134.105V134.039C80.3497 133.973 80.4158 133.907 80.4158 133.775V133.709C80.4158 133.643 80.4818 133.511 80.4818 133.379C80.4818 133.246 80.5479 133.18 80.6139 133.048V132.982C80.6799 132.85 80.6799 132.718 80.746 132.586V132.52C80.812 132.388 80.812 132.256 80.8781 132.124V132.058C80.9441 131.926 81.0101 131.794 81.0762 131.596L81.1422 131.529C81.2083 131.397 81.2743 131.199 81.4064 131.067C81.5385 130.803 81.6705 130.605 81.8026 130.341C81.8687 130.275 81.9347 130.143 82.0007 130.077L82.0668 130.011L82.463 129.416C82.5951 129.284 82.7272 129.086 82.8592 128.954L82.9913 128.822C83.1234 128.69 83.1894 128.558 83.3215 128.492L83.4536 128.36C83.5857 128.228 83.7838 128.096 83.9159 127.897C83.9159 127.897 81.0762 134.369 82.3309 139.454V139.388V139.256V139.058V138.794V138.463C82.3309 138.331 82.3309 138.199 82.397 138.067C82.397 137.935 82.397 137.803 82.463 137.671V137.605C82.463 137.473 82.529 137.275 82.529 137.143V137.011C82.5951 136.813 82.5951 136.68 82.6611 136.482V136.416C82.7272 136.218 82.7932 136.02 82.7932 135.888C82.7932 135.822 82.8592 135.756 82.8592 135.69L82.9253 135.558C82.9913 135.426 83.0574 135.228 83.1234 135.096C83.1894 134.897 83.3215 134.699 83.4536 134.501C83.4536 134.435 83.5196 134.369 83.5196 134.369L83.9159 133.775C83.9159 133.775 83.7838 135.36 83.7838 137.275C83.7838 137.605 83.7838 137.869 83.8498 138.199C83.8498 138.397 83.8498 138.596 83.9159 138.794C84.048 136.746 84.4442 134.831 84.9725 133.048C84.4442 134.831 84.048 136.746 83.9159 138.794C83.8498 140.114 83.8498 141.435 83.9819 142.822C84.18 145.133 84.7744 147.643 85.765 150.218C85.765 150.218 84.8404 147.246 86.1612 144.275L86.5575 145.067C86.6895 145.926 86.8216 147.18 87.0858 148.567C87.3499 150.879 88.4066 157.813 93.1614 162.633C93.1614 162.633 91.3783 160.322 91.6425 157.35C91.8406 157.746 92.0387 158.077 92.1708 158.407C92.9633 159.926 94.5482 162.699 96.3313 164.68C96.3313 164.68 94.9445 161.973 95.2747 161.379C95.2747 161.379 99.8974 167.124 101.35 167.652L99.4351 164.482L99.3691 164.416C106.039 169.303 115.285 171.086 126.643 167.916C128.625 167.388 130.606 166.662 132.719 165.803C133.974 165.275 135.229 164.614 136.483 163.954L136.681 163.822C137.54 163.36 138.398 162.831 139.257 162.303C139.917 161.907 140.578 161.445 141.172 161.048C142.229 160.322 143.285 159.53 144.342 158.671C144.408 158.605 144.474 158.539 144.54 158.539C145.531 157.68 146.521 156.756 147.38 155.831C148.568 154.577 149.625 153.322 150.55 152.067L150.616 152.001C150.88 151.671 151.078 151.407 151.276 151.077L151.342 151.011C151.408 150.879 151.474 150.813 151.54 150.68C151.87 150.218 152.135 149.822 152.465 149.36C152.531 149.228 152.597 149.162 152.663 149.029C152.795 148.765 152.927 148.567 153.125 148.303C153.257 148.105 153.323 147.973 153.455 147.775C153.587 147.577 153.72 147.379 153.786 147.18C153.984 146.85 154.182 146.454 154.38 146.124L154.578 145.728L154.974 144.935L155.172 144.539L155.238 144.407C155.371 144.077 155.569 143.746 155.701 143.416V143.35C156.295 142.822 156.691 142.294 157.088 141.831C157.154 141.765 157.22 141.699 157.22 141.633C157.814 140.775 158.078 139.784 158.078 138.86V138.86ZM51.2924 122.02C51.0943 122.086 50.8962 122.35 50.632 122.68C50.566 122.812 50.4339 122.945 50.3678 123.143C49.7735 124.265 49.2452 125.85 49.2452 125.85C49.3112 125.322 49.3773 124.794 49.3773 124.265V124.067C49.4433 123.539 49.5093 122.945 49.5754 122.416V122.218C49.6414 121.558 49.7735 120.963 49.9056 120.369C49.9056 120.303 49.9056 120.237 49.9716 120.105V120.039C49.9716 119.973 49.9716 119.907 50.0376 119.841C50.0376 119.709 50.1037 119.643 50.1037 119.511C50.1697 119.048 50.3018 118.586 50.3678 118.124C50.4339 117.728 50.4999 117.331 50.566 117.001V116.869C50.566 116.803 50.566 116.737 50.632 116.737V116.605C50.632 116.539 50.698 116.407 50.698 116.341C50.698 116.275 50.698 116.209 50.7641 116.143C50.7641 116.011 50.8301 115.879 50.8301 115.812C50.8301 115.746 50.8962 115.614 50.8962 115.548C50.8962 115.416 50.9622 115.284 50.9622 115.218C50.9622 115.152 50.9622 115.086 51.0282 115.02C51.0282 114.954 51.0282 114.888 51.0943 114.888C51.0943 114.756 51.1603 114.69 51.1603 114.624V114.426L51.0282 114.558C50.8962 114.624 50.8301 114.756 50.698 114.822L50.566 114.954C50.4339 115.086 50.3018 115.218 50.2358 115.35L50.1697 115.416L49.7735 116.011L49.7074 116.077C49.7074 116.143 49.6414 116.143 49.6414 116.209L49.4433 116.605V116.737C49.3773 116.935 49.2452 117.133 49.1791 117.331C48.981 117.86 48.7829 118.388 48.6508 118.85C48.5848 118.982 48.5848 119.18 48.5187 119.246C48.4527 119.511 48.3867 119.775 48.3867 119.841V119.907V119.841C48.3867 119.643 48.3867 119.511 48.4527 119.312C48.4527 118.982 48.5187 118.586 48.5187 118.256C48.5187 117.992 48.5848 117.662 48.6508 117.397C48.6508 117.331 48.6508 117.199 48.7169 117.133C48.7169 117.001 48.7829 116.869 48.7829 116.737C48.7829 116.605 48.8489 116.473 48.8489 116.341V116.143C48.8489 116.011 48.915 115.812 48.915 115.68V115.35V115.218C48.915 115.152 48.915 115.086 48.981 115.02C49.0471 114.822 49.1131 114.558 49.1131 114.36V114.294C49.1791 114.162 49.1791 113.963 49.2452 113.831V113.765C49.3112 113.435 49.4433 113.105 49.5093 112.775V112.643C49.5093 112.577 49.5093 112.511 49.5754 112.445C49.7074 111.916 49.9056 111.388 50.0376 110.926V110.86C50.1697 110.463 50.3678 110.001 50.4999 109.605V109.539C50.566 109.341 50.632 109.209 50.698 109.011C50.8301 108.746 50.8962 108.482 51.0282 108.218C51.0282 108.152 51.0943 108.02 51.2264 107.756C51.2924 107.69 51.2924 107.558 51.3584 107.492C51.4245 107.36 51.4905 107.228 51.5566 107.029L51.6226 106.897C51.5566 106.831 51.4245 106.831 51.3584 106.765H51.2924L51.1603 106.699C50.566 106.435 49.9056 106.171 49.2452 105.973H49.1131C48.6508 105.841 48.2546 105.775 47.7923 105.709C47.5281 105.709 47.264 105.643 46.9998 105.643H46.3394C46.0092 105.643 45.679 105.709 45.3488 105.709C45.2168 105.709 45.1507 105.709 45.0186 105.775C44.8866 105.775 44.6885 105.841 44.5564 105.841C44.4903 105.841 44.4243 105.841 44.3583 105.907C44.2262 105.907 44.1601 105.973 44.0281 105.973C43.8299 106.039 43.5658 106.105 43.3677 106.171C43.3016 106.171 43.1695 106.237 43.1035 106.237C42.8393 106.369 42.5091 106.435 42.245 106.567C42.1129 106.633 42.0469 106.699 41.9148 106.699L41.5186 106.897L41.3865 106.963C41.2544 107.029 41.1223 107.095 40.9902 107.228C40.8582 107.294 40.7261 107.36 40.594 107.492C40.4619 107.558 40.3298 107.69 40.1978 107.756C40.1317 107.822 39.9997 107.888 39.9336 107.954C39.7355 108.152 39.4713 108.35 39.2732 108.548L38.943 108.879C38.7449 109.077 38.6128 109.275 38.4147 109.473L38.3487 109.539C38.2826 109.671 38.1505 109.737 38.0845 109.869L37.8864 110.067C37.5562 110.529 37.226 111.058 36.9618 111.586C36.8958 111.652 36.8958 111.718 36.8298 111.784C36.6977 112.048 36.6316 112.312 36.4996 112.577C36.4335 112.709 36.4335 112.775 36.3675 112.907C36.3014 113.171 36.1694 113.435 36.1033 113.765V114.029C36.0373 114.228 36.0373 114.426 35.9712 114.624C35.9712 114.756 35.9712 114.822 35.9052 114.954C35.9052 115.086 35.9052 115.152 35.8392 115.284V115.548C35.8392 115.879 35.7731 116.209 35.8392 116.539C35.8392 116.803 35.8392 117.067 35.9052 117.331V117.463C35.9052 117.595 35.9712 117.728 35.9712 117.86C36.0373 118.388 36.1694 118.85 36.3014 119.379C36.4335 119.775 36.5656 120.105 36.6977 120.435C36.9618 121.096 37.292 121.69 37.6883 122.284C38.4807 123.473 39.5374 124.529 40.7921 125.322C41.4525 125.784 42.245 126.114 43.0375 126.379C43.7639 126.643 44.5564 126.841 45.4149 126.907C45.613 126.907 45.8111 126.973 45.9432 126.973H46.8017C47.0659 126.973 47.33 126.907 47.5942 126.907C47.7263 126.907 47.9244 126.907 48.0565 126.841C48.4527 126.775 48.7829 126.709 49.1791 126.643H49.2452C49.3773 126.577 49.5093 126.577 49.7074 126.511C50.1697 126.379 50.632 126.18 51.0282 125.982L51.0943 125.916C51.2264 125.85 51.3584 125.784 51.4245 125.784C51.2264 124.662 51.0282 123.473 50.9622 122.284C51.2924 122.152 51.2924 122.086 51.2924 122.02" fill="#FCE9CD"/>
<path d="M95.8691 28.7087L96.0665 28.8403L95.8691 28.7087Z" fill="#4D9ED7"/>
<path d="M154.05 136.152C154.05 136.086 154.05 136.02 153.984 136.02C153.918 135.888 153.918 135.822 153.918 135.756C153.587 134.699 153.191 133.907 152.795 133.312C152.333 132.586 151.936 132.19 151.936 132.19L152.135 131.397C152.201 131.067 152.267 130.737 152.267 130.407C152.531 128.029 151.936 126.18 151.408 125.124C151.342 124.926 151.276 124.794 151.21 124.661C150.814 124.926 150.484 125.19 150.087 125.454C142.955 130.275 134.964 133.378 126.313 134.699C120.37 135.624 114.096 135.69 107.558 134.897L107.69 134.963C107.69 134.963 103.728 135.492 102.671 139.256L102.737 139.322L102.407 141.831C102.539 145.265 104.058 147.378 105.841 148.501C107.69 149.228 109.935 149.756 112.445 150.086C116.737 150.614 121.756 150.482 126.775 149.69C133.511 148.765 143.021 145.199 149.823 140.577C151.342 139.52 152.795 138.397 153.984 137.275L154.05 137.209L154.116 137.143C154.116 136.68 154.05 136.416 154.05 136.152" fill="white"/>
<path d="M141.172 103.53C137.54 101.284 137.012 100.558 137.342 94.5484C137.474 92.3691 137.672 89.5295 137.936 85.6333C137.936 85.105 138.002 84.6427 138.002 84.1805V83.8503V82.2654C138.002 81.9352 137.936 81.605 137.936 81.3408C137.936 81.2088 137.936 81.0767 137.87 80.9446C137.804 80.6144 137.804 80.2842 137.738 79.954C137.738 79.822 137.672 79.6238 137.672 79.4918C137.672 79.2937 137.606 79.1616 137.54 78.9635C137.474 78.8314 137.474 78.6333 137.408 78.5012C136.88 77.7088 136.285 77.0484 135.559 76.454L135.427 76.322L135.295 76.2559H135.229C135.096 76.1899 135.03 76.1238 134.898 76.0578C134.766 75.9918 134.634 75.9257 134.568 75.8597C133.511 75.1993 132.257 74.8031 131.002 74.605C130.276 74.4729 129.549 74.4729 128.823 74.4729C128.492 74.4729 128.096 74.5389 127.766 74.5389C126.842 74.671 125.917 74.8691 124.926 75.1333C124.596 75.3314 124.266 75.5955 123.936 75.7937C123.672 75.9918 123.407 76.1899 123.077 76.388L122.945 76.454C122.681 76.6521 122.351 76.8503 122.087 76.9823L121.955 77.0484C121.69 77.2465 121.36 77.3786 121.096 77.5767L120.964 77.6427C120.7 77.8408 120.37 77.9729 120.039 78.105L119.907 78.171C119.577 78.3031 119.313 78.4352 118.983 78.5672L118.851 78.6333C118.521 78.7654 118.19 78.8314 117.86 78.9635H117.794C117.464 79.0295 117.068 79.0955 116.737 79.1616C116.143 79.2276 115.483 79.2937 114.888 79.2937C113.898 79.2937 112.907 79.2276 111.851 79.0955L110.86 78.8974C110.728 78.8974 110.596 78.8314 110.53 78.8314C109.671 78.6333 108.747 78.4352 107.888 78.2371C107.492 78.171 107.162 78.0389 106.766 77.9729C106.171 77.8408 105.577 77.7088 104.916 77.5767C104.784 77.5767 104.652 77.5106 104.586 77.5106C104.058 77.5106 103.53 77.5767 103.067 77.6427H102.935C101.416 77.8408 99.9634 78.171 98.4445 78.6993C98.3785 78.6993 98.3125 78.7654 98.1804 78.7654C97.9162 78.8314 97.7181 78.9635 97.4539 79.0295C97.1238 79.1616 96.8596 79.2937 96.5294 79.4257C94.3501 80.3503 92.3029 81.671 90.3217 83.322C89.5292 83.9823 88.8028 84.7088 88.0763 85.4352C87.0197 86.5578 86.0952 87.7465 85.2366 89.0012C85.1706 89.0673 85.1706 89.1333 85.1046 89.1993C84.6423 89.8597 84.2461 90.5861 83.9159 91.2465C83.7838 91.5107 83.6517 91.7748 83.5196 91.9729V92.039C83.1234 92.8974 82.7932 93.6899 82.529 94.5484C82.529 94.6144 82.529 94.6805 82.463 94.6805C82.3969 94.8125 82.3969 94.9446 82.3309 95.0767C82.1988 95.4729 82.0668 95.8691 82.0007 96.2654C81.8686 96.6616 81.8026 97.0578 81.7366 97.5201C81.7366 97.5861 81.6705 97.7182 81.6705 97.7842C81.6045 98.0484 81.6045 98.3125 81.5384 98.5107C81.4064 99.4352 81.3403 100.36 81.2743 101.284V101.945C81.6705 103.463 82.2649 104.85 82.9913 106.039C85.6989 110.728 90.1896 113.567 93.4916 115.086C94.7463 115.614 96.0671 116.143 97.4539 116.605L97.52 116.671L97.586 116.605C97.7841 116.473 97.9162 116.341 98.1143 116.209C98.1804 116.143 98.2464 116.143 98.3125 116.077L98.9068 115.68C98.9729 115.614 99.0389 115.614 99.1049 115.548L99.6993 115.152C99.7653 115.086 99.8314 115.086 99.8974 115.02C100.096 114.888 100.294 114.756 100.558 114.624C100.624 114.558 100.69 114.558 100.756 114.492C100.954 114.36 101.218 114.228 101.416 114.096C101.482 114.03 101.548 114.03 101.614 113.963C101.813 113.831 102.077 113.699 102.275 113.567C102.341 113.501 102.473 113.501 102.539 113.435C102.737 113.303 103.001 113.171 103.199 113.039C103.265 112.973 103.397 112.907 103.464 112.907C103.662 112.775 103.926 112.643 104.19 112.511C104.322 112.445 104.388 112.379 104.52 112.379C104.784 112.247 104.982 112.114 105.247 112.048C105.379 111.982 105.445 111.916 105.577 111.916C105.841 111.784 106.039 111.718 106.303 111.586L106.699 111.388C106.964 111.256 107.162 111.19 107.426 111.058C107.558 110.992 107.69 110.926 107.888 110.86C108.152 110.794 108.35 110.662 108.615 110.596C108.747 110.53 108.945 110.463 109.077 110.397C109.341 110.331 109.539 110.199 109.803 110.133C110.001 110.067 110.134 110.001 110.332 109.935C110.596 109.869 110.794 109.737 111.058 109.671L111.652 109.473C111.851 109.407 112.115 109.341 112.313 109.209C112.511 109.143 112.775 109.077 112.973 109.011C113.171 108.945 113.436 108.879 113.634 108.813C113.898 108.747 114.162 108.68 114.36 108.614C114.558 108.548 114.756 108.482 115.02 108.416C115.285 108.35 115.549 108.284 115.879 108.152C116.011 108.086 116.143 108.086 116.275 108.02C117.332 105.313 120.568 98.5767 126.049 97.8503C126.643 97.7842 127.172 97.7182 127.7 97.7182H128.096C128.03 97.322 127.964 96.9258 127.964 96.4635C127.766 93.5578 128.691 91.1144 129.945 91.0484C130.936 90.9823 131.728 92.4352 131.861 92.8974C132.257 93.7559 132.521 94.8786 132.587 96.1333C132.653 97.2559 132.521 98.3125 132.323 99.2371C132.455 99.3691 132.521 99.5012 132.653 99.5673C133.908 101.152 134.106 103.265 134.04 104.85C134.502 104.784 135.03 104.784 135.559 104.718C135.691 104.718 135.823 104.718 135.955 104.652H136.219C136.813 104.586 137.474 104.52 138.134 104.52C139.587 104.388 141.04 104.322 142.559 104.256C141.7 103.794 141.172 103.53 141.172 103.53V103.53ZM154.974 144.209C152.597 146.322 150.087 148.039 147.578 149.426C146.323 150.086 145.068 150.681 143.88 151.209C141.172 152.397 138.597 153.19 136.285 153.784C131.2 155.039 127.7 155.039 127.7 155.039C130.474 156.558 133.974 156.558 136.351 156.36C138.002 156.228 139.125 155.897 139.125 155.897C139.059 156.888 138.927 157.813 138.795 158.737C138.597 159.728 138.332 160.586 138.002 161.379V161.445C137.606 162.435 137.078 163.294 136.549 164.086C136.483 164.152 136.417 164.284 136.351 164.35L136.549 164.218C137.408 163.756 138.266 163.228 139.125 162.699C139.785 162.303 140.446 161.841 141.04 161.445C142.097 160.718 143.153 159.926 144.21 159.067C144.276 159.001 144.342 158.935 144.408 158.935C145.399 158.077 146.389 157.152 147.248 156.228C148.436 154.973 149.493 153.718 150.418 152.464L150.484 152.397C150.748 152.067 150.946 151.803 151.144 151.473L151.21 151.407C151.276 151.275 151.342 151.209 151.408 151.077C151.738 150.614 152.003 150.218 152.333 149.756C152.399 149.624 152.465 149.558 152.531 149.426C152.663 149.162 152.795 148.964 152.993 148.699C153.125 148.501 153.191 148.369 153.323 148.171C153.455 147.973 153.587 147.775 153.654 147.577C153.852 147.247 154.05 146.85 154.248 146.52L154.446 146.124L154.842 145.331L155.04 144.935L155.106 144.803C155.238 144.473 155.437 144.143 155.569 143.813C155.305 143.879 155.172 144.011 154.974 144.209V144.209ZM94.7463 117.596C94.0859 117.794 93.2935 118.124 92.501 118.454C90.3877 119.313 88.0103 120.567 85.897 122.284C85.6329 122.482 85.3687 122.747 85.1046 122.945C84.6423 123.341 84.2461 123.737 83.8498 124.199L83.7177 124.331L83.5196 124.53C83.3875 124.728 83.1894 124.86 83.0573 125.058L82.8592 125.256C82.6611 125.52 82.463 125.784 82.3309 126.048C82.1328 126.313 82.0007 126.577 81.8026 126.841C80.5478 129.02 79.8214 131.662 80.0195 134.831V134.699C80.0195 134.633 80.0195 134.567 80.0856 134.501V134.435C80.0856 134.369 80.1516 134.303 80.1516 134.171V134.105C80.1516 134.039 80.2176 133.907 80.2176 133.775C80.2176 133.643 80.2837 133.577 80.3497 133.445V133.379C80.4158 133.247 80.4158 133.114 80.4818 132.982V132.916C80.5478 132.784 80.5478 132.652 80.6139 132.52V132.454C80.6799 132.322 80.746 132.19 80.812 131.992L80.878 131.926C80.9441 131.794 81.0101 131.596 81.1422 131.464C81.2743 131.199 81.4064 131.001 81.5384 130.737C81.6045 130.671 81.6705 130.539 81.7366 130.473L81.8026 130.407L82.1988 129.813C82.3309 129.68 82.463 129.482 82.5951 129.35L82.7271 129.218C82.8592 129.086 82.9253 128.954 83.0573 128.888L83.1894 128.756C83.3215 128.624 83.5196 128.492 83.6517 128.294C83.6517 128.294 80.812 134.765 82.0668 139.85V139.784V139.652V139.454V139.19V138.86C82.0668 138.728 82.0667 138.596 82.1328 138.464C82.1328 138.331 82.1328 138.199 82.1988 138.067V138.001C82.1988 137.869 82.2649 137.671 82.2649 137.539V137.407C82.3309 137.209 82.3309 137.077 82.3969 136.879V136.813C82.463 136.614 82.529 136.416 82.529 136.284C82.529 136.218 82.5951 136.152 82.5951 136.086L82.6611 135.954C82.7271 135.822 82.7932 135.624 82.8592 135.492C82.9253 135.294 83.0573 135.096 83.1894 134.897C83.1894 134.831 83.2555 134.765 83.2555 134.765L83.6517 134.171C83.6517 134.171 83.5196 135.756 83.5196 137.671C83.5196 138.001 83.5196 138.265 83.5857 138.596C83.5857 138.794 83.5857 138.992 83.6517 139.19C83.7838 137.143 84.18 135.228 84.7083 133.445C84.8404 132.982 85.0385 132.454 85.1706 131.992C85.1706 131.926 85.2366 131.86 85.2366 131.794C85.4348 131.331 85.5668 130.935 85.765 130.473C85.831 130.407 85.831 130.341 85.897 130.209C86.0952 129.813 86.2933 129.35 86.4914 128.954C86.5574 128.888 86.5574 128.822 86.5574 128.756C87.0197 127.897 87.482 127.105 87.9443 126.379C88.0103 126.313 88.0103 126.247 88.0763 126.18C88.2745 125.916 88.4726 125.652 88.6707 125.322C88.7367 125.256 88.7367 125.19 88.8028 125.124C88.8688 125.058 88.8688 124.992 88.9349 124.926C89.199 124.596 89.3971 124.265 89.6613 123.935C89.7273 123.869 89.7273 123.803 89.7934 123.803C90.0575 123.473 90.3217 123.143 90.5858 122.879C90.916 122.482 91.2462 122.152 91.5764 121.756C91.8406 121.492 92.0387 121.228 92.3029 121.03L92.567 120.765C93.0953 120.237 93.6237 119.709 94.152 119.247C95.6048 117.926 96.7936 117.067 97.1898 116.803C96.9256 116.869 96.6615 116.935 96.3313 117.001C95.935 117.199 95.4067 117.397 94.7463 117.596" fill="#F2D2AC"/>
<path d="M132.785 103.265C132.785 103.265 132.785 103.133 132.719 102.869C132.455 101.945 131.53 99.6993 127.898 100.029C124.068 100.426 122.747 103.529 122.417 104.586C122.351 104.784 122.351 104.916 122.351 104.916L122.483 104.982C122.945 104.586 123.87 104.586 124.728 105.18C125.125 105.445 125.389 105.709 125.653 106.039C125.983 106.567 126.049 107.095 125.851 107.492L125.653 107.69C125.653 107.69 125.785 107.756 126.049 107.822C127.106 108.152 130.078 108.746 131.662 106.699C131.729 106.567 131.795 106.501 131.861 106.369C131.53 106.237 131.398 105.775 131.398 105.18C131.398 104.916 131.464 104.652 131.53 104.322C131.728 103.529 132.323 103.067 132.785 103.265ZM113.7 131.529C111.19 132.058 109.011 132.454 107.36 132.718C107.426 132.718 107.558 132.718 107.624 132.784C110.464 133.114 114.954 133.577 120.37 133.246C130.276 132.652 143.285 129.548 155.106 118.85V118.784C155.172 117.86 155.04 116.275 153.918 115.02C153.72 114.822 153.522 114.624 153.257 114.426C153.191 114.426 153.191 114.36 153.125 114.36C152.795 114.162 152.531 114.029 152.267 113.831L151.672 113.435V113.369C150.946 114.426 150.087 115.416 149.163 116.341C148.833 116.671 148.503 117.001 148.106 117.331C144.87 120.237 140.644 122.746 136.087 124.728C128.559 128.029 120.106 130.209 113.7 131.529ZM51.0943 114.294C50.9623 114.36 50.8962 114.492 50.7641 114.558L50.6321 114.69C50.5 114.822 50.3679 114.954 50.3019 115.086L50.2358 115.152L49.8396 115.746L49.7736 115.812C49.7736 115.879 49.7075 115.879 49.7075 115.945L49.5094 116.341V116.473C49.4434 116.671 49.3113 116.869 49.2452 117.067C49.0471 117.596 48.849 118.124 48.7169 118.586C48.6509 118.718 48.6509 118.916 48.5848 118.982C48.5188 119.246 48.4528 119.511 48.4528 119.577V119.643V119.577C48.4528 119.379 48.4528 119.246 48.5188 119.048C48.5188 118.718 48.5848 118.322 48.5848 117.992C48.5848 117.728 48.6509 117.397 48.7169 117.133C48.7169 117.067 48.7169 116.935 48.783 116.869C48.783 116.737 48.849 116.605 48.849 116.473C48.849 116.341 48.915 116.209 48.915 116.077V115.879C48.915 115.746 48.9811 115.548 48.9811 115.416V115.086V114.954C48.9811 114.888 48.9811 114.822 49.0471 114.756C49.1132 114.558 49.1792 114.294 49.1792 114.096V114.029C49.2452 113.897 49.2452 113.699 49.3113 113.567V113.501C49.3773 113.171 49.5094 112.841 49.5754 112.511V112.379C49.5754 112.312 49.5754 112.246 49.6415 112.18C49.7736 111.652 49.9717 111.124 50.1038 110.662V110.595C50.2358 110.199 50.434 109.737 50.566 109.341V109.275C50.6321 109.077 50.6981 108.945 50.7641 108.746C50.8962 108.482 50.9623 108.218 51.0943 107.954C51.0943 107.888 51.1604 107.756 51.2925 107.492C51.3585 107.426 51.3585 107.294 51.4245 107.228C51.4906 107.095 51.5566 106.963 51.6227 106.765L51.6887 106.633C51.6227 106.567 51.4906 106.567 51.4245 106.501H51.3585L51.2264 106.435C50.6321 106.171 49.9717 105.907 49.3113 105.709H49.1792C48.7169 105.577 48.3207 105.511 47.8584 105.445C47.5943 105.445 47.3301 105.378 47.0659 105.378H46.4055C46.0753 105.378 45.7452 105.445 45.415 105.445C45.2829 105.445 45.2168 105.445 45.0848 105.511C44.9527 105.511 44.7546 105.577 44.6225 105.577C44.5564 105.577 44.4904 105.577 44.4244 105.643C44.2923 105.643 44.2262 105.709 44.0942 105.709C43.896 105.775 43.6319 105.841 43.4338 105.907C43.3677 105.907 43.2357 105.973 43.1696 105.973C42.9055 106.105 42.5753 106.171 42.3111 106.303C42.179 106.369 42.113 106.435 41.9809 106.435L41.5847 106.633L41.4526 106.699C41.3205 106.765 41.1884 106.831 41.0564 106.963C40.9243 107.029 40.7922 107.095 40.6601 107.228C40.528 107.294 40.396 107.426 40.2639 107.492C40.1978 107.558 40.0658 107.624 39.9997 107.69C39.8016 107.888 39.5374 108.086 39.3393 108.284L39.0091 108.614C38.811 108.812 38.6789 109.011 38.4808 109.209L38.4148 109.275C38.3487 109.407 38.2167 109.473 38.1506 109.605L37.9525 109.803C37.6223 110.265 37.2921 110.794 37.0279 111.322C36.9619 111.388 36.9619 111.454 36.8959 111.52C36.7638 111.784 36.6977 112.048 36.5657 112.312C36.4996 112.445 36.4996 112.511 36.4336 112.643C36.4336 112.709 36.4996 112.775 36.4996 112.841C36.5657 113.105 36.6317 113.303 36.6977 113.567V113.699C36.7638 113.897 36.8959 114.162 36.9619 114.36C37.2261 115.02 37.4902 115.614 37.8204 116.143C37.8865 116.209 37.8865 116.275 37.9525 116.341V116.407L38.0185 116.473C38.2167 116.869 38.4148 117.199 38.6129 117.463C38.9431 117.926 39.2072 118.256 39.4054 118.52L39.5374 118.652C39.5374 118.718 39.6035 118.718 39.6035 118.718L39.7356 118.85C39.7356 118.718 39.6695 118.586 39.6695 118.52C39.4714 117.662 39.4054 116.869 39.4054 116.011V115.879C39.4054 115.35 39.4054 114.822 39.4714 114.36L39.6695 114.954C39.7356 115.218 39.8676 115.482 39.9337 115.746V115.879C40.3299 117.001 40.7922 117.926 41.2545 118.652C41.7828 119.577 42.2451 120.171 42.5753 120.567C42.6413 120.633 42.7073 120.699 42.7073 120.765L42.8394 120.897C42.6413 119.973 42.5092 119.114 42.5092 118.256V117.397C42.5092 117.001 42.5092 116.671 42.5753 116.341C42.7073 116.935 42.9055 117.529 43.1036 118.058V118.124C43.83 120.039 44.6885 121.426 45.2829 122.284L45.3489 122.35C45.481 122.482 45.547 122.614 45.6131 122.746C45.6791 122.812 45.7452 122.879 45.7452 122.945L45.8772 123.077L45.9433 123.143V123.011C45.9433 122.879 45.8772 122.746 45.8772 122.614C45.8112 122.152 45.7452 121.69 45.6791 121.294C45.6791 121.029 45.6131 120.699 45.6131 120.435V119.643V119.511V118.982C45.6131 118.652 45.6791 118.256 45.6791 117.926C45.7452 118.124 45.8112 118.388 45.8772 118.586C45.9433 118.718 46.0093 118.916 46.0753 119.048V119.114L46.1414 119.18C46.2074 119.379 46.2735 119.577 46.3395 119.709C46.4716 120.039 46.6037 120.369 46.8018 120.633C46.9999 121.029 47.132 121.36 47.3301 121.624C47.4622 121.822 47.5282 121.954 47.5943 122.086C47.7263 122.284 47.8584 122.482 47.9245 122.614C48.0565 122.746 48.1226 122.879 48.1886 123.011L48.2547 123.077C48.3207 123.209 48.4528 123.275 48.5188 123.407C48.5848 123.473 48.6509 123.539 48.6509 123.605C48.783 123.737 48.849 123.869 48.915 123.869L48.9811 123.935V123.737C49.0471 123.209 49.1132 122.614 49.1792 122.086V121.888C49.2452 121.228 49.3773 120.633 49.5094 120.039C49.5094 119.973 49.5094 119.907 49.5754 119.775V119.709C49.5754 119.643 49.5754 119.577 49.6415 119.511C49.6415 119.379 49.7075 119.312 49.7075 119.18C49.7736 118.718 49.9056 118.256 49.9717 117.794C50.0377 117.397 50.1038 117.001 50.1698 116.671V116.539C50.1698 116.473 50.1698 116.407 50.2358 116.407V116.275C50.2358 116.209 50.3019 116.077 50.3019 116.011C50.3019 115.945 50.3019 115.879 50.3679 115.812C50.3679 115.68 50.434 115.548 50.434 115.482C50.434 115.416 50.5 115.284 50.5 115.218C50.5 115.086 50.566 114.954 50.566 114.888C50.566 114.822 50.566 114.756 50.6321 114.69C50.6321 114.624 50.6321 114.558 50.6981 114.558C50.6981 114.426 50.7641 114.36 50.7641 114.294V114.096L51.0943 114.294ZM131.134 141.897C132.059 141.567 132.851 141.303 133.512 141.039C134.766 140.511 135.427 140.114 135.427 139.982C135.361 139.85 134.634 139.916 133.313 140.246C132.653 140.379 131.861 140.511 130.87 140.775C130.408 140.907 129.879 140.973 129.351 141.039C128.823 141.105 128.228 141.237 127.634 141.303C126.445 141.501 125.125 141.633 123.672 141.765L121.492 141.963C120.766 142.03 119.973 142.03 119.181 142.096C116.011 142.162 112.511 142.03 108.945 141.369C107.096 141.039 104.52 140.18 102.737 139.19L102.671 139.124C103.728 135.36 107.69 134.831 107.69 134.831L107.558 134.765H107.36C106.766 134.699 106.303 134.633 105.841 134.567C105.511 134.501 105.247 134.501 105.049 134.435C104.85 134.435 104.652 134.369 104.586 134.369C102.209 134.237 100.888 136.218 100.492 137.077L100.294 137.473C99.9635 138.265 99.6994 139.124 99.6333 140.114C99.5013 141.897 99.9635 143.813 101.35 145.463C102.275 146.586 103.86 147.577 105.907 148.369C104.124 147.247 102.539 145.067 102.473 141.699C104.52 142.558 106.832 143.086 108.615 143.416C112.379 144.143 116.077 144.209 119.313 144.011C120.106 143.945 120.964 143.879 121.691 143.813C122.483 143.68 123.209 143.614 123.936 143.548C125.389 143.284 126.643 143.086 127.898 142.822C128.493 142.69 129.087 142.558 129.615 142.36C130.21 142.228 130.672 142.096 131.134 141.897" fill="#F2D2AC"/>
<path d="M128.03 97.7842C130.011 97.8502 131.332 98.4445 132.257 99.3691C132.455 98.5106 132.587 97.454 132.521 96.2653C132.455 95.0106 132.191 93.8879 131.794 93.0294C131.662 92.5011 130.87 91.1143 129.879 91.1804C128.625 91.2464 127.7 93.6898 127.898 96.5955C127.898 96.9917 127.964 97.3879 128.03 97.7842ZM131.332 105.246C131.332 105.775 131.53 106.237 131.794 106.435C132.257 106.699 132.851 106.171 133.115 105.312C133.115 105.246 133.181 105.18 133.181 105.114C133.379 104.322 133.181 103.529 132.719 103.331C132.257 103.067 131.662 103.595 131.398 104.454C131.398 104.718 131.332 104.982 131.332 105.246ZM122.351 106.699C122.549 107.029 122.879 107.36 123.275 107.624C124.134 108.152 125.058 108.218 125.587 107.756L125.785 107.558C125.983 107.162 125.917 106.633 125.587 106.105C125.389 105.775 125.058 105.445 124.662 105.246C123.804 104.718 122.879 104.652 122.417 105.048C122.351 105.114 122.285 105.18 122.219 105.312C122.021 105.643 122.087 106.171 122.351 106.699V106.699ZM155.172 118.784C155.106 118.784 155.106 118.784 155.172 118.784V118.784ZM154.116 137.077C152.861 138.265 151.474 139.388 149.889 140.445C143.087 145.067 133.578 148.699 126.842 149.558C121.756 150.35 116.804 150.482 112.511 149.954C110.001 149.624 107.822 149.096 105.907 148.369C103.86 147.577 102.275 146.586 101.35 145.463C99.9635 143.812 99.5672 141.831 99.6333 140.114C99.6993 139.19 99.8974 138.265 100.294 137.473L100.492 137.077C100.954 136.218 102.209 134.171 104.586 134.369C104.652 134.369 104.85 134.369 105.049 134.435C105.247 134.435 105.577 134.501 105.841 134.567C106.303 134.633 106.766 134.699 107.36 134.765H107.558C114.096 135.558 120.37 135.492 126.313 134.567C134.964 133.246 142.955 130.143 150.087 125.322C150.484 125.058 150.814 124.794 151.21 124.529L155.106 118.718C143.285 129.482 130.276 132.586 120.37 133.18C114.954 133.511 110.464 133.114 107.624 132.718C107.492 132.718 107.426 132.718 107.36 132.652C106.501 132.52 105.841 132.454 105.313 132.388C105.049 132.388 104.85 132.322 104.718 132.322C103.992 132.256 103.265 132.388 102.605 132.586C101.284 132.982 100.096 133.907 99.237 135.095C98.1804 136.548 97.52 138.529 97.52 140.511C97.52 142.162 97.9163 143.879 98.7748 145.463C98.8408 145.529 98.8408 145.595 98.9068 145.662C99.0389 145.86 99.105 145.992 99.237 146.19C99.3691 146.388 99.5672 146.652 99.7654 146.85C101.813 149.426 106.303 151.275 112.247 152.067C116.275 152.596 120.964 152.529 126.049 151.803C141.106 149.096 148.238 144.209 151.54 140.841C151.804 140.577 152.003 140.379 152.201 140.114C153.389 138.728 153.918 137.671 154.116 137.275V137.209C154.182 137.077 154.182 137.011 154.182 137.011L154.116 137.077Z" fill="#664F44"/>
<path d="M106.237 84.9068C105.775 84.6426 105.247 84.4445 104.718 84.3124C104.388 84.2464 104.058 84.1804 103.662 84.1143C103.53 84.1143 103.398 84.1143 103.266 84.0483C101.482 83.9162 99.9635 84.1804 99.9635 84.1804C99.6334 84.2464 99.3031 84.3124 99.039 84.4445C96.6616 85.1709 95.0106 86.4257 93.8219 87.8785C92.8973 89.0672 92.2369 90.3219 91.9067 91.5766C91.8407 91.7087 91.8407 91.7747 91.8407 91.9068C91.7747 92.237 91.6426 92.5672 91.5765 92.8313C91.3784 93.8879 91.2463 94.8125 91.2463 95.6049C91.2463 96.6615 91.3124 97.3219 91.3124 97.3219C91.7086 96.3974 92.1709 95.6049 92.6332 94.8125C93.7558 92.8974 94.9445 91.3125 96.1993 90.0577C98.5767 87.6143 101.02 86.2936 102.869 85.6332C104.85 84.9728 106.237 84.9068 106.237 84.9068V84.9068ZM134.832 81.5389L134.766 81.4068C134.502 81.0766 134.172 80.7464 133.776 80.4823C132.851 79.8879 131.596 79.5577 129.879 79.8879C129.879 79.8879 127.832 80.3502 126.643 81.737C126.643 81.737 130.21 80.2181 134.04 82.9257C134.37 83.1898 134.766 83.454 135.097 83.7841C135.427 84.1143 135.823 84.4445 136.153 84.9068C136.153 84.9068 136.021 83.2558 135.03 81.803C134.964 81.6709 134.898 81.6049 134.832 81.5389" fill="#E9B784"/>
<path d="M106.699 107.822C108.086 107.426 109.539 107.029 111.19 106.633C111.454 105.379 111.52 103.86 111.322 102.209C110.86 98.3785 109.143 95.4068 107.426 95.6049C105.709 95.8031 104.718 99.1049 105.181 102.935C105.445 104.916 105.973 106.633 106.699 107.822Z" fill="#664F44"/>
<path d="M98.8408 21.5106L95.2747 22.3031L96.0011 28.7748L86.5575 23.954L82.6611 25.1427L82.7272 25.2087L94.218 38.2842L94.3501 38.2182L94.4822 38.1521C94.8124 37.954 95.2086 37.6899 95.5388 37.4918C95.6709 37.4257 95.803 37.3597 95.9351 37.2276C96.4634 36.8974 96.9917 36.5672 97.52 36.3031L92.6331 30.6899L100.492 34.5201C100.756 34.388 100.954 34.2559 101.218 34.1238L100.492 28.5106L104.058 32.671H104.124C104.454 32.5389 104.718 32.3408 105.048 32.2087L105.181 32.1427L105.313 32.0767C105.379 32.0767 105.445 32.0106 105.445 32.0106L105.841 31.8125C105.841 31.8125 105.907 31.8125 105.907 31.7465C106.303 31.5484 106.766 31.3503 107.162 31.1521L98.8408 21.5106Z" fill="#FFD250"/>
<path d="M95.3407 22.501V22.3029V22.501ZM95.3407 22.3029L95.869 22.1709C95.0105 21.7746 93.9538 21.5105 92.7651 21.3124C90.3877 20.9822 87.3499 21.3124 83.9158 22.1709C80.4818 23.0294 76.5855 24.5482 72.491 26.5954C64.2361 30.6897 55.1226 36.9633 46.2734 45.0199C43.1695 47.7935 40.3298 50.6992 37.6882 53.5388L48.3866 66.7464C51.2924 63.5766 54.3962 60.4068 57.8303 57.303C62.387 53.1426 67.0097 49.4445 71.5665 46.2747C75.9911 43.1709 80.4157 40.5294 84.5762 38.4162L82.7271 29.9633L82.7932 25.2086L82.7271 25.1426L86.6235 23.9539L94.218 27.8501L94.0199 25.2086L95.3407 22.3029Z" fill="#4D9ED7"/>
<path d="M95.3408 22.303L94.02 25.2086L94.2181 27.9162L96.0672 28.8407L95.3408 22.303ZM92.6332 30.6898L100.558 34.586L97.5201 36.303L92.6332 30.6898ZM100.558 28.5105L101.284 34.1237L104.124 32.6709L100.558 28.5105Z" fill="#132134"/>
<path d="M130.408 26.4634H131.86C133.181 26.4634 134.436 26.6615 135.625 26.9257C135.691 26.9257 135.757 26.9257 135.823 26.9917H135.889L136.021 27.0578H136.153C136.021 26.9917 135.889 26.8596 135.757 26.7936C134.436 26.2653 133.049 25.9351 131.596 25.737C124.464 24.8125 116.275 27.454 111.652 29.303C111.388 29.4351 111.124 29.5012 110.86 29.6332C110.464 29.8313 110.067 29.9634 109.671 30.1615C109.011 30.4257 108.35 30.7559 107.624 31.0861C107.492 31.1521 107.426 31.1521 107.294 31.2181C106.898 31.4163 106.435 31.6144 106.039 31.8125C106.039 31.8125 105.973 31.8125 105.973 31.8785L105.577 32.0766C105.511 32.0766 105.445 32.1427 105.445 32.1427H105.181L105.115 32.2087C104.784 32.3408 104.52 32.4729 104.19 32.671H104.124C104.058 32.737 103.992 32.737 103.926 32.803H103.86C103.794 32.803 103.728 32.8691 103.728 32.8691C103.265 33.1332 102.803 33.3313 102.341 33.5955C102.011 33.7936 101.68 33.9257 101.35 34.1238H101.284C101.02 34.2559 100.822 34.388 100.558 34.52C99.7653 34.9163 99.0389 35.3785 98.2464 35.8408C98.1804 35.9068 98.1143 35.9068 97.9823 35.9729C97.9162 36.0389 97.8502 36.0389 97.7841 36.1049C97.7181 36.171 97.6521 36.171 97.586 36.237L97.52 36.303C96.9917 36.6332 96.4634 36.8974 95.935 37.2276C95.803 37.2936 95.6709 37.3597 95.5388 37.4917C95.2086 37.6898 94.8124 37.954 94.4822 38.1521L94.3501 38.2181L94.218 38.2842L91.2462 40.2653C89.5953 41.388 88.0103 42.5106 86.4254 43.6993C86.2272 43.8314 86.0291 44.0295 85.831 44.1616C81.6705 47.2653 77.7081 50.6333 73.8779 54.0672C69.8495 57.7653 65.9531 61.5295 62.321 65.3597C60.3398 67.3408 58.6228 69.1238 57.302 70.5767C54.5283 73.5484 53.0094 75.3974 53.0754 75.4635C53.0754 75.4635 53.3396 75.2654 53.8019 74.8031C53.4717 75.1993 53.0754 75.6616 52.7452 76.0578C58.8209 69.5861 65.4909 62.9823 72.6892 56.7748C77.0478 53.0106 81.6045 49.3785 86.2933 46.0106C88.3405 44.5578 90.4538 43.1049 92.567 41.7182C93.2274 41.2559 93.9539 40.8597 94.6142 40.3974C94.9444 40.1993 95.2746 40.0012 95.6709 39.8031C95.869 39.671 96.0671 39.5389 96.2652 39.4729C96.6615 39.2748 96.9917 39.0106 97.3879 38.8125C97.7181 38.6144 98.1143 38.4163 98.4445 38.1521C98.6427 38.02 98.8408 37.954 99.0389 37.8219L100.426 37.0295C100.69 36.8974 100.954 36.6993 101.218 36.5672C102.077 36.1049 102.935 35.6427 103.86 35.1804C103.926 35.1144 103.992 35.1144 104.058 35.0483L104.454 34.8502C104.652 34.7842 104.784 34.6521 104.982 34.5861C105.048 34.52 105.115 34.52 105.181 34.454L105.577 34.2559C105.577 34.2559 105.643 34.2559 105.643 34.1898H105.709C106.105 33.9917 106.501 33.7936 106.832 33.6615C106.898 33.6615 106.964 33.5955 107.03 33.5295L107.426 33.3313C107.888 33.1332 108.284 32.9351 108.747 32.737C108.879 32.671 109.011 32.6049 109.077 32.5389C109.143 32.5389 109.209 32.4729 109.275 32.4729C109.407 32.4068 109.539 32.3408 109.671 32.3408C110.2 32.1427 110.662 31.8785 111.19 31.6804C111.652 31.4823 112.049 31.2842 112.511 31.0861C115.02 30.0295 117.332 29.171 119.511 28.4445C123.606 27.3219 127.238 26.5955 130.408 26.4634" fill="white"/>
</svg>
