<svg fill="none" height="200" viewBox="0 0 200 200" width="200" xmlns="http://www.w3.org/2000/svg"><path d="m29.0137 156.128c-4.112-.007-8.1473-1.113-11.6877-3.205-3.5403-2.091-6.4567-5.092-8.44673-8.69-1.99004-3.598-2.9813-7.663-2.87097-11.774.11033-4.11 1.31823-8.116 3.49843-11.603l41.46767-66.223c3.2438-5.1799 8.4125-8.8589 14.3689-10.2279 2.9493-.6778 6.0033-.7681 8.9875-.2657s5.8403 1.5877 8.4051 3.1939 4.7881 3.7018 6.543 6.1672c1.7549 2.4655 3.007 5.2524 3.6849 8.2017.6778 2.9494.7681 6.0033.2657 8.9875-.5024 2.9843-1.5877 5.8403-3.1939 8.4051l-41.4771 66.2232c-2.0727 3.312-4.9544 6.043-8.3737 7.934s-7.2637 2.881-11.1711 2.876z" fill="#ff3d57"/><path d="m100.476 156.128c-4.1152 0-8.1554-1.101-11.7011-3.19-3.5456-2.089-6.4674-5.089-8.462-8.688-1.9946-3.6-2.9891-7.668-2.8804-11.781.1087-4.114 1.3167-8.124 3.4986-11.613l41.4959-66.2229c1.539-2.7 3.608-5.0608 6.082-6.9404 2.475-1.8797 5.304-3.2393 8.318-3.9971s6.15-.8982 9.219-.4126 6.009 1.5871 8.642 3.2382c2.632 1.6511 4.904 3.8176 6.677 6.3694 1.774 2.5517 3.013 5.4358 3.643 8.4788.63 3.0431.638 6.1821.023 9.2283-.614 3.0462-1.839 5.9365-3.599 8.4972l-41.421 66.2231c-2.072 3.312-4.954 6.043-8.373 7.934-3.42 1.891-7.264 2.881-11.171 2.876z" fill="#ffcb00"/><path d="m171.919 156.118c12.746 0 23.079-10.074 23.079-22.5 0-12.427-10.333-22.501-23.079-22.501s-23.078 10.074-23.078 22.501c0 12.426 10.332 22.5 23.078 22.5z" fill="#00d647"/></svg>