<svg fill="none" height="224" viewBox="0 0 224 224" width="224" xmlns="http://www.w3.org/2000/svg" xmlns:xlink="http://www.w3.org/1999/xlink"><filter id="a" color-interpolation-filters="sRGB" filterUnits="userSpaceOnUse" height="224" width="224" x="0" y="0"><feFlood flood-opacity="0" result="BackgroundImageFix"/><feColorMatrix in="SourceAlpha" type="matrix" values="0 0 0 0 0 0 0 0 0 0 0 0 0 0 0 0 0 0 127 0"/><feOffset dx="2" dy="4"/><feGaussianBlur stdDeviation="6"/><feColorMatrix type="matrix" values="0 0 0 0 0 0 0 0 0 0 0 0 0 0 0 0 0 0 0.25 0"/><feBlend in2="BackgroundImageFix" mode="normal" result="effect1_dropShadow"/><feBlend in="SourceGraphic" in2="effect1_dropShadow" mode="normal" result="shape"/></filter><clipPath id="b"><path d="m29 23h162v162h-162z"/></clipPath><g filter="url(#a)"><circle cx="110" cy="108" fill="#fff" r="100"/></g><g clip-path="url(#b)"><path d="m48.7286 152.448c-3.5246-.005-6.9837-.954-10.0183-2.746-3.0347-1.793-5.5346-4.365-7.2404-7.45-1.7058-3.084-2.5555-6.569-2.461-10.092.0946-3.523 1.13-6.957 2.9988-9.946l35.5452-56.7649c2.7805-4.4401 7.211-7.5937 12.3167-8.7672 2.5281-.581 5.1459-.6584 7.7039-.2277 2.558.4306 5.0062 1.3609 7.2047 2.7377s4.1043 3.1731 5.6088 5.2865c1.504 2.1133 2.577 4.5022 3.158 7.0303s.659 5.1459.228 7.7039-1.361 5.0061-2.738 7.2046l-35.5529 56.7648c-1.7767 2.84-4.2469 5.18-7.1778 6.801-2.931 1.621-6.2263 2.469-9.5757 2.465z" fill="#ff3d57"/><path d="m109.985 152.448c-3.528 0-6.991-.944-10.0303-2.734-3.0393-1.791-5.5438-4.362-7.2535-7.447-1.7097-3.086-2.5622-6.573-2.469-10.099s1.1287-6.963 2.999-9.954l35.5698-56.765c1.319-2.3143 3.092-4.3379 5.213-5.9491s4.547-2.7767 7.13-3.4262c2.583-.6496 5.271-.7699 7.902-.3537 2.631.4163 5.151 1.3604 7.408 2.7757 2.256 1.4153 4.203 3.2724 5.724 5.4597 1.52 2.1873 2.582 4.6595 3.122 7.2679s.547 5.2991.02 7.9102c-.527 2.6112-1.576 5.0887-3.086 7.2837l-35.504 56.7648c-1.777 2.84-4.247 5.18-7.178 6.801s-6.226 2.469-9.576 2.465z" fill="#ffcb00"/><path d="m171.224 152.44c10.926 0 19.783-8.635 19.783-19.287s-8.857-19.287-19.783-19.287c-10.925 0-19.782 8.635-19.782 19.287s8.857 19.287 19.782 19.287z" fill="#00d647"/></g></svg>