<svg width="883" height="198" viewBox="0 0 883 198" fill="none" xmlns="http://www.w3.org/2000/svg">
<path d="M312.904 147.151L369.502 197.356H100.878V147.151L120.791 119.409L206.449 3.11935e-06L247.396 56.5994L312.904 147.151Z" fill="#3D4D57"/>
<path d="M246.437 55.2685L206.45 -3.5379e-05L166.8 55.2685L195.013 31.7795L202.053 42.8316L215.253 35.232L229.328 55.2685L228.449 42.1411L246.437 55.2685Z" fill="white"/>
<path d="M149.042 93.5332L170.677 57.7997L195.308 42.1411L166.8 98.6778L180.06 137.48L157.128 105.881L149.042 93.5332Z" fill="#475966"/>
<path d="M312.904 147.151L369.502 197.356H153.074L163.636 155.904L182.986 158.667L195.307 139.32L232.844 165.571L237.621 147.93L259.234 168.796L269.207 148.536L264.515 129.649L283.871 141.164C283.871 141.164 248.581 75.4452 247.396 56.5994L312.904 147.151Z" fill="#36434C"/>
<path d="M212.026 197.356H0L19.9077 169.609L105.576 50.2047L146.517 106.804L212.026 197.356Z" fill="#3D4D57"/>
<path d="M145.557 105.474L105.575 50.2049L65.9202 105.474L94.1332 81.9832L101.173 93.0319L114.373 85.4369L128.448 105.474L127.568 92.346L145.557 105.474Z" fill="white"/>
<path d="M41.7556 154.322L69.797 108.003L94.4283 92.346L55.7173 173.865L56.4788 148.296L41.7556 154.322Z" fill="#475966"/>
<path d="M212.026 197.356H0L19.9077 169.609L55.1338 181.238L78.0065 169.255L86.2205 173.865L94.4237 157.285L115.538 168.801L102.643 153.142L132.556 141.164L149.563 153.142C149.563 153.142 147.702 125.649 146.517 106.804L212.026 197.356Z" fill="#36434C"/>
<path d="M422.861 197.356H250.131L266.35 177.087L336.142 89.861L369.497 131.211L422.861 197.356Z" fill="#3D4D57"/>
<path d="M368.708 130.234L336.141 89.861L303.832 130.234L326.817 113.077L332.554 121.149L343.304 115.598L354.773 130.234L354.054 120.647L368.708 130.234Z" fill="white"/>
<path d="M284.145 165.921L306.991 132.086L327.059 120.647L295.522 180.193L296.144 161.52L284.145 165.921Z" fill="#475966"/>
<path d="M422.861 197.356H250.131L266.35 177.087L295.045 185.578L313.682 176.83L320.368 180.193L327.054 168.084L344.254 176.496L333.751 165.053L358.12 156.308L371.974 165.053C371.974 165.053 370.462 144.975 369.497 131.211L422.861 197.356Z" fill="#36434C"/>
<path d="M788.094 154.48L836.569 197.477H606.506V154.48L623.562 130.722L696.925 28.4532L731.99 76.9313L788.094 154.48Z" fill="#3D4D57"/>
<path d="M731.17 75.7898L696.926 28.4531L662.965 75.7898L687.135 55.6725L693.162 65.1406L704.464 58.6327L716.517 75.7898L715.766 64.5487L731.17 75.7898Z" fill="white"/>
<path d="M647.759 108.563L666.278 77.9624L687.376 64.5488L662.965 112.967L674.321 146.2L654.681 119.14L647.759 108.563Z" fill="#475966"/>
<path d="M788.096 154.48L836.57 197.477H651.213L660.258 161.978L676.831 164.345L687.377 147.778L719.531 170.261L723.622 155.149L742.13 173.022L750.677 155.668L746.655 139.496L763.234 149.357C763.234 149.357 733.01 93.0737 731.991 76.9313L788.096 154.48Z" fill="#36434C"/>
<path d="M701.697 197.477H520.109L537.159 173.718L610.528 71.4528L645.593 119.926L701.697 197.477Z" fill="#3D4D57"/>
<path d="M644.772 118.784L610.528 71.4528L576.567 118.784L600.732 98.6637L606.758 108.137L618.061 101.627L630.113 118.784L629.363 107.54L644.772 118.784Z" fill="white"/>
<path d="M555.872 160.623L579.887 120.957L600.985 107.54L567.834 177.364L568.483 155.465L555.872 160.623Z" fill="#475966"/>
<path d="M701.697 197.477H520.109L537.159 173.718L567.329 183.674L586.92 173.413L593.949 177.359L600.984 163.158L619.063 173.027L608.018 159.613L633.636 149.36L648.198 159.613C648.198 159.613 646.611 136.068 645.593 119.926L701.697 197.477Z" fill="#36434C"/>
<path d="M882.272 197.477H734.333L748.225 180.122L807.992 105.417L836.564 140.831L882.272 197.477Z" fill="#3D4D57"/>
<path d="M835.895 139.997L807.993 105.417L780.332 139.997L800.015 125.299L804.926 132.212L814.137 127.459L823.954 139.997L823.343 131.782L835.895 139.997Z" fill="white"/>
<path d="M763.464 170.555L783.034 141.576L800.218 131.782L773.211 182.786L773.737 166.792L763.464 170.555Z" fill="#475966"/>
<path d="M882.272 197.477H734.333L748.225 180.122L772.809 187.396L788.765 179.902L794.491 182.786L800.217 172.409L814.946 179.616L805.949 169.815L826.822 162.328L838.687 169.815C838.687 169.815 837.389 152.62 836.564 140.831L882.272 197.477Z" fill="#36434C"/>
</svg>
