<svg width="883" height="252" viewBox="0 0 883 252" fill="none" xmlns="http://www.w3.org/2000/svg">
<path d="M312.904 187.389L369.502 251.323H100.878V187.389L120.791 152.061L206.449 4.21092e-05L247.396 72.0766L312.904 187.389Z" fill="#3D4D57"/>
<path d="M246.437 70.3817L206.45 1.24269e-05L166.8 70.3817L195.013 40.4697L202.053 54.544L215.253 44.8662L229.328 70.3817L228.449 53.6647L246.437 70.3817Z" fill="white"/>
<path d="M149.042 119.11L170.677 73.605L195.308 53.6646L166.8 125.661L180.06 175.074L157.128 134.834L149.042 119.11Z" fill="#475966"/>
<path d="M312.904 187.389L369.502 251.323H153.074L163.636 198.536L182.986 202.054L195.307 177.418L232.844 210.846L237.621 188.382L259.234 214.953L269.207 189.153L264.515 165.101L283.871 179.766C283.871 179.766 248.581 96.0758 247.396 72.0766L312.904 187.389Z" fill="#36434C"/>
<path d="M212.026 251.323H0L19.9077 215.988L105.576 63.9333L146.517 136.01L212.026 251.323Z" fill="#3D4D57"/>
<path d="M145.557 134.316L105.575 63.9334L65.9202 134.316L94.1332 104.401L101.173 118.471L114.373 108.8L128.448 134.316L127.568 117.598L145.557 134.316Z" fill="white"/>
<path d="M41.7556 196.521L69.797 137.536L94.4283 117.598L55.7173 221.408L56.4788 188.847L41.7556 196.521Z" fill="#475966"/>
<path d="M212.026 251.323H0L19.9077 215.988L55.1338 230.798L78.0065 215.538L86.2205 221.408L94.4237 200.295L115.538 214.96L102.643 195.019L132.556 179.766L149.563 195.019C149.563 195.019 147.702 160.007 146.517 136.01L212.026 251.323Z" fill="#36434C"/>
<path d="M422.861 251.323H250.131L266.35 225.511L336.142 114.434L369.497 167.09L422.861 251.323Z" fill="#3D4D57"/>
<path d="M368.708 165.846L336.141 114.434L303.832 165.846L326.817 143.998L332.554 154.277L343.304 147.208L354.773 165.846L354.054 153.638L368.708 165.846Z" fill="white"/>
<path d="M284.145 211.293L306.991 168.205L327.059 153.638L295.522 229.467L296.144 205.688L284.145 211.293Z" fill="#475966"/>
<path d="M422.861 251.323H250.131L266.35 225.511L295.045 236.324L313.682 225.185L320.368 229.467L327.054 214.047L344.254 224.759L333.751 210.186L358.12 199.051L371.974 210.186C371.974 210.186 370.462 184.618 369.497 167.09L422.861 251.323Z" fill="#36434C"/>
<path d="M788.094 196.723L836.569 251.477H606.506V196.723L623.562 166.467L696.925 36.2337L731.99 97.9682L788.094 196.723Z" fill="#3D4D57"/>
<path d="M731.17 96.5145L696.926 36.2336L662.965 96.5145L687.135 70.8961L693.162 82.9534L704.464 74.6659L716.517 96.5145L715.766 82.1995L731.17 96.5145Z" fill="white"/>
<path d="M647.759 138.25L666.278 99.2813L687.376 82.1996L662.965 143.858L674.321 186.178L654.681 151.719L647.759 138.25Z" fill="#475966"/>
<path d="M788.096 196.723L836.57 251.477H651.213L660.258 206.271L676.831 209.285L687.377 188.188L719.531 216.819L723.622 197.575L742.13 220.335L750.677 198.235L746.655 177.641L763.234 190.199C763.234 190.199 733.01 118.525 731.991 97.9681L788.096 196.723Z" fill="#36434C"/>
<path d="M701.697 251.477H520.109L537.159 221.221L610.528 90.9916L645.593 152.72L701.697 251.477Z" fill="#3D4D57"/>
<path d="M644.772 151.266L610.528 90.9916L576.567 151.266L600.732 125.643L606.758 137.707L618.061 129.417L630.113 151.266L629.363 136.947L644.772 151.266Z" fill="white"/>
<path d="M555.872 204.545L579.887 154.033L600.985 136.947L567.834 225.864L568.483 197.977L555.872 204.545Z" fill="#475966"/>
<path d="M701.697 251.477H520.109L537.159 221.221L567.329 233.9L586.92 220.833L593.949 225.858L600.984 207.773L619.063 220.341L608.018 203.259L633.636 190.203L648.198 203.259C648.198 203.259 646.611 173.276 645.593 152.72L701.697 251.477Z" fill="#36434C"/>
<path d="M882.272 251.477H734.333L748.225 229.377L807.992 134.243L836.564 179.342L882.272 251.477Z" fill="#3D4D57"/>
<path d="M835.895 178.28L807.993 134.243L780.332 178.28L800.015 159.562L804.926 168.365L814.137 162.312L823.954 178.28L823.343 167.818L835.895 178.28Z" fill="white"/>
<path d="M763.464 217.193L783.034 180.29L800.218 167.818L773.211 232.769L773.737 212.402L763.464 217.193Z" fill="#475966"/>
<path d="M882.272 251.477H734.333L748.225 229.377L772.809 238.64L788.765 229.096L794.491 232.769L800.217 219.554L814.946 228.732L805.949 216.251L826.822 206.717L838.687 216.251C838.687 216.251 837.389 194.354 836.564 179.342L882.272 251.477Z" fill="#36434C"/>
</svg>
