<svg fill="none" height="438" viewBox="0 0 260 438" width="260" xmlns="http://www.w3.org/2000/svg" xmlns:xlink="http://www.w3.org/1999/xlink"><filter id="a" color-interpolation-filters="sRGB" filterUnits="userSpaceOnUse" height="438" width="260" x="0" y="0"><feFlood flood-opacity="0" result="BackgroundImageFix"/><feColorMatrix in="SourceAlpha" type="matrix" values="0 0 0 0 0 0 0 0 0 0 0 0 0 0 0 0 0 0 127 0"/><feOffset dx="1" dy="4"/><feGaussianBlur stdDeviation="12.5"/><feColorMatrix type="matrix" values="0 0 0 0 0 0 0 0 0 0 0 0 0 0 0 0 0 0 0.25 0"/><feBlend in2="BackgroundImageFix" mode="normal" result="effect1_dropShadow"/><feBlend in="SourceGraphic" in2="effect1_dropShadow" mode="normal" result="shape"/></filter><g filter="url(#a)"><rect fill="#fff" height="379" rx="5.5" stroke="#272727" stroke-width="9" width="201" x="28.5" y="25.5"/><path d="m30 40c0-8.2843 6.7157-15 15-15h167c8.284 0 15 6.7157 15 15v211h-197z" fill="#fff"/><path d="m30 31c0-3.3137 2.6863-6 6-6h185c3.314 0 6 2.6863 6 6v20.1156h-197z" fill="#d0d0d0"/><path d="m30 32.0044c0-3.3137 2.6863-6 6-6h185c3.314 0 6 2.6863 6 6v20.1156h-197z" fill="#ededed"/><ellipse cx="52" cy="38.0578" fill="#fff" rx="9" ry="9.04"/><g fill="#c4c4c4"><rect height="3.01333" rx="1.50667" width="16" x="202" y="32.0311"/><rect height="3.01333" rx="1.50667" width="16" x="202" y="36.0489"/><rect height="3.01333" rx="1.50667" width="16" x="202" y="40.0667"/><rect height="9.89724" rx="4.94862" width="127" x="66" y="88.2711"/><rect height="9.89724" rx="4.94862" width="78.2802" x="90.6335" y="106.416"/></g><rect fill="#ee2c39" height="71.7787" rx="10" width="153" x="53" y="141.507"/><path d="m144.264 174.571c1.994 1.156 1.994 4.034 0 5.19l-20.222 11.728c-2 1.159-4.505-.284-4.505-2.596v-23.455c0-2.312 2.505-3.755 4.505-2.595z" fill="#fff"/><path d="m97 21h65v6c0 2.2091-1.791 4-4 4h-57c-2.2091 0-4-1.7909-4-4z" fill="#272727"/><path d="m30 251h197v147c0 2.209-1.791 4-4 4h-189c-2.2091 0-4-1.791-4-4z" fill="#a8a8a8"/><circle cx="129" cy="314" fill="#fff" r="38"/><rect fill="#fff" height="9.85345" rx="4.92672" transform="matrix(-1 0 0 -1 384 781.836)" width="127" x="192" y="390.918"/><rect fill="#fff" height="9.85345" rx="4.92672" transform="matrix(-1 0 0 -1 334.732 745.706)" width="78.2802" x="167.366" y="372.853"/></g></svg>