<svg width="200" height="200" viewBox="0 0 200 200" fill="none" xmlns="http://www.w3.org/2000/svg">
<path d="M0 100C0 44.7717 44.7717 0 100 0C155.228 0 200 44.7717 200 100C200 155.228 155.228 200 100 200C44.7717 200 0 155.228 0 100Z" fill="#31C5F0"/>
<path d="M10 99.9995C10 50.2941 50.2946 9.99951 100 9.99951C149.705 9.99951 190 50.2941 190 99.9995C190 149.705 149.705 190 100 190C50.2946 190 10 149.705 10 99.9995V99.9995Z" fill="url(#paint0_radial)"/>
<path fill-rule="evenodd" clip-rule="evenodd" d="M50 57.9737C50 57.4512 51.1208 57.0591 51.7742 57.0591C56.8704 56.7978 64.3533 56.667 72.1933 56.667C94.1475 56.667 102.698 68.6895 102.698 84.1099C102.698 104.234 88.1029 112.859 70.2 112.859C68.5612 112.859 67.505 112.82 66.5446 112.784C65.7433 112.755 65.0088 112.728 64.0579 112.728V143.156C64.0579 143.81 63.7967 144.072 63.1433 144.072H50.9146C50.2612 144.072 50 143.81 50 143.156V57.9737ZM64.0579 100.052C65.8875 100.182 67.325 100.182 70.4612 100.182C79.7396 100.182 88.4538 96.9153 88.4538 84.3703C88.4538 74.307 82.2225 69.2116 71.6375 69.2116C68.5013 69.2116 65.4954 69.3412 64.0579 69.4728V100.052V100.052ZM123.863 96.3937C123.863 93.7799 125.954 90.6437 132.227 90.6437C137.324 90.6437 142.514 91.9503 146.042 94.0412C146.826 94.3028 147.218 93.9099 147.218 93.2574V82.4087C147.218 81.8857 147.087 81.2332 146.434 80.8403C143.82 79.6649 139.022 78.6195 132.227 78.6195C118.375 78.6195 110.404 87.1145 110.404 97.3074C110.404 106.454 115.108 111.943 126.347 117.302C134.318 121.482 136.148 123.966 136.148 126.841C136.148 130.369 133.534 132.983 127.262 132.983C122.034 132.983 116.27 131.545 111.305 128.279C110.782 127.887 110.39 128.149 110.39 128.933V140.563C110.39 141.217 110.52 141.609 111.043 141.87C114.441 143.829 120.336 145.268 127.262 145.268C140.33 145.268 150 138.472 150 125.796C150 117.302 146.08 111.552 133.665 105.541C125.301 101.228 123.863 99.2687 123.863 96.3937V96.3937Z" fill="#31C5F0"/>
<defs>
<radialGradient id="paint0_radial" cx="0" cy="0" r="1" gradientUnits="userSpaceOnUse" gradientTransform="translate(81.7625 69.9583) scale(117.353)">
<stop stop-color="#0E0E17" stop-opacity="0.85"/>
<stop offset="0.767" stop-color="#0E0E17"/>
</radialGradient>
</defs>
</svg>
