<svg width="200" height="200" viewBox="0 0 200 200" fill="none" xmlns="http://www.w3.org/2000/svg">
<path d="M17 100.25C17 54.2724 54.2724 17 100.25 17C146.228 17 183.5 54.2724 183.5 100.25C183.5 146.228 146.228 183.5 100.25 183.5C54.2724 183.5 17 146.228 17 100.25Z" fill="#31C5F0"/>
<path d="M26 100.7C26 59.4445 59.4445 26 100.7 26C141.956 26 175.4 59.4445 175.4 100.7C175.4 141.955 141.956 175.4 100.7 175.4C59.4445 175.4 26 141.955 26 100.7V100.7Z" fill="url(#paint0_radial)"/>
<path fill-rule="evenodd" clip-rule="evenodd" d="M59 65.0845C59 64.6509 59.9303 64.3254 60.4726 64.3254C64.7024 64.1086 70.9133 64 77.4205 64C95.6424 64 102.739 73.9787 102.739 86.7776C102.739 103.481 90.6254 110.639 75.766 110.639C74.4058 110.639 73.5292 110.607 72.732 110.578C72.067 110.553 71.4573 110.53 70.6681 110.53V135.786C70.6681 136.329 70.4512 136.546 69.909 136.546H59.7591C59.2168 136.546 59 136.329 59 135.786V65.0845ZM70.6681 100.01C72.1866 100.118 73.3797 100.118 75.9828 100.118C83.6839 100.118 90.9166 97.4061 90.9166 86.9938C90.9166 78.6412 85.7447 74.412 76.9591 74.412C74.356 74.412 71.8612 74.5196 70.6681 74.6288V100.01V100.01ZM120.307 96.9731C120.307 94.8037 122.042 92.2006 127.248 92.2006C131.479 92.2006 135.787 93.2852 138.715 95.0206C139.365 95.2377 139.691 94.9116 139.691 94.37V85.3656C139.691 84.9316 139.582 84.39 139.04 84.0639C136.871 83.0883 132.888 82.2206 127.248 82.2206C115.752 82.2206 109.135 89.2714 109.135 97.7315C109.135 105.324 113.04 109.879 122.368 114.327C128.984 117.797 130.503 119.858 130.503 122.245C130.503 125.173 128.333 127.342 123.127 127.342C118.788 127.342 114.004 126.149 109.883 123.438C109.449 123.113 109.124 123.33 109.124 123.981V133.634C109.124 134.176 109.232 134.502 109.666 134.718C112.486 136.345 117.379 137.539 123.127 137.539C133.974 137.539 142 131.898 142 121.377C142 114.327 138.746 109.555 128.442 104.566C121.5 100.985 120.307 99.3594 120.307 96.9731V96.9731Z" fill="#31C5F0"/>
<defs>
<radialGradient id="paint0_radial" cx="0" cy="0" r="1" gradientUnits="userSpaceOnUse" gradientTransform="translate(85.5629 75.7658) scale(97.4033)">
<stop stop-color="#0E0E17" stop-opacity="0.85"/>
<stop offset="0.767" stop-color="#0E0E17"/>
</radialGradient>
</defs>
</svg>
