<svg width="200" height="200" viewBox="0 0 200 200" fill="none" xmlns="http://www.w3.org/2000/svg">
<g clip-path="url(#clip0)">
<path d="M78.3483 104.766C68.6913 104.766 60.8589 112.599 60.8589 122.256V166.004C60.8589 175.661 68.6913 183.493 78.3483 183.493C88.0053 183.493 95.8378 175.661 95.8378 166.004V122.256C95.8308 112.599 87.9984 104.766 78.3483 104.766Z" fill="#E91E63"/>
<path d="M17.1318 122.256C17.1318 131.92 24.9712 139.759 34.6351 139.759C44.299 139.759 52.1384 131.92 52.1384 122.256V104.752H34.649C34.642 104.752 34.6421 104.752 34.6351 104.752C24.9712 104.752 17.1318 112.592 17.1318 122.256V122.256Z" fill="#E91E63"/>
<path d="M78.3691 16.993C78.3622 16.993 78.3553 16.993 78.3483 16.993C68.6844 16.993 60.845 24.8324 60.845 34.4964C60.845 44.1603 68.6844 51.9997 78.3483 51.9997H95.8377V34.4964C95.8377 34.4894 95.8377 34.4755 95.8377 34.4617C95.8308 24.8116 88.0122 16.993 78.3691 16.993V16.993Z" fill="#00BCD4"/>
<path d="M34.5172 95.8794H78.3483C88.0123 95.8794 95.8516 88.0401 95.8516 78.3761C95.8516 68.7122 88.0123 60.8728 78.3483 60.8728H34.5172C24.8533 60.8728 17.0139 68.7122 17.0139 78.3761C17.0139 88.0401 24.8533 95.8794 34.5172 95.8794V95.8794Z" fill="#00BCD4"/>
<path d="M165.858 60.8658C156.208 60.8658 148.389 68.6844 148.389 78.3345V78.3692V95.8725H165.879C175.543 95.8725 183.382 88.0331 183.382 78.3692C183.382 68.7052 175.543 60.8658 165.879 60.8658C165.872 60.8658 165.865 60.8658 165.858 60.8658V60.8658Z" fill="#4CAF50"/>
<path d="M104.697 34.4964V78.3761C104.697 88.0331 112.529 95.8655 122.186 95.8655C131.843 95.8655 139.676 88.0331 139.676 78.3761V34.4964C139.676 24.8394 131.843 17.007 122.186 17.007C112.529 17.007 104.697 24.8394 104.697 34.4964V34.4964Z" fill="#4CAF50"/>
<path d="M139.669 165.99C139.669 156.333 131.836 148.5 122.179 148.5H104.69V166.004C104.697 175.654 112.522 183.479 122.179 183.479C131.836 183.479 139.669 175.647 139.669 165.99Z" fill="#FF9800"/>
<path d="M166.011 104.752H122.179C112.516 104.752 104.676 112.592 104.676 122.256C104.676 131.92 112.516 139.759 122.179 139.759H166.011C175.675 139.759 183.514 131.92 183.514 122.256C183.514 112.592 175.675 104.752 166.011 104.752V104.752Z" fill="#FF9800"/>
</g>
<defs>
<clipPath id="clip0">
<rect x="17" y="17" width="166.5" height="166.5" fill="white"/>
</clipPath>
</defs>
</svg>
