<svg fill="none" height="224" viewBox="0 0 224 224" width="224" xmlns="http://www.w3.org/2000/svg" xmlns:xlink="http://www.w3.org/1999/xlink"><filter id="a" color-interpolation-filters="sRGB" filterUnits="userSpaceOnUse" height="224" width="224" x="0" y="0"><feFlood flood-opacity="0" result="BackgroundImageFix"/><feColorMatrix in="SourceAlpha" type="matrix" values="0 0 0 0 0 0 0 0 0 0 0 0 0 0 0 0 0 0 127 0"/><feOffset dx="2" dy="4"/><feGaussianBlur stdDeviation="6"/><feColorMatrix type="matrix" values="0 0 0 0 0 0 0 0 0 0 0 0 0 0 0 0 0 0 0.25 0"/><feBlend in2="BackgroundImageFix" mode="normal" result="effect1_dropShadow"/><feBlend in="SourceGraphic" in2="effect1_dropShadow" mode="normal" result="shape"/></filter><clipPath id="b"><path d="m30 28h160v160h-160z"/></clipPath><g filter="url(#a)"><circle cx="110" cy="108" fill="#fff" r="100"/></g><g clip-path="url(#b)"><path d="m88.9533 112.34c-9.28 0-16.8066 7.527-16.8066 16.807v42.04c0 9.28 7.5266 16.806 16.8066 16.806s16.8067-7.526 16.8067-16.806v-42.04c-.007-9.28-7.5333-16.807-16.8067-16.807z" fill="#e91e63"/><path d="m30.1267 129.147c0 9.286 7.5333 16.82 16.82 16.82 9.2866 0 16.82-7.534 16.82-16.82v-16.82h-16.8067c-.0067 0-.0067 0-.0133 0-9.2867 0-16.82 7.533-16.82 16.82z" fill="#e91e63"/><path d="m88.9733 27.9933c-.0066 0-.0133 0-.02 0-9.2866 0-16.82 7.5333-16.82 16.82 0 9.2866 7.5334 16.82 16.82 16.82h16.8067v-16.82c0-.0067 0-.02 0-.0334-.007-9.2733-7.52-16.7866-16.7867-16.7866z" fill="#00bcd4"/><path d="m46.8333 103.8h42.12c9.2867 0 16.8197-7.5333 16.8197-16.82 0-9.2866-7.533-16.82-16.8197-16.82h-42.12c-9.2866 0-16.82 7.5334-16.82 16.82 0 9.2867 7.5334 16.82 16.82 16.82z" fill="#00bcd4"/><path d="m173.047 70.1533c-9.274 0-16.787 7.5134-16.787 16.7867v.0333 16.8197h16.807c9.286 0 16.82-7.533 16.82-16.8197 0-9.2866-7.534-16.82-16.82-16.82-.007 0-.014 0-.02 0z" fill="#4caf50"/><path d="m114.273 44.8134v42.1666c0 9.28 7.527 16.807 16.807 16.807s16.807-7.527 16.807-16.807v-42.1666c0-9.28-7.527-16.8067-16.807-16.8067s-16.807 7.5267-16.807 16.8067z" fill="#4caf50"/><g fill="#ff9800"><path d="m147.88 171.173c0-9.28-7.527-16.806-16.807-16.806h-16.806v16.82c.006 9.273 7.526 16.793 16.806 16.793s16.807-7.527 16.807-16.807z"/><path d="m173.193 112.327h-42.12c-9.286 0-16.82 7.533-16.82 16.82 0 9.286 7.534 16.82 16.82 16.82h42.12c9.287 0 16.82-7.534 16.82-16.82 0-9.287-7.533-16.82-16.82-16.82z"/></g></g></svg>