<svg fill="none" height="499" viewBox="0 0 393 499" width="393" xmlns="http://www.w3.org/2000/svg" xmlns:xlink="http://www.w3.org/1999/xlink"><filter id="a" color-interpolation-filters="sRGB" filterUnits="userSpaceOnUse" height="499" width="393" x="0" y="0"><feFlood flood-opacity="0" result="BackgroundImageFix"/><feColorMatrix in="SourceAlpha" type="matrix" values="0 0 0 0 0 0 0 0 0 0 0 0 0 0 0 0 0 0 127 0"/><feOffset dx="1" dy="4"/><feGaussianBlur stdDeviation="12.5"/><feColorMatrix type="matrix" values="0 0 0 0 0 0 0 0 0 0 0 0 0 0 0 0 0 0 0.25 0"/><feBlend in2="BackgroundImageFix" mode="normal" result="effect1_dropShadow"/><feBlend in="SourceGraphic" in2="effect1_dropShadow" mode="normal" result="shape"/></filter><g filter="url(#a)"><rect fill="#272727" height="449" rx="10" width="343" x="24" y="21"/><circle cx="178.5" cy="31.5" fill="#6b6b6b" r="2.5"/><rect fill="#6b6b6b" height="3" rx="1.5" width="30" x="185" y="30"/><circle cx="200.5" cy="450.5" fill="#6b6b6b" r="11.5"/><rect height="10" rx="1.5" stroke="#dadada" width="10" x="195.5" y="445.5"/><rect fill="#fff" height="391" rx="3" width="313" x="39" y="41"/><path d="m39 44c0-1.6569 1.3431-3 3-3h307c1.657 0 3 1.3431 3 3v26h-313z" fill="#c4c4c4"/><rect fill="#ddd" height="16" rx="8" width="253" x="69" y="48"/><path d="m39 70h313v362h-313z" fill="#fff"/><path d="m39 316h313v116h-313z" fill="#a8a8a8"/><circle cx="107" cy="374" fill="#fff" r="38"/><rect fill="#fff" height="9.85345" rx="4.92672" transform="matrix(-1 0 0 -1 644 775.836)" width="127" x="322" y="387.918"/><rect fill="#fff" height="9.85345" rx="4.92672" transform="matrix(-1 0 0 -1 546.56 739.706)" width="78.2802" x="273.28" y="369.853"/><path d="m39 70h313v43h-313z" fill="#ededed"/><circle cx="71.5" cy="91.5" fill="#fff" r="12.5"/><g fill="#c4c4c4"><rect height="12" rx="6" width="39" x="153" y="86"/><rect height="12" rx="6" width="39" x="199" y="86"/><rect height="12" rx="6" width="39" x="246" y="86"/><rect height="9.85345" rx="4.92672" width="127" x="137" y="155"/><rect height="9.85345" rx="4.92672" width="78.2802" x="161.634" y="173.065"/></g><rect fill="#ee2c39" height="71.4611" rx="10" width="153" x="124" y="202"/><path d="m215.24 234.903c2 1.155 2 4.042 0 5.197l-20.203 11.664c-2 1.154-4.5-.289-4.5-2.598v-23.329c0-2.309 2.5-3.752 4.5-2.598z" fill="#fff"/></g></svg>