<svg width="274" height="120" viewBox="0 0 274 120" fill="none" xmlns="http://www.w3.org/2000/svg">
<path d="M100.523 21.125C98.9922 22.1458 97.4974 23.276 96.0391 24.5156C94.5807 25.7552 93.3047 27.3594 92.2109 29.3281C91.1172 31.2969 90.2786 33.776 89.6953 36.7656C89.112 39.6823 88.9661 43.401 89.2578 47.9219C89.4036 50.9115 89.5495 54.1562 89.6953 57.6562C89.9141 61.0833 89.9505 64.5469 89.8047 68.0469C89.6589 71.5469 89.2578 74.9375 88.6016 78.2188C87.9453 81.4271 86.8516 84.3073 85.3203 86.8594C83.7891 89.4115 81.7474 91.4896 79.1953 93.0938C76.6432 94.6979 73.4349 95.5729 69.5703 95.7188C66.7266 95.8646 64.2109 95.4635 62.0234 94.5156C59.9089 93.5677 58.0495 92.2917 56.4453 90.6875C54.9141 89.0104 53.638 87.1146 52.6172 85C51.5964 82.8125 50.7578 80.5521 50.1016 78.2188C49.0078 81.2083 47.6953 83.9792 46.1641 86.5312C44.7057 89.0833 42.7734 91.125 40.3672 92.6562C38.0339 94.2604 35.1901 95.1719 31.8359 95.3906C28.5547 95.6823 24.5807 95.026 19.9141 93.4219C16.487 92.2552 13.7891 90.5781 11.8203 88.3906C9.85156 86.1302 8.39323 83.6146 7.44531 80.8438C6.4974 78 5.95052 75.0469 5.80469 71.9844C5.65885 68.849 5.69531 65.8594 5.91406 63.0156C6.13281 60.099 6.46094 57.4375 6.89844 55.0312C7.33594 52.625 7.66406 50.6927 7.88281 49.2344C8.61198 44.5677 9.19531 40.1562 9.63281 36C10.1432 31.7708 10.2161 28.0156 9.85156 24.7344C9.48698 21.3802 8.53906 18.6094 7.00781 16.4219C5.54948 14.1615 3.21615 12.6667 0.0078125 11.9375L0.554688 9.75C1.9401 9.96875 3.58073 10.224 5.47656 10.5156C7.3724 10.8073 9.34115 11.0625 11.3828 11.2812C13.4245 11.4271 15.4297 11.5 17.3984 11.5C19.4401 11.4271 21.263 11.2083 22.8672 10.8438C22.5026 13.6875 21.9922 17.224 21.3359 21.4531C20.7526 25.6094 20.1693 30.0573 19.5859 34.7969C19.0026 39.5365 18.4557 44.3854 17.9453 49.3438C17.5078 54.2292 17.2526 58.8229 17.1797 63.125C16.9609 71.8021 17.9453 78.1458 20.1328 82.1562C22.3932 86.1667 26.3307 88.1354 31.9453 88.0625C34.7891 87.9896 37.0859 86.75 38.8359 84.3438C40.5859 81.9375 41.9349 78.9479 42.8828 75.375C43.9036 71.8021 44.5964 68.0104 44.9609 64C45.3255 59.9167 45.5807 56.1979 45.7266 52.8438C45.7995 49.4896 45.7995 46.2448 45.7266 43.1094C45.6536 39.901 45.4349 36.9479 45.0703 34.25C44.7057 31.5521 44.1953 29.1458 43.5391 27.0312C42.9557 24.8438 42.2266 23.0938 41.3516 21.7812C43.3932 21.7083 45.1432 21.7448 46.6016 21.8906C48.0599 22.0365 49.4089 22.2188 50.6484 22.4375C51.9609 22.5833 53.3099 22.6927 54.6953 22.7656C56.0807 22.8385 57.7214 22.6927 59.6172 22.3281C58.8151 24.5885 58.0859 26.9219 57.4297 29.3281C56.7734 31.7344 56.1901 34.3594 55.6797 37.2031C55.2422 40.0469 54.8776 43.2188 54.5859 46.7188C54.3672 50.1458 54.2578 54.0469 54.2578 58.4219C54.3307 62.7969 54.5495 66.7708 54.9141 70.3438C55.3516 73.9167 56.0807 76.9427 57.1016 79.4219C58.1953 81.8281 59.6536 83.6146 61.4766 84.7812C63.3724 85.875 65.8151 86.1302 68.8047 85.5469C71.7943 84.8906 74.1276 83.3958 75.8047 81.0625C77.4818 78.7292 78.6849 75.849 79.4141 72.4219C80.2161 68.9948 80.6536 65.1667 80.7266 60.9375C80.8724 56.6354 80.8724 52.2604 80.7266 47.8125C80.5807 43.2917 80.3255 39.4635 79.9609 36.3281C79.5964 33.1198 79.013 30.4948 78.2109 28.4531C77.4818 26.4115 76.5339 24.8802 75.3672 23.8594C74.2005 22.7656 72.7786 22.0729 71.1016 21.7812L71.4297 19.375C75.8776 20.1042 80.4714 20.3594 85.2109 20.1406C89.9505 19.849 94.9089 19.0104 100.086 17.625L100.523 21.125ZM124.148 31.0781C127.211 31.0052 130.237 31.625 133.227 32.9375C136.216 34.25 138.914 36.2188 141.32 38.8438C143.727 41.4688 145.659 44.6771 147.117 48.4688C148.648 52.1875 149.414 56.4531 149.414 61.2656C149.414 66.0781 148.794 70.3438 147.555 74.0625C146.388 77.7083 144.784 80.8073 142.742 83.3594C140.773 85.9115 138.477 87.8802 135.852 89.2656C133.299 90.5781 130.602 91.3438 127.758 91.5625C124.549 91.7812 121.414 91.2708 118.352 90.0312C115.289 88.7188 112.518 86.7865 110.039 84.2344C107.633 81.6094 105.664 78.401 104.133 74.6094C102.602 70.7448 101.799 66.3333 101.727 61.375C101.581 56.2708 102.201 51.8594 103.586 48.1406C105.044 44.349 106.867 41.2135 109.055 38.7344C111.242 36.2552 113.685 34.3958 116.383 33.1562C119.081 31.9167 121.669 31.224 124.148 31.0781ZM128.742 84.3438C130.273 84.1979 131.914 83.5417 133.664 82.375C135.414 81.2083 136.945 79.4948 138.258 77.2344C139.57 74.901 140.518 72.0573 141.102 68.7031C141.758 65.276 141.721 61.2656 140.992 56.6719C140.263 52.0781 139.169 48.3594 137.711 45.5156C136.253 42.6719 134.648 40.4844 132.898 38.9531C131.221 37.349 129.508 36.3281 127.758 35.8906C126.008 35.3802 124.477 35.1615 123.164 35.2344C121.049 35.3802 119.263 36.1094 117.805 37.4219C116.346 38.6615 115.107 40.3021 114.086 42.3438C113.138 44.3125 112.409 46.5729 111.898 49.125C111.461 51.6771 111.206 54.3385 111.133 57.1094C110.987 60.6094 111.242 64.1094 111.898 67.6094C112.555 71.1094 113.685 74.2448 115.289 77.0156C116.82 79.7135 118.753 81.6823 121.086 82.9219C123.419 84.1615 125.971 84.6354 128.742 84.3438ZM201.039 44.8594C200.966 46.099 200.82 47.1562 200.602 48.0312C200.456 48.9062 200.346 49.7083 200.273 50.4375C200.201 51.0938 200.237 51.7135 200.383 52.2969C200.529 52.8802 200.93 53.5365 201.586 54.2656C199.617 53.6823 197.831 53.2812 196.227 53.0625C194.622 52.7708 193.201 52.5521 191.961 52.4062C190.576 52.3333 189.336 52.3333 188.242 52.4062C188.971 51.3854 189.445 50.2552 189.664 49.0156C189.956 47.776 190.174 46.2448 190.32 44.4219C190.393 43.1094 190.32 41.7604 190.102 40.375C189.883 38.9896 189.154 38.1146 187.914 37.75C187.404 37.6771 186.857 37.6406 186.273 37.6406C185.69 37.6406 185.034 37.8229 184.305 38.1875C183.576 38.4792 182.737 38.9896 181.789 39.7188C180.841 40.4479 179.784 41.5052 178.617 42.8906C176.94 44.8594 175.445 46.974 174.133 49.2344C172.82 51.4219 171.69 53.6094 170.742 55.7969C169.794 57.9844 169.029 60.0625 168.445 62.0312C167.935 63.9271 167.643 65.5677 167.57 66.9531C167.57 67.1719 167.534 67.3177 167.461 67.3906C167.607 70.2344 167.789 72.8958 168.008 75.375C168.227 77.8542 168.445 79.9688 168.664 81.7188C168.883 83.3958 169.174 84.7812 169.539 85.875C169.977 86.9688 170.451 87.8802 170.961 88.6094C171.471 89.2656 172.018 89.8125 172.602 90.25C173.185 90.6875 173.732 91.0885 174.242 91.4531L174.461 93.75C173.44 93.3125 171.982 92.9844 170.086 92.7656C168.19 92.6198 166.148 92.6198 163.961 92.7656C161.846 92.9115 159.695 93.2396 157.508 93.75C155.32 94.2604 153.461 94.9531 151.93 95.8281L151.602 93.3125C153.643 92.5104 155.503 91.0156 157.18 88.8281C158.93 86.5677 160.023 83.0677 160.461 78.3281C160.68 75.9948 160.898 73.5885 161.117 71.1094C161.409 68.6302 161.591 66.1146 161.664 63.5625C161.737 61.0104 161.701 58.3854 161.555 55.6875C161.409 52.9896 161.008 50.2188 160.352 47.375C159.768 45.3333 159.112 43.4375 158.383 41.6875C157.799 40.2292 157.034 38.8802 156.086 37.6406C155.211 36.3281 154.227 35.526 153.133 35.2344L152.914 32.7188C153.789 32.8646 154.883 33.0104 156.195 33.1562C157.581 33.3021 159.039 33.4479 160.57 33.5938C162.102 33.6667 163.669 33.7031 165.273 33.7031C166.878 33.7031 168.409 33.6302 169.867 33.4844C169.576 34.7969 169.174 37.2396 168.664 40.8125C168.227 44.3854 167.862 48.3958 167.57 52.8438C168.518 50.6562 169.758 48.2135 171.289 45.5156C172.82 42.8177 174.607 40.3385 176.648 38.0781C178.69 35.8177 180.987 33.9948 183.539 32.6094C186.091 31.151 188.898 30.5677 191.961 30.8594C193.784 31.0781 195.279 31.6979 196.445 32.7188C197.685 33.7396 198.633 34.9427 199.289 36.3281C200.018 37.7135 200.492 39.1719 200.711 40.7031C201.003 42.2344 201.112 43.6198 201.039 44.8594ZM257.805 119.672C255.253 119.672 252.737 119.271 250.258 118.469C247.779 117.667 245.628 116.318 243.805 114.422C241.982 112.599 240.633 110.12 239.758 106.984C238.883 103.922 238.773 100.094 239.43 95.5C239.94 92 240.341 88.5729 240.633 85.2188C240.997 81.7917 241.107 78.6562 240.961 75.8125C240.815 72.8958 240.305 70.3438 239.43 68.1562C238.555 65.8958 237.133 64.1458 235.164 62.9062C233.341 61.6667 230.971 60.9375 228.055 60.7188C225.138 60.5 221.602 61.0104 217.445 62.25C217.591 65.3854 217.773 68.3385 217.992 71.1094C218.284 73.8802 218.612 76.3594 218.977 78.5469C219.195 80.7344 219.596 82.6302 220.18 84.2344C220.617 85.6198 221.237 86.8594 222.039 87.9531C222.841 89.0469 223.862 89.4479 225.102 89.1562L224.336 91.8906C222.878 91.3802 221.201 91.0156 219.305 90.7969C217.482 90.5781 215.513 90.5417 213.398 90.6875C211.284 90.8333 209.096 91.1615 206.836 91.6719C204.648 92.1823 202.534 92.9479 200.492 93.9688L199.945 92.1094C201.039 91.3073 202.023 90.5781 202.898 89.9219C203.773 89.2656 204.539 88.4271 205.195 87.4062C205.924 86.3854 206.544 85.0729 207.055 83.4688C207.565 81.8646 208.003 79.7135 208.367 77.0156C208.732 74.3177 209.169 70.8177 209.68 66.5156C210.263 62.1406 210.773 57.4375 211.211 52.4062C211.648 47.375 211.94 42.1979 212.086 36.875C212.232 31.5521 212.086 26.5938 211.648 22C211.211 18.5729 210.555 15.474 209.68 12.7031C209.315 11.5365 208.841 10.4062 208.258 9.3125C207.747 8.14583 207.128 7.125 206.398 6.25C205.669 5.30208 204.831 4.53646 203.883 3.95312C203.008 3.36979 202.023 3.04167 200.93 2.96875V1.32812C202.315 1.54688 203.883 1.80208 205.633 2.09375C207.456 2.3125 209.497 2.45833 211.758 2.53125C214.091 2.60417 216.68 2.49479 219.523 2.20312C222.44 1.83854 225.685 1.14583 229.258 0.125V2.3125C227.945 3.04167 226.742 3.80729 225.648 4.60938C224.555 5.33854 223.534 6.39583 222.586 7.78125C221.711 9.16667 220.945 10.9896 220.289 13.25C219.633 15.5104 219.159 18.5 218.867 22.2188C218.503 25.7188 218.102 29.7656 217.664 34.3594C217.299 38.9531 217.117 43.6927 217.117 48.5781C217.117 50.3281 217.117 52.1146 217.117 53.9375C217.117 55.6875 217.19 57.4375 217.336 59.1875C220.836 57.9479 223.971 56.3438 226.742 54.375C229.513 52.3333 231.846 50.2552 233.742 48.1406C235.638 45.9531 237.096 43.8385 238.117 41.7969C239.138 39.7552 239.648 38.0052 239.648 36.5469C239.503 35.4531 239.247 34.4688 238.883 33.5938C238.518 32.8646 237.971 32.2083 237.242 31.625C236.513 30.9688 235.529 30.6042 234.289 30.5312L234.617 27.7969C239.138 28.3802 243.477 28.6354 247.633 28.5625C251.789 28.4167 255.945 27.4323 260.102 25.6094L260.539 27.7969C259.445 28.3073 258.461 28.8177 257.586 29.3281C256.711 29.7656 255.872 30.3125 255.07 30.9688C254.341 31.625 253.612 32.5 252.883 33.5938C252.154 34.6146 251.352 35.9635 250.477 37.6406C249.82 39.026 248.945 40.6302 247.852 42.4531C246.758 44.276 245.445 46.099 243.914 47.9219C242.456 49.6719 240.742 51.349 238.773 52.9531C236.878 54.4844 234.799 55.724 232.539 56.6719C238.372 56.526 242.93 58.0573 246.211 61.2656C249.492 64.401 251.352 69.6146 251.789 76.9062C251.935 80.625 251.607 84.3802 250.805 88.1719C250.003 91.8906 249.31 95.3906 248.727 98.6719C248.143 102.026 247.924 105.016 248.07 107.641C248.216 110.339 249.31 112.453 251.352 113.984C253.32 115.516 255.253 116.427 257.148 116.719C259.117 117.083 260.94 116.938 262.617 116.281C264.294 115.698 265.753 114.677 266.992 113.219C268.305 111.76 269.326 110.047 270.055 108.078C270.711 106.109 271.003 104.396 270.93 102.938C270.857 101.552 270.529 100.385 269.945 99.4375C269.362 98.5625 268.596 97.9062 267.648 97.4688C266.773 97.0312 265.826 96.8125 264.805 96.8125C262.763 96.8125 260.94 97.5781 259.336 99.1094C257.732 100.641 256.857 102.646 256.711 105.125C256.638 106 256.747 106.729 257.039 107.312C257.331 107.896 257.695 108.333 258.133 108.625C258.643 108.99 259.154 109.245 259.664 109.391C260.247 109.536 260.794 109.536 261.305 109.391C262.253 109.245 263.201 108.698 264.148 107.75C265.169 106.802 265.643 105.672 265.57 104.359C265.133 104.651 264.586 104.906 263.93 105.125C263.273 105.417 262.654 105.562 262.07 105.562C261.56 105.562 261.086 105.38 260.648 105.016C260.284 104.724 260.102 104.141 260.102 103.266C260.102 102.245 260.466 101.443 261.195 100.859C261.997 100.349 262.872 100.094 263.82 100.094C264.768 100.094 265.643 100.385 266.445 100.969C267.247 101.625 267.648 102.573 267.648 103.812C267.721 106.219 266.919 108.224 265.242 109.828C263.638 111.505 261.742 112.344 259.555 112.344C257.951 112.344 256.674 111.87 255.727 110.922C254.852 110.047 254.232 108.917 253.867 107.531C253.576 106.219 253.576 104.76 253.867 103.156C254.232 101.552 254.888 100.057 255.836 98.6719C256.784 97.3594 258.023 96.2292 259.555 95.2812C261.159 94.4062 263.055 93.9688 265.242 93.9688C266.773 93.9688 268.049 94.2604 269.07 94.8438C270.091 95.4271 270.893 96.1562 271.477 97.0312C272.133 97.9792 272.607 99 272.898 100.094C273.19 101.188 273.336 102.281 273.336 103.375C273.409 105.49 273.117 107.495 272.461 109.391C271.805 111.359 270.82 113.109 269.508 114.641C268.195 116.172 266.555 117.375 264.586 118.25C262.617 119.198 260.357 119.672 257.805 119.672Z" fill="black"/>
</svg>
